<svg width="82" height="84" viewBox="0 0 82 84" fill="none" xmlns="http://www.w3.org/2000/svg">
<rect x="0.5" y="0.5" width="81" height="83" rx="13.5" fill="white" stroke="#DCDCDC"/>
<path d="M49.2616 62L48.0616 52.56V36.96C48.0616 34.24 47.5016 32.2267 46.3816 30.92C45.2882 29.6133 43.4216 28.96 40.7816 28.96C39.2616 28.96 37.9416 29.1867 36.8216 29.64C35.7016 30.0933 34.8349 30.7467 34.2216 31.6C33.6349 32.4267 33.3416 33.44 33.3416 34.64H23.0216C23.0216 31.7067 23.7282 29.32 25.1416 27.48C26.5549 25.6133 28.5816 24.2533 31.2216 23.4C33.8882 22.52 37.0749 22.08 40.7816 22.08C44.1416 22.08 47.0749 22.6267 49.5816 23.72C52.0882 24.7867 54.0349 26.44 55.4216 28.68C56.8082 30.92 57.5016 33.7867 57.5016 37.28V62H49.2616ZM36.5416 63.12C33.2082 63.12 30.4216 62.5467 28.1816 61.4C25.9682 60.2267 24.3016 58.6933 23.1816 56.8C22.0616 54.9067 21.5016 52.8533 21.5016 50.64C21.5016 48.1867 22.1416 46.1333 23.4216 44.48C24.7282 42.8 26.5682 41.5467 28.9416 40.72C31.3149 39.8667 34.1149 39.44 37.3416 39.44C39.4482 39.44 41.4349 39.6 43.3016 39.92C45.1949 40.24 47.0749 40.6667 48.9416 41.2V46.72C47.4749 46.24 45.8749 45.8667 44.1416 45.6C42.4082 45.3333 40.7816 45.2 39.2616 45.2C37.0216 45.2 35.1816 45.6133 33.7416 46.44C32.3016 47.2667 31.5816 48.6667 31.5816 50.64C31.5816 52.08 32.1682 53.32 33.3416 54.36C34.5149 55.4 36.3816 55.92 38.9416 55.92C40.8882 55.92 42.5416 55.4933 43.9016 54.64C45.2616 53.7867 46.2882 52.72 46.9816 51.44C47.7016 50.16 48.0616 48.88 48.0616 47.6H50.3016C50.3016 50.4 49.7816 52.9867 48.7416 55.36C47.7016 57.7067 46.1549 59.5867 44.1016 61C42.0749 62.4133 39.5549 63.12 36.5416 63.12Z" fill="black"/>
</svg>
