<svg width="136" height="66" viewBox="0 0 136 66" fill="none" xmlns="http://www.w3.org/2000/svg">
<path d="M0.644924 25L8.37992 2.285H13.5599L20.9799 25H16.6399L15.0649 20.1H6.62992L5.01992 25H0.644924ZM7.67992 16.985H14.0849L10.8999 7.22L7.67992 16.985ZM37.2516 2.285V21.395H46.5966V25H33.1216V2.285H37.2516ZM52.4466 4.91C51.6416 4.91 51.0116 4.7 50.5566 4.28C50.1132 3.84833 49.8916 3.25333 49.8916 2.495C49.8916 1.76 50.1132 1.17667 50.5566 0.744999C51.0116 0.301666 51.6416 0.0799996 52.4466 0.0799996C53.2399 0.0799996 53.8641 0.301666 54.3191 0.744999C54.7741 1.17667 55.0016 1.76 55.0016 2.495C55.0016 3.25333 54.7741 3.84833 54.3191 4.28C53.8641 4.7 53.2399 4.91 52.4466 4.91ZM50.3816 25V7.955H54.5116V25H50.3816ZM58.2959 8.025H63.0559L67.1159 21.465H66.8009L70.8609 8.025H75.6209L69.2859 25H64.6309L58.2959 8.025ZM81.3104 4.91C80.5054 4.91 79.8754 4.7 79.4204 4.28C78.977 3.84833 78.7554 3.25333 78.7554 2.495C78.7554 1.76 78.977 1.17667 79.4204 0.744999C79.8754 0.301666 80.5054 0.0799996 81.3104 0.0799996C82.1037 0.0799996 82.7279 0.301666 83.1829 0.744999C83.6379 1.17667 83.8654 1.76 83.8654 2.495C83.8654 3.25333 83.6379 3.84833 83.1829 4.28C82.7279 4.7 82.1037 4.91 81.3104 4.91ZM79.2454 25V7.955H83.3754V25H79.2454ZM101.65 25V15.06C101.65 13.8 101.346 12.8492 100.74 12.2075C100.133 11.5658 99.3397 11.245 98.3597 11.245C97.5314 11.245 96.7964 11.4725 96.1547 11.9275C95.5247 12.3825 95.0289 13.0708 94.6672 13.9925C94.3056 14.9025 94.1247 16.04 94.1247 17.405H92.7597C92.7597 15.2 93.0339 13.3683 93.5822 11.91C94.1306 10.44 94.9064 9.34333 95.9097 8.62C96.9131 7.89667 98.0914 7.535 99.4447 7.535C100.845 7.535 102.011 7.85 102.945 8.48C103.89 9.09833 104.596 9.97333 105.062 11.105C105.541 12.2367 105.78 13.555 105.78 15.06V25H101.65ZM89.9947 25V8.025H93.5997L94.1247 11.385V25H89.9947ZM117.961 33.785C116.013 33.785 114.345 33.5167 112.956 32.98C111.58 32.4433 110.524 31.7375 109.789 30.8625C109.054 29.9992 108.686 29.06 108.686 28.045C108.686 26.8433 109.124 25.91 109.999 25.245C110.874 24.5917 111.976 24.265 113.306 24.265L116.316 25.385C115.173 25.385 114.292 25.6008 113.674 26.0325C113.056 26.4642 112.746 27.065 112.746 27.835C112.746 28.64 113.207 29.2817 114.129 29.76C115.062 30.25 116.34 30.495 117.961 30.495C119.14 30.495 120.161 30.32 121.024 29.97C121.887 29.62 122.552 29.165 123.019 28.605C123.497 28.045 123.736 27.45 123.736 26.82C123.736 26.4 123.596 26.0558 123.316 25.7875C123.036 25.5192 122.605 25.385 122.021 25.385H116.316C115.173 25.385 114.129 25.2042 113.184 24.8425C112.251 24.4692 111.504 23.9733 110.944 23.355C110.396 22.725 110.121 22.025 110.121 21.255C110.121 20.5433 110.32 19.9308 110.716 19.4175C111.113 18.8925 111.65 18.49 112.326 18.21C113.015 17.93 113.785 17.79 114.636 17.79L115.686 19.155C115.348 19.155 115.021 19.225 114.706 19.365C114.403 19.4933 114.152 19.6858 113.954 19.9425C113.756 20.1992 113.656 20.52 113.656 20.905C113.656 21.3717 113.855 21.7508 114.251 22.0425C114.648 22.3342 115.336 22.48 116.316 22.48H122.021C123.83 22.48 125.247 22.8125 126.274 23.4775C127.312 24.1425 127.831 25.1633 127.831 26.54C127.831 27.765 127.429 28.9258 126.624 30.0225C125.819 31.1308 124.676 32.035 123.194 32.735C121.724 33.435 119.98 33.785 117.961 33.785ZM118.171 19.75C116.83 19.75 115.599 19.4992 114.479 18.9975C113.371 18.4842 112.484 17.7725 111.819 16.8625C111.154 15.9525 110.821 14.885 110.821 13.66C110.821 12.4117 111.154 11.3267 111.819 10.405C112.484 9.48333 113.371 8.7775 114.479 8.2875C115.599 7.78583 116.83 7.535 118.171 7.535C119.478 7.535 120.686 7.78583 121.794 8.2875C122.902 8.7775 123.795 9.48333 124.471 10.405C125.148 11.3267 125.486 12.4117 125.486 13.66C125.486 14.885 125.148 15.9525 124.471 16.8625C123.795 17.7725 122.902 18.4842 121.794 18.9975C120.686 19.4992 119.478 19.75 118.171 19.75ZM118.206 16.88C119.28 16.88 120.085 16.5708 120.621 15.9525C121.158 15.3342 121.426 14.57 121.426 13.66C121.426 12.68 121.152 11.8925 120.604 11.2975C120.067 10.7025 119.256 10.405 118.171 10.405C117.121 10.405 116.316 10.7025 115.756 11.2975C115.196 11.8925 114.916 12.68 114.916 13.66C114.916 14.57 115.196 15.3342 115.756 15.9525C116.328 16.5708 117.145 16.88 118.206 16.88ZM124.191 10.265L122.301 9.18C122.301 8.165 122.535 7.27833 123.001 6.52C123.48 5.75 124.11 5.155 124.891 4.735C125.685 4.315 126.56 4.105 127.516 4.105L127.306 8.06C126.291 8.06 125.516 8.24083 124.979 8.6025C124.454 8.9525 124.191 9.50667 124.191 10.265ZM15.9052 65L23.6402 42.285H28.8202L36.2402 65H31.9002L30.3252 60.1H21.8902L20.2802 65H15.9052ZM22.9402 56.985H29.3452L26.1602 47.22L22.9402 56.985ZM39.9144 65V47.955H44.0444V65H39.9144ZM43.0294 57.545C43.0294 55.3167 43.2802 53.4733 43.7819 52.015C44.2835 50.5567 44.9544 49.4775 45.7944 48.7775C46.646 48.0658 47.591 47.71 48.6294 47.71C48.9094 47.71 49.1719 47.7275 49.4169 47.7625C49.6735 47.7975 49.9244 47.85 50.1694 47.92L50.0994 52.05C49.796 51.98 49.4694 51.9217 49.1194 51.875C48.7694 51.8283 48.4544 51.805 48.1744 51.805C47.2644 51.805 46.5002 52.0267 45.8819 52.47C45.2752 52.9017 44.8144 53.5433 44.4994 54.395C44.196 55.2467 44.0444 56.2967 44.0444 57.545H43.0294ZM59.7096 65.49C58.2863 65.49 56.9621 65.1225 55.7371 64.3875C54.5238 63.6408 53.5379 62.5967 52.7796 61.255C52.0329 59.9017 51.6596 58.315 51.6596 56.495C51.6596 54.57 52.0329 52.9425 52.7796 51.6125C53.5379 50.2708 54.5238 49.2558 55.7371 48.5675C56.9621 47.8792 58.2863 47.535 59.7096 47.535C60.8179 47.535 61.7921 47.7158 62.6321 48.0775C63.4838 48.4275 64.2071 48.9058 64.8021 49.5125C65.3971 50.1075 65.8638 50.7725 66.2021 51.5075C66.5404 52.2425 66.7563 52.9833 66.8496 53.73L62.6846 53.835C62.4979 53.0883 62.1479 52.47 61.6346 51.98C61.1329 51.49 60.4796 51.245 59.6746 51.245C59.0096 51.245 58.3854 51.4317 57.8021 51.805C57.2188 52.1667 56.7404 52.7325 56.3671 53.5025C56.0054 54.2725 55.8246 55.27 55.8246 56.495C55.8246 57.6617 55.9938 58.6358 56.3321 59.4175C56.6821 60.1875 57.1488 60.7708 57.7321 61.1675C58.3154 61.5525 58.9629 61.745 59.6746 61.745C60.7246 61.745 61.4888 61.4942 61.9671 60.9925C62.4454 60.4792 62.6846 59.7967 62.6846 58.945H66.8496C66.8496 60.1467 66.5754 61.2433 66.0271 62.235C65.4788 63.2267 64.6738 64.02 63.6121 64.615C62.5504 65.1983 61.2496 65.49 59.7096 65.49ZM83.065 65V55.06C83.065 53.8 82.7617 52.8492 82.155 52.2075C81.5483 51.5658 80.755 51.245 79.775 51.245C78.9467 51.245 78.2117 51.4725 77.57 51.9275C76.94 52.3825 76.4442 53.0708 76.0825 53.9925C75.7208 54.9025 75.54 56.04 75.54 57.405H74.175C74.175 55.2 74.4492 53.3683 74.9975 51.91C75.5458 50.44 76.3217 49.3433 77.325 48.62C78.3283 47.8967 79.5067 47.535 80.86 47.535C82.26 47.535 83.4267 47.85 84.36 48.48C85.305 49.0983 86.0108 49.9733 86.4775 51.105C86.9558 52.2367 87.195 53.555 87.195 55.06V65H83.065ZM71.41 65V40.99H75.54V65H71.41ZM95.2466 44.91C94.4416 44.91 93.8116 44.7 93.3566 44.28C92.9133 43.8483 92.6916 43.2533 92.6916 42.495C92.6916 41.76 92.9133 41.1767 93.3566 40.745C93.8116 40.3017 94.4416 40.08 95.2466 40.08C96.04 40.08 96.6641 40.3017 97.1191 40.745C97.5741 41.1767 97.8016 41.76 97.8016 42.495C97.8016 43.2533 97.5741 43.8483 97.1191 44.28C96.6641 44.7 96.04 44.91 95.2466 44.91ZM93.1816 65V47.955H97.3116V65H93.1816ZM101.096 48.025H105.856L109.916 61.465H109.601L113.661 48.025H118.421L112.086 65H107.431L101.096 48.025ZM128.03 65.49C126.584 65.49 125.26 65.1167 124.058 64.37C122.856 63.6233 121.894 62.5792 121.17 61.2375C120.447 59.8842 120.085 58.3033 120.085 56.495C120.085 54.6283 120.441 53.0242 121.153 51.6825C121.876 50.3408 122.839 49.3142 124.04 48.6025C125.242 47.8908 126.572 47.535 128.03 47.535C129.384 47.535 130.55 47.8092 131.53 48.3575C132.522 48.8942 133.315 49.6292 133.91 50.5625C134.517 51.4842 134.925 52.5283 135.135 53.695C135.345 54.8617 135.357 56.0633 135.17 57.3H123.375V55.06H132.248L131.443 55.585C131.478 55.0367 131.449 54.4825 131.355 53.9225C131.274 53.3625 131.11 52.8492 130.865 52.3825C130.62 51.9158 130.27 51.5425 129.815 51.2625C129.372 50.9708 128.8 50.825 128.1 50.825C127.26 50.825 126.549 51.035 125.965 51.455C125.382 51.875 124.939 52.4467 124.635 53.17C124.332 53.8933 124.18 54.71 124.18 55.62V57.265C124.18 58.2217 124.32 59.0675 124.6 59.8025C124.892 60.5375 125.318 61.115 125.878 61.535C126.45 61.955 127.167 62.165 128.03 62.165C128.835 62.165 129.512 61.9783 130.06 61.605C130.609 61.2317 130.959 60.6717 131.11 59.925H135.275C135.1 61.0217 134.686 61.99 134.033 62.83C133.391 63.6583 132.557 64.3117 131.53 64.79C130.504 65.2567 129.337 65.49 128.03 65.49Z" fill="#1C1A2B"/>
</svg>
