<svg width="83" height="85" viewBox="0 0 83 85" fill="none" xmlns="http://www.w3.org/2000/svg">
<rect x="0.5" y="0.5" width="82" height="84" rx="13.5" fill="white" stroke="#DCDCDC"/>
<path d="M39.06 74.61C34.184 74.61 29.9827 73.3987 26.456 70.976C22.96 68.5533 20.3993 64.9347 18.774 60.12C17.1487 55.2747 16.6887 49.2793 17.394 42.134C18.13 34.958 19.7553 28.9627 22.27 24.148C24.7847 19.3333 27.9893 15.7147 31.884 13.292C35.8093 10.8693 40.2253 9.658 45.132 9.658C52.216 9.658 57.414 11.5287 60.726 15.27C64.038 18.9807 65.7093 23.78 65.74 29.668L51.158 32.428C50.8513 29.852 50.146 27.7207 49.042 26.034C47.938 24.3167 46.2207 23.458 43.89 23.458C41.9887 23.458 40.2253 24.1327 38.6 25.482C36.9747 26.8313 35.5947 28.886 34.46 31.646C33.3253 34.3753 32.528 37.8713 32.068 42.134C31.7 46.3353 31.8073 49.8007 32.39 52.53C32.9727 55.2593 33.9387 57.2833 35.288 58.602C36.668 59.9207 38.3393 60.58 40.302 60.58C43.0313 60.58 45.1473 59.7673 46.65 58.142C48.1833 56.5167 49.088 54.5387 49.364 52.208H64.038C63.5473 57.0227 62.2593 61.1013 60.174 64.444C58.0887 67.756 55.2673 70.286 51.71 72.034C48.1833 73.7513 43.9667 74.61 39.06 74.61Z" fill="#1C1A2A"/>
</svg>
