<svg width="82" height="84" viewBox="0 0 82 84" fill="none" xmlns="http://www.w3.org/2000/svg">
<rect x="0.5" y="0.5" width="81" height="83" rx="13.5" fill="white" stroke="#DCDCDC"/>
<path d="M41.9881 63.12C38.7348 63.12 35.7081 62.28 32.9081 60.6C30.1348 58.8933 27.8815 56.5067 26.1481 53.44C24.4415 50.3467 23.5881 46.72 23.5881 42.56C23.5881 38.16 24.4415 34.44 26.1481 31.4C27.8815 28.3333 30.1348 26.0133 32.9081 24.44C35.7081 22.8667 38.7348 22.08 41.9881 22.08C44.5215 22.08 46.7481 22.4933 48.6681 23.32C50.6148 24.12 52.2681 25.2133 53.6281 26.6C54.9881 27.96 56.0548 29.48 56.8281 31.16C57.6015 32.84 58.0948 34.5333 58.3081 36.24L48.7881 36.48C48.3615 34.7733 47.5615 33.36 46.3881 32.24C45.2415 31.12 43.7481 30.56 41.9081 30.56C40.3881 30.56 38.9615 30.9867 37.6281 31.84C36.2948 32.6667 35.2015 33.96 34.3481 35.72C33.5215 37.48 33.1081 39.76 33.1081 42.56C33.1081 45.2267 33.4948 47.4533 34.2681 49.24C35.0681 51 36.1348 52.3333 37.4681 53.24C38.8015 54.12 40.2815 54.56 41.9081 54.56C44.3081 54.56 46.0548 53.9867 47.1481 52.84C48.2415 51.6667 48.7881 50.1067 48.7881 48.16H58.3081C58.3081 50.9067 57.6815 53.4133 56.4281 55.68C55.1748 57.9467 53.3348 59.76 50.9081 61.12C48.4815 62.4533 45.5081 63.12 41.9881 63.12Z" fill="black"/>
</svg>
