<svg width="82" height="84" viewBox="0 0 82 84" fill="none" xmlns="http://www.w3.org/2000/svg">
<rect x="0.5" y="0.5" width="81" height="83" rx="13.5" fill="white" stroke="#DCDCDC"/>
<path d="M41.7091 63.12C38.4024 63.12 35.3757 62.2667 32.6291 60.56C29.8824 58.8533 27.6824 56.4667 26.0291 53.4C24.3757 50.3067 23.5491 46.6933 23.5491 42.56C23.5491 38.2933 24.3624 34.6267 25.9891 31.56C27.6424 28.4933 29.8424 26.1467 32.5891 24.52C35.3357 22.8933 38.3757 22.08 41.7091 22.08C44.8024 22.08 47.4691 22.7067 49.7091 23.96C51.9757 25.1867 53.7891 26.8667 55.1491 29C56.5357 31.1067 57.4691 33.4933 57.9491 36.16C58.4291 38.8267 58.4557 41.5733 58.0291 44.4H31.0691V39.28H51.3491L49.5091 40.48C49.5891 39.2267 49.5224 37.96 49.3091 36.68C49.1224 35.4 48.7491 34.2267 48.1891 33.16C47.6291 32.0933 46.8291 31.24 45.7891 30.6C44.7757 29.9333 43.4691 29.6 41.8691 29.6C39.9491 29.6 38.3224 30.08 36.9891 31.04C35.6557 32 34.6424 33.3067 33.9491 34.96C33.2557 36.6133 32.9091 38.48 32.9091 40.56V44.32C32.9091 46.5067 33.2291 48.44 33.8691 50.12C34.5357 51.8 35.5091 53.12 36.7891 54.08C38.0957 55.04 39.7357 55.52 41.7091 55.52C43.5491 55.52 45.0957 55.0933 46.3491 54.24C47.6024 53.3867 48.4024 52.1067 48.7491 50.4H58.2691C57.8691 52.9067 56.9224 55.12 55.4291 57.04C53.9624 58.9333 52.0557 60.4267 49.7091 61.52C47.3624 62.5867 44.6957 63.12 41.7091 63.12Z" fill="black"/>
</svg>
