<svg width="307" height="61" viewBox="0 0 307 61" fill="none" xmlns="http://www.w3.org/2000/svg">
<rect x="0.5" y="0.5" width="306" height="60" rx="30" fill="white" stroke="#DCDCDC"/>
<path d="M47.8965 39V21.164H59.0965V23.46H50.5565V28.892H58.5925V31.188H50.5565V36.676H59.0965V39H47.8965ZM73.0759 39V31.104C73.0759 29.9373 72.7959 29.0553 72.2359 28.458C71.6852 27.8513 70.9386 27.548 69.9959 27.548C69.2492 27.548 68.5959 27.7533 68.0359 28.164C67.4852 28.5653 67.0559 29.158 66.7479 29.942C66.4492 30.7167 66.2999 31.664 66.2999 32.784H65.3479C65.3479 31.132 65.5579 29.7413 65.9779 28.612C66.4072 27.4827 67.0186 26.6287 67.8119 26.05C68.6052 25.462 69.5572 25.168 70.6679 25.168C71.7506 25.168 72.6652 25.4107 73.4119 25.896C74.1679 26.3813 74.7419 27.072 75.1339 27.968C75.5259 28.8547 75.7219 29.9 75.7219 31.104V39H73.0759ZM63.6399 39V25.532H65.9499L66.2999 28.444V39H63.6399ZM84.8024 39.364C84.0371 39.364 83.3464 39.2193 82.7304 38.93C82.1144 38.6407 81.6244 38.2067 81.2604 37.628C80.9058 37.04 80.7284 36.3027 80.7284 35.416V21.864H83.3744V35.332C83.3744 36.6013 83.9671 37.236 85.1524 37.236C85.5164 37.236 85.8711 37.1987 86.2164 37.124C86.5618 37.04 86.9538 36.9187 87.3924 36.76L87.7704 38.65C87.2758 38.8553 86.7858 39.0233 86.3004 39.154C85.8244 39.294 85.3251 39.364 84.8024 39.364ZM78.6704 27.338V25.532H87.3644V27.338H78.6704ZM95.7445 39.364C94.5872 39.364 93.5419 39.0653 92.6085 38.468C91.6752 37.8707 90.9332 37.04 90.3825 35.976C89.8412 34.912 89.5705 33.68 89.5705 32.28C89.5705 30.796 89.8412 29.5267 90.3825 28.472C90.9239 27.408 91.6612 26.5913 92.5945 26.022C93.5279 25.4527 94.5779 25.168 95.7445 25.168C96.7899 25.168 97.6859 25.3827 98.4325 25.812C99.1792 26.232 99.7812 26.8013 100.239 27.52C100.696 28.2293 101.009 29.0367 101.177 29.942C101.354 30.8473 101.387 31.7807 101.275 32.742H91.6985V31.202H99.4545L98.8105 31.622C98.8385 31.118 98.8105 30.614 98.7265 30.11C98.6519 29.606 98.5025 29.144 98.2785 28.724C98.0545 28.2947 97.7372 27.954 97.3265 27.702C96.9252 27.4407 96.4119 27.31 95.7865 27.31C95.0025 27.31 94.3445 27.506 93.8125 27.898C93.2899 28.29 92.8932 28.8173 92.6225 29.48C92.3519 30.1333 92.2165 30.852 92.2165 31.636V32.714C92.2165 33.582 92.3472 34.352 92.6085 35.024C92.8699 35.696 93.2572 36.228 93.7705 36.62C94.2932 37.0027 94.9512 37.194 95.7445 37.194C96.5192 37.194 97.1585 37.012 97.6625 36.648C98.1759 36.284 98.4932 35.738 98.6145 35.01H101.331C101.191 35.8873 100.869 36.6527 100.365 37.306C99.8605 37.9593 99.2119 38.468 98.4185 38.832C97.6345 39.1867 96.7432 39.364 95.7445 39.364ZM105.181 39V25.49H107.841V39H105.181ZM107.113 32.98C107.113 31.2533 107.29 29.8207 107.645 28.682C108.009 27.534 108.513 26.68 109.157 26.12C109.81 25.56 110.575 25.28 111.453 25.28C111.714 25.28 111.957 25.2987 112.181 25.336C112.414 25.3733 112.643 25.4247 112.867 25.49L112.769 28.136C112.517 28.0707 112.241 28.0147 111.943 27.968C111.653 27.912 111.387 27.884 111.145 27.884C110.379 27.884 109.754 28.0893 109.269 28.5C108.783 28.9013 108.424 29.4847 108.191 30.25C107.957 31.006 107.841 31.916 107.841 32.98H107.113ZM126.199 39.364C125.434 39.364 124.743 39.2193 124.127 38.93C123.511 38.6407 123.021 38.2067 122.657 37.628C122.303 37.04 122.125 36.3027 122.125 35.416V21.864H124.771V35.332C124.771 36.6013 125.364 37.236 126.549 37.236C126.913 37.236 127.268 37.1987 127.613 37.124C127.959 37.04 128.351 36.9187 128.789 36.76L129.167 38.65C128.673 38.8553 128.183 39.0233 127.697 39.154C127.221 39.294 126.722 39.364 126.199 39.364ZM120.067 27.338V25.532H128.761V27.338H120.067ZM141.747 39V31.104C141.747 29.9373 141.467 29.0553 140.907 28.458C140.357 27.8513 139.61 27.548 138.667 27.548C137.921 27.548 137.267 27.7533 136.707 28.164C136.157 28.5653 135.727 29.158 135.419 29.942C135.121 30.7167 134.971 31.664 134.971 32.784H134.019C134.019 31.132 134.229 29.7413 134.649 28.612C135.079 27.4827 135.69 26.6287 136.483 26.05C137.277 25.462 138.229 25.168 139.339 25.168C140.422 25.168 141.337 25.4107 142.083 25.896C142.839 26.3813 143.413 27.072 143.805 27.968C144.197 28.8547 144.393 29.9 144.393 31.104V39H141.747ZM132.311 39V19.862H134.971V39H132.311ZM153.978 39.364C152.821 39.364 151.775 39.0653 150.842 38.468C149.909 37.8707 149.167 37.04 148.616 35.976C148.075 34.912 147.804 33.68 147.804 32.28C147.804 30.796 148.075 29.5267 148.616 28.472C149.157 27.408 149.895 26.5913 150.828 26.022C151.761 25.4527 152.811 25.168 153.978 25.168C155.023 25.168 155.919 25.3827 156.666 25.812C157.413 26.232 158.015 26.8013 158.472 27.52C158.929 28.2293 159.242 29.0367 159.41 29.942C159.587 30.8473 159.62 31.7807 159.508 32.742H149.932V31.202H157.688L157.044 31.622C157.072 31.118 157.044 30.614 156.96 30.11C156.885 29.606 156.736 29.144 156.512 28.724C156.288 28.2947 155.971 27.954 155.56 27.702C155.159 27.4407 154.645 27.31 154.02 27.31C153.236 27.31 152.578 27.506 152.046 27.898C151.523 28.29 151.127 28.8173 150.856 29.48C150.585 30.1333 150.45 30.852 150.45 31.636V32.714C150.45 33.582 150.581 34.352 150.842 35.024C151.103 35.696 151.491 36.228 152.004 36.62C152.527 37.0027 153.185 37.194 153.978 37.194C154.753 37.194 155.392 37.012 155.896 36.648C156.409 36.284 156.727 35.738 156.848 35.01H159.564C159.424 35.8873 159.102 36.6527 158.598 37.306C158.094 37.9593 157.445 38.468 156.652 38.832C155.868 39.1867 154.977 39.364 153.978 39.364ZM167.898 39L174.002 21.164H177.292L183.214 39H180.414L179.028 34.744H172.14L170.698 39H167.898ZM172.812 32.7H178.37L175.598 24.37L172.812 32.7ZM186.314 39V25.49H188.974V39H186.314ZM188.246 32.98C188.246 31.2533 188.423 29.8207 188.778 28.682C189.142 27.534 189.646 26.68 190.29 26.12C190.943 25.56 191.708 25.28 192.586 25.28C192.847 25.28 193.09 25.2987 193.314 25.336C193.547 25.3733 193.776 25.4247 194 25.49L193.902 28.136C193.65 28.0707 193.374 28.0147 193.076 27.968C192.786 27.912 192.52 27.884 192.278 27.884C191.512 27.884 190.887 28.0893 190.402 28.5C189.916 28.9013 189.557 29.4847 189.324 30.25C189.09 31.006 188.974 31.916 188.974 32.98H188.246ZM201.378 39.364C200.277 39.364 199.25 39.07 198.298 38.482C197.346 37.894 196.581 37.068 196.002 36.004C195.424 34.94 195.134 33.6893 195.134 32.252C195.134 30.74 195.424 29.4613 196.002 28.416C196.581 27.3613 197.346 26.5587 198.298 26.008C199.25 25.448 200.277 25.168 201.378 25.168C202.19 25.168 202.914 25.2987 203.548 25.56C204.183 25.812 204.729 26.1573 205.186 26.596C205.644 27.0253 206.012 27.5107 206.292 28.052C206.582 28.5933 206.782 29.1533 206.894 29.732L204.192 29.872C203.996 29.172 203.651 28.612 203.156 28.192C202.671 27.7627 202.069 27.548 201.35 27.548C200.744 27.548 200.17 27.7207 199.628 28.066C199.096 28.402 198.662 28.92 198.326 29.62C198 30.3107 197.836 31.188 197.836 32.252C197.836 33.2413 197.99 34.086 198.298 34.786C198.606 35.486 199.026 36.0227 199.558 36.396C200.09 36.7693 200.688 36.956 201.35 36.956C202.302 36.956 203.012 36.7273 203.478 36.27C203.954 35.8033 204.192 35.164 204.192 34.352H206.894C206.894 35.2947 206.675 36.144 206.236 36.9C205.798 37.656 205.163 38.258 204.332 38.706C203.511 39.1447 202.526 39.364 201.378 39.364ZM220.208 39V31.104C220.208 29.9373 219.928 29.0553 219.368 28.458C218.817 27.8513 218.071 27.548 217.128 27.548C216.381 27.548 215.728 27.7533 215.168 28.164C214.617 28.5653 214.188 29.158 213.88 29.942C213.581 30.7167 213.432 31.664 213.432 32.784H212.48C212.48 31.132 212.69 29.7413 213.11 28.612C213.539 27.4827 214.151 26.6287 214.944 26.05C215.737 25.462 216.689 25.168 217.8 25.168C218.883 25.168 219.797 25.4107 220.544 25.896C221.3 26.3813 221.874 27.072 222.266 27.968C222.658 28.8547 222.854 29.9 222.854 31.104V39H220.208ZM210.772 39V19.862H213.432V39H210.772ZM229.149 22.662C228.617 22.662 228.197 22.5173 227.889 22.228C227.59 21.9293 227.441 21.528 227.441 21.024C227.441 20.5387 227.59 20.156 227.889 19.876C228.197 19.5867 228.617 19.442 229.149 19.442C229.671 19.442 230.082 19.5867 230.381 19.876C230.689 20.156 230.843 20.5387 230.843 21.024C230.843 21.528 230.689 21.9293 230.381 22.228C230.082 22.5173 229.671 22.662 229.149 22.662ZM227.819 39V25.49H230.479V39H227.819ZM233.7 25.532H236.752L240.546 36.718H240.266L244.06 25.532H247.112L241.876 39H238.922L233.7 25.532ZM254.791 39.364C253.634 39.364 252.589 39.0653 251.655 38.468C250.722 37.8707 249.98 37.04 249.429 35.976C248.888 34.912 248.617 33.68 248.617 32.28C248.617 30.796 248.888 29.5267 249.429 28.472C249.971 27.408 250.708 26.5913 251.641 26.022C252.575 25.4527 253.625 25.168 254.791 25.168C255.837 25.168 256.733 25.3827 257.479 25.812C258.226 26.232 258.828 26.8013 259.285 27.52C259.743 28.2293 260.055 29.0367 260.223 29.942C260.401 30.8473 260.433 31.7807 260.321 32.742H250.745V31.202H258.501L257.857 31.622C257.885 31.118 257.857 30.614 257.773 30.11C257.699 29.606 257.549 29.144 257.325 28.724C257.101 28.2947 256.784 27.954 256.373 27.702C255.972 27.4407 255.459 27.31 254.833 27.31C254.049 27.31 253.391 27.506 252.859 27.898C252.337 28.29 251.94 28.8173 251.669 29.48C251.399 30.1333 251.263 30.852 251.263 31.636V32.714C251.263 33.582 251.394 34.352 251.655 35.024C251.917 35.696 252.304 36.228 252.817 36.62C253.34 37.0027 253.998 37.194 254.791 37.194C255.566 37.194 256.205 37.012 256.709 36.648C257.223 36.284 257.54 35.738 257.661 35.01H260.377C260.237 35.8873 259.915 36.6527 259.411 37.306C258.907 37.9593 258.259 38.468 257.465 38.832C256.681 39.1867 255.79 39.364 254.791 39.364Z" fill="#1C1A2B"/>
</svg>
