<svg width="82" height="84" viewBox="0 0 82 84" fill="none" xmlns="http://www.w3.org/2000/svg">
<rect x="0.5" y="0.5" width="81" height="83" rx="13.5" fill="white" stroke="#DCDCDC"/>
<path d="M35.4925 66V22.48C35.4925 19.68 36.0392 17.4 37.1325 15.64C38.2258 13.88 39.6658 12.5867 41.4525 11.76C43.2658 10.9067 45.2258 10.48 47.3325 10.48C48.6392 10.48 49.9858 10.5733 51.3725 10.76C52.7592 10.9467 54.1058 11.1733 55.4125 11.44L53.5725 18.72C52.9058 18.48 52.2125 18.2933 51.4925 18.16C50.7725 18 50.0792 17.92 49.4125 17.92C48.6658 17.92 47.9592 18.0667 47.2925 18.36C46.6258 18.6267 46.0792 19.1067 45.6525 19.8C45.2258 20.4933 45.0125 21.44 45.0125 22.64V66H35.4925ZM29.7325 33.44V27.2H52.1325V33.44H29.7325Z" fill="black"/>
</svg>
