<svg width="135" height="13" viewBox="0 0 135 13" fill="none" xmlns="http://www.w3.org/2000/svg">
<path d="M3.71458 12.2125C3.04591 12.2125 2.45941 12.051 1.95508 11.728C1.45074 11.405 1.07674 10.9262 0.833075 10.2915C0.589408 9.65117 0.512908 8.85783 0.603575 7.9115C0.694242 6.95383 0.923742 6.15483 1.29208 5.5145C1.66041 4.87417 2.12508 4.39533 2.68608 4.078C3.25274 3.755 3.86758 3.5935 4.53058 3.5935C5.19358 3.5935 5.77441 3.75783 6.27308 4.0865C6.77174 4.4095 7.14574 4.89117 7.39508 5.5315C7.64441 6.16617 7.72374 6.9595 7.63308 7.9115C7.53674 8.85783 7.30441 9.65117 6.93608 10.2915C6.56774 10.9262 6.10591 11.405 5.55058 11.728C4.99524 12.051 4.38324 12.2125 3.71458 12.2125ZM3.79108 10.7675C4.42008 10.7675 4.94141 10.521 5.35508 10.028C5.76874 9.52933 6.02374 8.82383 6.12008 7.9115C6.21074 6.98783 6.10591 6.27667 5.80558 5.778C5.51091 5.27933 5.05191 5.03 4.42858 5.03C3.80524 5.03 3.28958 5.27933 2.88158 5.778C2.47358 6.271 2.22424 6.98217 2.13358 7.9115C2.07124 8.51217 2.09391 9.02783 2.20158 9.4585C2.31491 9.8835 2.50474 10.2093 2.77108 10.436C3.03741 10.657 3.37741 10.7675 3.79108 10.7675ZM9.12097 4.9365L9.23147 3.806H10.3705L10.4895 2.701C10.5405 2.123 10.6821 1.6555 10.9145 1.2985C11.1468 0.935833 11.4358 0.669499 11.7815 0.4995C12.1328 0.3295 12.5011 0.2445 12.8865 0.2445C13.1075 0.2445 13.337 0.264333 13.575 0.304C13.8186 0.337999 14.0538 0.388999 14.2805 0.457L13.8725 1.749C13.7365 1.69233 13.5948 1.647 13.4475 1.613C13.3058 1.57333 13.1641 1.5535 13.0225 1.5535C12.8695 1.5535 12.7193 1.5875 12.572 1.6555C12.4246 1.7235 12.2971 1.8425 12.1895 2.0125C12.0875 2.17683 12.0195 2.412 11.9855 2.718L11.875 3.806H13.3285L13.218 4.9365H11.7645L11.11 12H9.62247L10.2685 4.9365H9.12097ZM21.5235 12.2125C20.7359 12.2125 20.0445 11.9858 19.4495 11.5325C18.8545 11.0735 18.4069 10.4303 18.1065 9.603C17.8062 8.77 17.7099 7.7925 17.8175 6.6705C17.9082 5.7525 18.1037 4.93933 18.404 4.231C18.71 3.52267 19.0954 2.92483 19.56 2.4375C20.0304 1.95017 20.5545 1.58183 21.1325 1.3325C21.7162 1.0775 22.3282 0.949999 22.9685 0.949999C23.8015 0.949999 24.4985 1.14833 25.0595 1.545C25.6262 1.936 26.054 2.5565 26.343 3.4065L24.8045 3.8655C24.5552 3.39517 24.2577 3.04383 23.912 2.8115C23.572 2.5735 23.1839 2.4545 22.7475 2.4545C22.2149 2.4545 21.7105 2.6245 21.2345 2.9645C20.7585 3.29883 20.3562 3.7805 20.0275 4.4095C19.7045 5.0385 19.5005 5.79217 19.4155 6.6705C19.3419 7.46383 19.39 8.16083 19.56 8.7615C19.73 9.36217 20.002 9.8325 20.376 10.1725C20.7557 10.5125 21.2232 10.6825 21.7785 10.6825C22.2205 10.6825 22.6314 10.5777 23.011 10.368C23.3964 10.1583 23.7137 9.84383 23.963 9.4245C24.218 8.9995 24.3654 8.47533 24.405 7.852C24.4164 7.76133 24.4192 7.67633 24.4135 7.597C24.4079 7.512 24.3909 7.393 24.3625 7.24L24.8045 7.699L22.1015 7.6055L22.2035 6.526H25.969L25.4675 12H24.252C24.2464 11.6543 24.2435 11.3058 24.2435 10.9545C24.2492 10.6032 24.2464 10.2575 24.235 9.9175L24.354 9.892C24.099 10.623 23.7364 11.1925 23.266 11.6005C22.8014 12.0085 22.2205 12.2125 21.5235 12.2125ZM30.5973 12.2125C29.957 12.2125 29.396 12.0368 28.9143 11.6855C28.4326 11.3342 28.07 10.8383 27.8263 10.198C27.5883 9.552 27.5118 8.78983 27.5968 7.9115C27.6818 7.01617 27.9028 6.2455 28.2598 5.5995C28.6225 4.9535 29.0758 4.45767 29.6198 4.112C30.1638 3.76633 30.756 3.5935 31.3963 3.5935C31.9006 3.5935 32.3313 3.69267 32.6883 3.891C33.051 4.08933 33.3428 4.36133 33.5638 4.707C33.7848 5.047 33.9406 5.438 34.0313 5.88C34.1276 6.31633 34.156 6.77817 34.1163 7.2655C34.105 7.42417 34.0851 7.59133 34.0568 7.767C34.0341 7.937 34.003 8.11267 33.9633 8.294H28.6593L29.0758 7.9965C29.0078 8.53483 29.0163 9.02217 29.1013 9.4585C29.192 9.89483 29.3705 10.2405 29.6368 10.4955C29.9031 10.7448 30.2686 10.8695 30.7333 10.8695C31.13 10.8695 31.4756 10.7618 31.7703 10.5465C32.065 10.3255 32.2633 10.0025 32.3653 9.5775H33.8953C33.765 10.1158 33.5411 10.5833 33.2238 10.98C32.9121 11.371 32.5296 11.6742 32.0763 11.8895C31.6286 12.1048 31.1356 12.2125 30.5973 12.2125ZM29.1183 7.4865L28.7868 7.2485H33.1048L32.6883 7.4525C32.7506 7.02183 32.7535 6.61383 32.6968 6.2285C32.6458 5.84317 32.5098 5.52867 32.2888 5.285C32.0735 5.04133 31.742 4.9195 31.2943 4.9195C30.8806 4.9195 30.5208 5.03567 30.2148 5.268C29.9088 5.49467 29.6623 5.8035 29.4753 6.1945C29.294 6.57983 29.175 7.0105 29.1183 7.4865ZM38.3106 12.2125C37.6816 12.2125 37.1348 12.1048 36.6701 11.8895C36.2111 11.6685 35.8598 11.3597 35.6161 10.963C35.3781 10.5607 35.2846 10.0875 35.3356 9.5435H36.7466C36.7126 9.97983 36.8401 10.317 37.1291 10.555C37.4238 10.7873 37.8176 10.9035 38.3106 10.9035C38.8093 10.9035 39.2116 10.7958 39.5176 10.5805C39.8293 10.3595 40.005 10.0847 40.0446 9.756C40.0786 9.467 39.9965 9.246 39.7981 9.093C39.5998 8.93433 39.3363 8.79833 39.0076 8.685L37.5456 8.0985C36.979 7.88317 36.5483 7.5885 36.2536 7.2145C35.9646 6.8405 35.8485 6.38717 35.9051 5.8545C35.9561 5.3955 36.1176 4.996 36.3896 4.656C36.6673 4.316 37.0356 4.05533 37.4946 3.874C37.9593 3.687 38.4863 3.5935 39.0756 3.5935C40.0163 3.5935 40.7161 3.81167 41.1751 4.248C41.6341 4.68433 41.8438 5.234 41.8041 5.897H40.3676C40.362 5.574 40.2401 5.3275 40.0021 5.1575C39.7641 4.9875 39.4383 4.9025 39.0246 4.9025C38.6903 4.9025 38.4126 4.9535 38.1916 5.0555C37.9763 5.15183 37.8091 5.2765 37.6901 5.4295C37.5711 5.5825 37.4975 5.74683 37.4691 5.9225C37.4408 6.18883 37.5201 6.40983 37.7071 6.5855C37.8998 6.7555 38.152 6.8915 38.4636 6.9935L40.0106 7.631C40.5546 7.82933 40.9825 8.10133 41.2941 8.447C41.6115 8.787 41.7446 9.22333 41.6936 9.756C41.654 10.1753 41.4925 10.572 41.2091 10.946C40.9315 11.32 40.549 11.626 40.0616 11.864C39.5743 12.0963 38.9906 12.2125 38.3106 12.2125ZM45.9629 12.2125C45.5492 12.2125 45.1809 12.1275 44.8579 11.9575C44.5349 11.7818 44.2941 11.5155 44.1354 11.1585C43.9767 10.8015 43.9201 10.3482 43.9654 9.7985L44.4414 4.605L44.7899 4.9025H43.2939L43.4214 3.806H44.9004L44.4754 4.1885L44.7304 1.5875H46.2264L45.9714 4.1885L45.6314 3.806H48.1814L48.0624 4.9025H45.5124L45.9289 4.605L45.4444 9.7645C45.4104 10.1442 45.4671 10.4275 45.6144 10.6145C45.7674 10.8015 46.0054 10.895 46.3284 10.895C46.4984 10.895 46.6797 10.8723 46.8724 10.827C47.0707 10.776 47.2917 10.7023 47.5354 10.606L47.6374 11.779C47.3541 11.9093 47.0764 12.0142 46.8044 12.0935C46.5381 12.1728 46.2576 12.2125 45.9629 12.2125ZM51.916 12.153C51.3776 12.153 50.9073 12.0453 50.505 11.83C50.1083 11.609 49.8108 11.2662 49.6125 10.8015C49.4141 10.3368 49.349 9.739 49.417 9.008L49.9185 3.789H51.4145L50.93 8.855C50.8733 9.467 50.964 9.92883 51.202 10.2405C51.44 10.5465 51.8055 10.6995 52.2985 10.6995C52.7065 10.6995 53.0776 10.5805 53.412 10.3425C53.752 10.0988 54.0325 9.756 54.2535 9.314C54.4801 8.872 54.6218 8.34783 54.6785 7.7415L55.0525 3.789H56.5485L55.7835 12H54.279L54.4235 10.453C54.1345 11.0083 53.7746 11.4305 53.344 11.7195C52.9133 12.0085 52.4373 12.153 51.916 12.153ZM58.5661 12L59.3396 3.789H60.8356L60.6826 5.3785C60.949 4.78917 61.2635 4.35567 61.6261 4.078C61.9945 3.79467 62.3996 3.653 62.8416 3.653C62.955 3.653 63.074 3.66433 63.1986 3.687C63.3233 3.704 63.4451 3.738 63.5641 3.789L63.3686 5.438C63.2213 5.39833 63.0711 5.36717 62.9181 5.3445C62.7651 5.31617 62.615 5.302 62.4676 5.302C62.0596 5.302 61.7111 5.42383 61.4221 5.6675C61.1331 5.91117 60.9036 6.25967 60.7336 6.713C60.5693 7.16633 60.4588 7.71317 60.4021 8.3535L60.0621 12H58.5661ZM67.1154 12.2125C66.4751 12.2125 65.9141 12.0368 65.4324 11.6855C64.9507 11.3342 64.5881 10.8383 64.3444 10.198C64.1064 9.552 64.0299 8.78983 64.1149 7.9115C64.1999 7.01617 64.4209 6.2455 64.7779 5.5995C65.1406 4.9535 65.5939 4.45767 66.1379 4.112C66.6819 3.76633 67.2741 3.5935 67.9144 3.5935C68.4187 3.5935 68.8494 3.69267 69.2064 3.891C69.5691 4.08933 69.8609 4.36133 70.0819 4.707C70.3029 5.047 70.4587 5.438 70.5494 5.88C70.6457 6.31633 70.6741 6.77817 70.6344 7.2655C70.6231 7.42417 70.6032 7.59133 70.5749 7.767C70.5522 7.937 70.5211 8.11267 70.4814 8.294H65.1774L65.5939 7.9965C65.5259 8.53483 65.5344 9.02217 65.6194 9.4585C65.7101 9.89483 65.8886 10.2405 66.1549 10.4955C66.4212 10.7448 66.7867 10.8695 67.2514 10.8695C67.6481 10.8695 67.9937 10.7618 68.2884 10.5465C68.5831 10.3255 68.7814 10.0025 68.8834 9.5775H70.4134C70.2831 10.1158 70.0592 10.5833 69.7419 10.98C69.4302 11.371 69.0477 11.6742 68.5944 11.8895C68.1467 12.1048 67.6537 12.2125 67.1154 12.2125ZM65.6364 7.4865L65.3049 7.2485H69.6229L69.2064 7.4525C69.2687 7.02183 69.2716 6.61383 69.2149 6.2285C69.1639 5.84317 69.0279 5.52867 68.8069 5.285C68.5916 5.04133 68.2601 4.9195 67.8124 4.9195C67.3987 4.9195 67.0389 5.03567 66.7329 5.268C66.4269 5.49467 66.1804 5.8035 65.9934 6.1945C65.8121 6.57983 65.6931 7.0105 65.6364 7.4865ZM74.8288 12.2125C74.1998 12.2125 73.6529 12.1048 73.1883 11.8895C72.7293 11.6685 72.3779 11.3597 72.1343 10.963C71.8963 10.5607 71.8028 10.0875 71.8538 9.5435H73.2648C73.2308 9.97983 73.3583 10.317 73.6473 10.555C73.9419 10.7873 74.3358 10.9035 74.8288 10.9035C75.3274 10.9035 75.7298 10.7958 76.0358 10.5805C76.3474 10.3595 76.5231 10.0847 76.5628 9.756C76.5968 9.467 76.5146 9.246 76.3163 9.093C76.1179 8.93433 75.8544 8.79833 75.5258 8.685L74.0638 8.0985C73.4971 7.88317 73.0664 7.5885 72.7718 7.2145C72.4828 6.8405 72.3666 6.38717 72.4233 5.8545C72.4743 5.3955 72.6358 4.996 72.9078 4.656C73.1854 4.316 73.5538 4.05533 74.0128 3.874C74.4774 3.687 75.0044 3.5935 75.5938 3.5935C76.5344 3.5935 77.2343 3.81167 77.6933 4.248C78.1523 4.68433 78.3619 5.234 78.3223 5.897H76.8858C76.8801 5.574 76.7583 5.3275 76.5203 5.1575C76.2823 4.9875 75.9564 4.9025 75.5428 4.9025C75.2084 4.9025 74.9308 4.9535 74.7098 5.0555C74.4944 5.15183 74.3273 5.2765 74.2083 5.4295C74.0893 5.5825 74.0156 5.74683 73.9873 5.9225C73.9589 6.18883 74.0383 6.40983 74.2253 6.5855C74.4179 6.7555 74.6701 6.8915 74.9818 6.9935L76.5288 7.631C77.0728 7.82933 77.5006 8.10133 77.8123 8.447C78.1296 8.787 78.2628 9.22333 78.2118 9.756C78.1721 10.1753 78.0106 10.572 77.7273 10.946C77.4496 11.32 77.0671 11.626 76.5798 11.864C76.0924 12.0963 75.5088 12.2125 74.8288 12.2125ZM85.502 2.0975C85.2073 2.0975 84.9835 2.00683 84.8305 1.8255C84.6831 1.64417 84.618 1.4005 84.635 1.0945C84.6633 0.805499 84.7681 0.567499 84.9495 0.380499C85.1365 0.187833 85.3801 0.0914998 85.6805 0.0914998C85.9808 0.0914998 86.2046 0.185 86.352 0.372C86.505 0.553333 86.5701 0.794166 86.5475 1.0945C86.5191 1.40617 86.4086 1.65267 86.216 1.834C86.029 2.00967 85.791 2.0975 85.502 2.0975ZM83.819 12L84.5925 3.789H86.0885L85.315 12H83.819ZM88.2942 12L89.0677 3.806H90.3597L90.3767 5.3105C90.6771 4.74383 91.0454 4.316 91.4817 4.027C91.9181 3.738 92.4054 3.5935 92.9437 3.5935C93.5387 3.5935 94.0289 3.74083 94.4142 4.0355C94.7996 4.3245 95.0744 4.741 95.2387 5.285C95.4031 5.82333 95.4484 6.46083 95.3747 7.1975L94.9327 12H93.4367L93.8787 7.1975C93.9581 6.49483 93.8589 5.96783 93.5812 5.6165C93.3092 5.2595 92.9352 5.081 92.4592 5.081C91.8359 5.081 91.3174 5.353 90.9037 5.897C90.4901 6.441 90.2351 7.22017 90.1387 8.2345L89.7902 12H88.2942ZM104.495 12.2125C103.633 12.2125 102.908 11.9802 102.319 11.5155C101.735 11.0508 101.313 10.3935 101.052 9.5435C100.797 8.68783 100.726 7.682 100.84 6.526C100.953 5.31333 101.231 4.29333 101.673 3.466C102.115 2.633 102.673 2.004 103.347 1.579C104.021 1.154 104.761 0.941499 105.566 0.941499C106.654 0.941499 107.489 1.24183 108.073 1.8425C108.657 2.4375 109.011 3.211 109.136 4.163L107.487 4.503C107.373 3.87967 107.135 3.381 106.773 3.007C106.416 2.62733 105.965 2.4375 105.421 2.4375C104.951 2.4375 104.503 2.5905 104.078 2.8965C103.659 3.2025 103.302 3.65867 103.007 4.265C102.718 4.87133 102.531 5.625 102.446 6.526C102.367 7.359 102.395 8.09 102.531 8.719C102.673 9.34233 102.916 9.82967 103.262 10.181C103.613 10.5267 104.072 10.6995 104.639 10.6995C105.347 10.6995 105.923 10.4927 106.365 10.079C106.807 9.65967 107.062 9.11567 107.13 8.447H108.728C108.66 9.24033 108.439 9.9175 108.065 10.4785C107.691 11.0395 107.198 11.4702 106.586 11.7705C105.979 12.0652 105.282 12.2125 104.495 12.2125ZM110.411 12L111.184 3.789H112.68L112.527 5.3785C112.794 4.78917 113.108 4.35567 113.471 4.078C113.839 3.79467 114.244 3.653 114.686 3.653C114.8 3.653 114.919 3.66433 115.043 3.687C115.168 3.704 115.29 3.738 115.409 3.789L115.213 5.438C115.066 5.39833 114.916 5.36717 114.763 5.3445C114.61 5.31617 114.46 5.302 114.312 5.302C113.904 5.302 113.556 5.42383 113.267 5.6675C112.978 5.91117 112.748 6.25967 112.578 6.713C112.414 7.16633 112.304 7.71317 112.247 8.3535L111.907 12H110.411ZM118.527 12.2125C117.932 12.2125 117.439 12.0907 117.048 11.847C116.662 11.6033 116.382 11.2888 116.206 10.9035C116.036 10.5125 115.974 10.096 116.019 9.654C116.07 9.11567 116.235 8.67083 116.512 8.3195C116.796 7.9625 117.167 7.69617 117.626 7.5205C118.09 7.33917 118.612 7.2485 119.19 7.2485C119.547 7.2485 119.898 7.28533 120.244 7.359C120.589 7.427 120.918 7.5205 121.23 7.6395L121.323 6.7045C121.397 6.04717 121.32 5.56833 121.094 5.268C120.873 4.96767 120.499 4.8175 119.972 4.8175C119.666 4.8175 119.391 4.8685 119.147 4.9705C118.904 5.06683 118.705 5.21417 118.552 5.4125C118.399 5.61083 118.309 5.85733 118.28 6.152H116.631C116.694 5.52867 116.883 5.03 117.201 4.656C117.518 4.282 117.92 4.01283 118.408 3.8485C118.895 3.6785 119.416 3.5935 119.972 3.5935C120.975 3.5935 121.723 3.8485 122.216 4.3585C122.714 4.8685 122.913 5.6675 122.811 6.7555L122.318 12H121.026C121.02 11.7903 121.017 11.5835 121.017 11.3795C121.023 11.1698 121.023 10.9602 121.017 10.7505C120.734 11.2378 120.385 11.6033 119.972 11.847C119.558 12.0907 119.076 12.2125 118.527 12.2125ZM118.892 10.9375C119.278 10.9375 119.635 10.844 119.963 10.657C120.298 10.47 120.57 10.2093 120.779 9.875C120.989 9.535 121.105 9.14117 121.128 8.6935C120.85 8.60283 120.553 8.52917 120.235 8.4725C119.918 8.41583 119.62 8.3875 119.343 8.3875C118.884 8.3875 118.49 8.48383 118.161 8.6765C117.833 8.8635 117.646 9.18933 117.6 9.654C117.572 10.0167 117.668 10.3227 117.889 10.572C118.116 10.8157 118.45 10.9375 118.892 10.9375ZM124.743 4.9365L124.853 3.806H125.992L126.111 2.701C126.162 2.123 126.304 1.6555 126.536 1.2985C126.769 0.935833 127.058 0.669499 127.403 0.4995C127.755 0.3295 128.123 0.2445 128.508 0.2445C128.729 0.2445 128.959 0.264333 129.197 0.304C129.44 0.337999 129.676 0.388999 129.902 0.457L129.494 1.749C129.358 1.69233 129.217 1.647 129.069 1.613C128.928 1.57333 128.786 1.5535 128.644 1.5535C128.491 1.5535 128.341 1.5875 128.194 1.6555C128.046 1.7235 127.919 1.8425 127.811 2.0125C127.709 2.17683 127.641 2.412 127.607 2.718L127.497 3.806H128.95L128.84 4.9365H127.386L126.732 12H125.244L125.89 4.9365H124.743ZM132.45 12.2125C132.036 12.2125 131.668 12.1275 131.345 11.9575C131.022 11.7818 130.781 11.5155 130.622 11.1585C130.464 10.8015 130.407 10.3482 130.452 9.7985L130.928 4.605L131.277 4.9025H129.781L129.908 3.806H131.387L130.962 4.1885L131.217 1.5875H132.713L132.458 4.1885L132.118 3.806H134.668L134.549 4.9025H131.999L132.416 4.605L131.931 9.7645C131.897 10.1442 131.954 10.4275 132.101 10.6145C132.254 10.8015 132.492 10.895 132.815 10.895C132.985 10.895 133.167 10.8723 133.359 10.827C133.558 10.776 133.779 10.7023 134.022 10.606L134.124 11.779C133.841 11.9093 133.563 12.0142 133.291 12.0935C133.025 12.1728 132.745 12.2125 132.45 12.2125Z" fill="#1C1A2B"/>
</svg>
