<svg width="85" height="87" viewBox="0 0 85 87" fill="none" xmlns="http://www.w3.org/2000/svg">
<rect x="0.5" y="0.5" width="84" height="86" rx="13.5" fill="white" stroke="#DCDCDC"/>
<path d="M12.3725 19.7485C12.2015 19.7485 12.0665 19.702 11.9675 19.609C11.8715 19.513 11.8235 19.384 11.8235 19.222C11.8235 19.066 11.8715 18.943 11.9675 18.853C12.0665 18.76 12.2015 18.7135 12.3725 18.7135C12.5405 18.7135 12.6725 18.76 12.7685 18.853C12.8675 18.943 12.917 19.066 12.917 19.222C12.917 19.384 12.8675 19.513 12.7685 19.609C12.6725 19.702 12.5405 19.7485 12.3725 19.7485ZM11.945 25V20.6575H12.8V25H11.945ZM15.9639 25.117C15.7179 25.117 15.4959 25.0705 15.2979 24.9775C15.0999 24.8845 14.9424 24.745 14.8254 24.559C14.7114 24.37 14.6544 24.133 14.6544 23.848V19.492H15.5049V23.821C15.5049 24.229 15.6954 24.433 16.0764 24.433C16.1934 24.433 16.3074 24.421 16.4184 24.397C16.5294 24.37 16.6554 24.331 16.7964 24.28L16.9179 24.8875C16.7589 24.9535 16.6014 25.0075 16.4454 25.0495C16.2924 25.0945 16.1319 25.117 15.9639 25.117ZM13.9929 21.2515V20.671H16.7874V21.2515H13.9929ZM17.843 21.382L17.24 21.049C17.423 20.959 17.5805 20.8555 17.7125 20.7385C17.8475 20.6185 17.936 20.482 17.978 20.329C17.825 20.308 17.6975 20.2525 17.5955 20.1625C17.4935 20.0725 17.4425 19.9555 17.4425 19.8115C17.4425 19.6555 17.501 19.5265 17.618 19.4245C17.738 19.3195 17.885 19.267 18.059 19.267C18.206 19.267 18.332 19.3045 18.437 19.3795C18.542 19.4545 18.6215 19.555 18.6755 19.681C18.7325 19.804 18.761 19.939 18.761 20.086C18.761 20.338 18.6785 20.5795 18.5135 20.8105C18.3485 21.0385 18.125 21.229 17.843 21.382ZM21.5493 25.117C21.1293 25.117 20.7753 25.0585 20.4873 24.9415C20.1993 24.8215 19.9788 24.6565 19.8258 24.4465C19.6758 24.2335 19.5978 23.9845 19.5918 23.6995H20.3973C20.4093 23.9485 20.5083 24.133 20.6943 24.253C20.8833 24.373 21.1383 24.433 21.4593 24.433C21.6303 24.433 21.7848 24.406 21.9228 24.352C22.0638 24.298 22.1748 24.2245 22.2558 24.1315C22.3398 24.0385 22.3818 23.9335 22.3818 23.8165C22.3818 23.6695 22.3278 23.554 22.2198 23.47C22.1118 23.383 21.9378 23.3065 21.6978 23.2405L20.8113 22.939C20.4573 22.819 20.1858 22.66 19.9968 22.462C19.8078 22.261 19.7133 22.021 19.7133 21.742C19.7133 21.385 19.8723 21.0985 20.1903 20.8825C20.5083 20.6635 20.9298 20.554 21.4548 20.554C21.9978 20.554 22.4163 20.6695 22.7103 20.9005C23.0073 21.1285 23.1618 21.415 23.1738 21.76H22.3503C22.3293 21.589 22.2438 21.4585 22.0938 21.3685C21.9468 21.2755 21.7338 21.229 21.4548 21.229C21.1938 21.229 20.9883 21.286 20.8383 21.4C20.6913 21.514 20.6178 21.643 20.6178 21.787C20.6178 22.045 20.8398 22.237 21.2838 22.363L22.2153 22.6915C22.5693 22.8055 22.8423 22.9525 23.0343 23.1325C23.2263 23.3125 23.3223 23.5405 23.3223 23.8165C23.3223 24.0385 23.2488 24.2485 23.1018 24.4465C22.9548 24.6445 22.7478 24.8065 22.4808 24.9325C22.2168 25.0555 21.9063 25.117 21.5493 25.117ZM29.4153 25L29.3073 24.0055V22.201C29.3073 21.847 29.2338 21.5905 29.0868 21.4315C28.9398 21.2695 28.7073 21.1885 28.3893 21.1885C28.2093 21.1885 28.0488 21.2155 27.9078 21.2695C27.7698 21.3205 27.6603 21.3985 27.5793 21.5035C27.5013 21.6085 27.4623 21.7405 27.4623 21.8995H26.5173C26.5173 21.5815 26.5953 21.3235 26.7513 21.1255C26.9073 20.9275 27.1248 20.7835 27.4038 20.6935C27.6858 20.6005 28.0143 20.554 28.3893 20.554C28.7403 20.554 29.0493 20.6125 29.3163 20.7295C29.5833 20.8435 29.7903 21.0235 29.9373 21.2695C30.0873 21.5155 30.1623 21.8335 30.1623 22.2235V25H29.4153ZM27.9663 25.117C27.6033 25.117 27.3018 25.054 27.0618 24.928C26.8218 24.799 26.6418 24.631 26.5218 24.424C26.4048 24.217 26.3463 23.9965 26.3463 23.7625C26.3463 23.4775 26.4183 23.2435 26.5623 23.0605C26.7093 22.8745 26.9118 22.7365 27.1698 22.6465C27.4278 22.5565 27.7248 22.5115 28.0608 22.5115C28.2918 22.5115 28.5168 22.5325 28.7358 22.5745C28.9548 22.6165 29.1708 22.672 29.3838 22.741V23.2585C29.2098 23.1955 29.0163 23.146 28.8033 23.11C28.5933 23.071 28.3968 23.0515 28.2138 23.0515C27.9408 23.0515 27.7128 23.1055 27.5298 23.2135C27.3468 23.3215 27.2553 23.5045 27.2553 23.7625C27.2553 23.9515 27.3273 24.115 27.4713 24.253C27.6153 24.388 27.8433 24.4555 28.1553 24.4555C28.3833 24.4555 28.5843 24.4045 28.7583 24.3025C28.9323 24.1975 29.0673 24.067 29.1633 23.911C29.2593 23.755 29.3073 23.599 29.3073 23.443H29.5143C29.5143 23.743 29.4528 24.0205 29.3298 24.2755C29.2098 24.5275 29.0343 24.7315 28.8033 24.8875C28.5723 25.0405 28.2933 25.117 27.9663 25.117ZM33.7495 25V18.826H34.8115V25H33.7495ZM39.1737 25L39.0387 23.938V22.183C39.0387 21.877 38.9757 21.6505 38.8497 21.5035C38.7267 21.3565 38.5167 21.283 38.2197 21.283C38.0487 21.283 37.9002 21.3085 37.7742 21.3595C37.6482 21.4105 37.5507 21.484 37.4817 21.58C37.4157 21.673 37.3827 21.787 37.3827 21.922H36.2217C36.2217 21.592 36.3012 21.3235 36.4602 21.1165C36.6192 20.9065 36.8472 20.7535 37.1442 20.6575C37.4442 20.5585 37.8027 20.509 38.2197 20.509C38.5977 20.509 38.9277 20.5705 39.2097 20.6935C39.4917 20.8135 39.7107 20.9995 39.8667 21.2515C40.0227 21.5035 40.1007 21.826 40.1007 22.219V25H39.1737ZM37.7427 25.126C37.3677 25.126 37.0542 25.0615 36.8022 24.9325C36.5532 24.8005 36.3657 24.628 36.2397 24.415C36.1137 24.202 36.0507 23.971 36.0507 23.722C36.0507 23.446 36.1227 23.215 36.2667 23.029C36.4137 22.84 36.6207 22.699 36.8877 22.606C37.1547 22.51 37.4697 22.462 37.8327 22.462C38.0697 22.462 38.2932 22.48 38.5032 22.516C38.7162 22.552 38.9277 22.6 39.1377 22.66V23.281C38.9727 23.227 38.7927 23.185 38.5977 23.155C38.4027 23.125 38.2197 23.11 38.0487 23.11C37.7967 23.11 37.5897 23.1565 37.4277 23.2495C37.2657 23.3425 37.1847 23.5 37.1847 23.722C37.1847 23.884 37.2507 24.0235 37.3827 24.1405C37.5147 24.2575 37.7247 24.316 38.0127 24.316C38.2317 24.316 38.4177 24.268 38.5707 24.172C38.7237 24.076 38.8392 23.956 38.9172 23.812C38.9982 23.668 39.0387 23.524 39.0387 23.38H39.2907C39.2907 23.695 39.2322 23.986 39.1152 24.253C38.9982 24.517 38.8242 24.7285 38.5932 24.8875C38.3652 25.0465 38.0817 25.126 37.7427 25.126ZM44.5553 25V22.444C44.5553 22.12 44.4773 21.8755 44.3213 21.7105C44.1653 21.5455 43.9613 21.463 43.7093 21.463C43.4963 21.463 43.3073 21.5215 43.1423 21.6385C42.9803 21.7555 42.8528 21.9325 42.7598 22.1695C42.6668 22.4035 42.6203 22.696 42.6203 23.047H42.2693C42.2693 22.48 42.3398 22.009 42.4808 21.634C42.6218 21.256 42.8213 20.974 43.0793 20.788C43.3373 20.602 43.6403 20.509 43.9883 20.509C44.3483 20.509 44.6483 20.59 44.8883 20.752C45.1313 20.911 45.3128 21.136 45.4328 21.427C45.5558 21.718 45.6173 22.057 45.6173 22.444V25H44.5553ZM41.5583 25V20.635H42.4853L42.6203 21.499V25H41.5583ZM48.7497 27.259C48.2487 27.259 47.8197 27.19 47.4627 27.052C47.1087 26.914 46.8372 26.7325 46.6482 26.5075C46.4592 26.2855 46.3647 26.044 46.3647 25.783C46.3647 25.474 46.4772 25.234 46.7022 25.063C46.9272 24.895 47.2107 24.811 47.5527 24.811L48.3267 25.099C48.0327 25.099 47.8062 25.1545 47.6472 25.2655C47.4882 25.3765 47.4087 25.531 47.4087 25.729C47.4087 25.936 47.5272 26.101 47.7642 26.224C48.0042 26.35 48.3327 26.413 48.7497 26.413C49.0527 26.413 49.3152 26.368 49.5372 26.278C49.7592 26.188 49.9302 26.071 50.0502 25.927C50.1732 25.783 50.2347 25.63 50.2347 25.468C50.2347 25.36 50.1987 25.2715 50.1267 25.2025C50.0547 25.1335 49.9437 25.099 49.7937 25.099H48.3267C48.0327 25.099 47.7642 25.0525 47.5212 24.9595C47.2812 24.8635 47.0892 24.736 46.9452 24.577C46.8042 24.415 46.7337 24.235 46.7337 24.037C46.7337 23.854 46.7847 23.6965 46.8867 23.5645C46.9887 23.4295 47.1267 23.326 47.3007 23.254C47.4777 23.182 47.6757 23.146 47.8947 23.146L48.1647 23.497C48.0777 23.497 47.9937 23.515 47.9127 23.551C47.8347 23.584 47.7702 23.6335 47.7192 23.6995C47.6682 23.7655 47.6427 23.848 47.6427 23.947C47.6427 24.067 47.6937 24.1645 47.7957 24.2395C47.8977 24.3145 48.0747 24.352 48.3267 24.352H49.7937C50.2587 24.352 50.6232 24.4375 50.8872 24.6085C51.1542 24.7795 51.2877 25.042 51.2877 25.396C51.2877 25.711 51.1842 26.0095 50.9772 26.2915C50.7702 26.5765 50.4762 26.809 50.0952 26.989C49.7172 27.169 49.2687 27.259 48.7497 27.259ZM48.8037 23.65C48.4587 23.65 48.1422 23.5855 47.8542 23.4565C47.5692 23.3245 47.3412 23.1415 47.1702 22.9075C46.9992 22.6735 46.9137 22.399 46.9137 22.084C46.9137 21.763 46.9992 21.484 47.1702 21.247C47.3412 21.01 47.5692 20.8285 47.8542 20.7025C48.1422 20.5735 48.4587 20.509 48.8037 20.509C49.1397 20.509 49.4502 20.5735 49.7352 20.7025C50.0202 20.8285 50.2497 21.01 50.4237 21.247C50.5977 21.484 50.6847 21.763 50.6847 22.084C50.6847 22.399 50.5977 22.6735 50.4237 22.9075C50.2497 23.1415 50.0202 23.3245 49.7352 23.4565C49.4502 23.5855 49.1397 23.65 48.8037 23.65ZM48.8127 22.912C49.0887 22.912 49.2957 22.8325 49.4337 22.6735C49.5717 22.5145 49.6407 22.318 49.6407 22.084C49.6407 21.832 49.5702 21.6295 49.4292 21.4765C49.2912 21.3235 49.0827 21.247 48.8037 21.247C48.5337 21.247 48.3267 21.3235 48.1827 21.4765C48.0387 21.6295 47.9667 21.832 47.9667 22.084C47.9667 22.318 48.0387 22.5145 48.1827 22.6735C48.3297 22.8325 48.5397 22.912 48.8127 22.912ZM50.3517 21.211L49.8657 20.932C49.8657 20.671 49.9257 20.443 50.0457 20.248C50.1687 20.05 50.3307 19.897 50.5317 19.789C50.7357 19.681 50.9607 19.627 51.2067 19.627L51.1527 20.644C50.8917 20.644 50.6922 20.6905 50.5542 20.7835C50.4192 20.8735 50.3517 21.016 50.3517 21.211ZM55.113 20.617H56.175V25H55.113V20.617ZM52.116 20.617H53.178V23.299C53.178 23.584 53.2485 23.7985 53.3895 23.9425C53.5305 24.0835 53.724 24.154 53.97 24.154C54.18 24.154 54.3705 24.1 54.5415 23.992C54.7155 23.881 54.8535 23.719 54.9555 23.506C55.0605 23.29 55.113 23.023 55.113 22.705H55.401C55.401 23.239 55.332 23.6815 55.194 24.0325C55.056 24.3835 54.8655 24.646 54.6225 24.82C54.3795 24.994 54.099 25.081 53.781 25.081C53.469 25.081 53.187 25.0255 52.935 24.9145C52.683 24.8035 52.4835 24.625 52.3365 24.379C52.1895 24.133 52.116 23.809 52.116 23.407V20.617ZM60.5306 25L60.3956 23.938V22.183C60.3956 21.877 60.3326 21.6505 60.2066 21.5035C60.0836 21.3565 59.8736 21.283 59.5766 21.283C59.4056 21.283 59.2571 21.3085 59.1311 21.3595C59.0051 21.4105 58.9076 21.484 58.8386 21.58C58.7726 21.673 58.7396 21.787 58.7396 21.922H57.5786C57.5786 21.592 57.6581 21.3235 57.8171 21.1165C57.9761 20.9065 58.2041 20.7535 58.5011 20.6575C58.8011 20.5585 59.1596 20.509 59.5766 20.509C59.9546 20.509 60.2846 20.5705 60.5666 20.6935C60.8486 20.8135 61.0676 20.9995 61.2236 21.2515C61.3796 21.5035 61.4576 21.826 61.4576 22.219V25H60.5306ZM59.0996 25.126C58.7246 25.126 58.4111 25.0615 58.1591 24.9325C57.9101 24.8005 57.7226 24.628 57.5966 24.415C57.4706 24.202 57.4076 23.971 57.4076 23.722C57.4076 23.446 57.4796 23.215 57.6236 23.029C57.7706 22.84 57.9776 22.699 58.2446 22.606C58.5116 22.51 58.8266 22.462 59.1896 22.462C59.4266 22.462 59.6501 22.48 59.8601 22.516C60.0731 22.552 60.2846 22.6 60.4946 22.66V23.281C60.3296 23.227 60.1496 23.185 59.9546 23.155C59.7596 23.125 59.5766 23.11 59.4056 23.11C59.1536 23.11 58.9466 23.1565 58.7846 23.2495C58.6226 23.3425 58.5416 23.5 58.5416 23.722C58.5416 23.884 58.6076 24.0235 58.7396 24.1405C58.8716 24.2575 59.0816 24.316 59.3696 24.316C59.5886 24.316 59.7746 24.268 59.9276 24.172C60.0806 24.076 60.1961 23.956 60.2741 23.812C60.3551 23.668 60.3956 23.524 60.3956 23.38H60.6476C60.6476 23.695 60.5891 23.986 60.4721 24.253C60.3551 24.517 60.1811 24.7285 59.9501 24.8875C59.7221 25.0465 59.4386 25.126 59.0996 25.126ZM64.5982 27.259C64.0972 27.259 63.6682 27.19 63.3112 27.052C62.9572 26.914 62.6857 26.7325 62.4967 26.5075C62.3077 26.2855 62.2132 26.044 62.2132 25.783C62.2132 25.474 62.3257 25.234 62.5507 25.063C62.7757 24.895 63.0592 24.811 63.4012 24.811L64.1752 25.099C63.8812 25.099 63.6547 25.1545 63.4957 25.2655C63.3367 25.3765 63.2572 25.531 63.2572 25.729C63.2572 25.936 63.3757 26.101 63.6127 26.224C63.8527 26.35 64.1812 26.413 64.5982 26.413C64.9012 26.413 65.1637 26.368 65.3857 26.278C65.6077 26.188 65.7787 26.071 65.8987 25.927C66.0217 25.783 66.0832 25.63 66.0832 25.468C66.0832 25.36 66.0472 25.2715 65.9752 25.2025C65.9032 25.1335 65.7922 25.099 65.6422 25.099H64.1752C63.8812 25.099 63.6127 25.0525 63.3697 24.9595C63.1297 24.8635 62.9377 24.736 62.7937 24.577C62.6527 24.415 62.5822 24.235 62.5822 24.037C62.5822 23.854 62.6332 23.6965 62.7352 23.5645C62.8372 23.4295 62.9752 23.326 63.1492 23.254C63.3262 23.182 63.5242 23.146 63.7432 23.146L64.0132 23.497C63.9262 23.497 63.8422 23.515 63.7612 23.551C63.6832 23.584 63.6187 23.6335 63.5677 23.6995C63.5167 23.7655 63.4912 23.848 63.4912 23.947C63.4912 24.067 63.5422 24.1645 63.6442 24.2395C63.7462 24.3145 63.9232 24.352 64.1752 24.352H65.6422C66.1072 24.352 66.4717 24.4375 66.7357 24.6085C67.0027 24.7795 67.1362 25.042 67.1362 25.396C67.1362 25.711 67.0327 26.0095 66.8257 26.2915C66.6187 26.5765 66.3247 26.809 65.9437 26.989C65.5657 27.169 65.1172 27.259 64.5982 27.259ZM64.6522 23.65C64.3072 23.65 63.9907 23.5855 63.7027 23.4565C63.4177 23.3245 63.1897 23.1415 63.0187 22.9075C62.8477 22.6735 62.7622 22.399 62.7622 22.084C62.7622 21.763 62.8477 21.484 63.0187 21.247C63.1897 21.01 63.4177 20.8285 63.7027 20.7025C63.9907 20.5735 64.3072 20.509 64.6522 20.509C64.9882 20.509 65.2987 20.5735 65.5837 20.7025C65.8687 20.8285 66.0982 21.01 66.2722 21.247C66.4462 21.484 66.5332 21.763 66.5332 22.084C66.5332 22.399 66.4462 22.6735 66.2722 22.9075C66.0982 23.1415 65.8687 23.3245 65.5837 23.4565C65.2987 23.5855 64.9882 23.65 64.6522 23.65ZM64.6612 22.912C64.9372 22.912 65.1442 22.8325 65.2822 22.6735C65.4202 22.5145 65.4892 22.318 65.4892 22.084C65.4892 21.832 65.4187 21.6295 65.2777 21.4765C65.1397 21.3235 64.9312 21.247 64.6522 21.247C64.3822 21.247 64.1752 21.3235 64.0312 21.4765C63.8872 21.6295 63.8152 21.832 63.8152 22.084C63.8152 22.318 63.8872 22.5145 64.0312 22.6735C64.1782 22.8325 64.3882 22.912 64.6612 22.912ZM66.2002 21.211L65.7142 20.932C65.7142 20.671 65.7742 20.443 65.8942 20.248C66.0172 20.05 66.1792 19.897 66.3802 19.789C66.5842 19.681 66.8092 19.627 67.0552 19.627L67.0012 20.644C66.7402 20.644 66.5407 20.6905 66.4027 20.7835C66.2677 20.8735 66.2002 21.016 66.2002 21.211ZM69.6835 25.126C69.3115 25.126 68.971 25.03 68.662 24.838C68.353 24.646 68.1055 24.3775 67.9195 24.0325C67.7335 23.6845 67.6405 23.278 67.6405 22.813C67.6405 22.333 67.732 21.9205 67.915 21.5755C68.101 21.2305 68.3485 20.9665 68.6575 20.7835C68.9665 20.6005 69.3085 20.509 69.6835 20.509C70.0315 20.509 70.3315 20.5795 70.5835 20.7205C70.8385 20.8585 71.0425 21.0475 71.1955 21.2875C71.3515 21.5245 71.4565 21.793 71.5105 22.093C71.5645 22.393 71.5675 22.702 71.5195 23.02H68.4865V22.444H70.768L70.561 22.579C70.57 22.438 70.5625 22.2955 70.5385 22.1515C70.5175 22.0075 70.4755 21.8755 70.4125 21.7555C70.3495 21.6355 70.2595 21.5395 70.1425 21.4675C70.0285 21.3925 69.8815 21.355 69.7015 21.355C69.4855 21.355 69.3025 21.409 69.1525 21.517C69.0025 21.625 68.8885 21.772 68.8105 21.958C68.7325 22.144 68.6935 22.354 68.6935 22.588V23.011C68.6935 23.257 68.7295 23.4745 68.8015 23.6635C68.8765 23.8525 68.986 24.001 69.13 24.109C69.277 24.217 69.4615 24.271 69.6835 24.271C69.8905 24.271 70.0645 24.223 70.2055 24.127C70.3465 24.031 70.4365 23.887 70.4755 23.695H71.5465C71.5015 23.977 71.395 24.226 71.227 24.442C71.062 24.655 70.8475 24.823 70.5835 24.946C70.3195 25.066 70.0195 25.126 69.6835 25.126ZM13.556 38.126C13.157 38.126 12.7955 38.0405 12.4715 37.8695C12.1505 37.6985 11.8955 37.4435 11.7065 37.1045C11.5175 36.7625 11.423 36.335 11.423 35.822C11.423 35.3 11.5175 34.868 11.7065 34.526C11.8955 34.184 12.1505 33.929 12.4715 33.761C12.7955 33.593 13.157 33.509 13.556 33.509C13.949 33.509 14.3045 33.593 14.6225 33.761C14.9435 33.929 15.1985 34.184 15.3875 34.526C15.5765 34.868 15.671 35.3 15.671 35.822C15.671 36.335 15.5765 36.7625 15.3875 37.1045C15.1985 37.4435 14.9435 37.6985 14.6225 37.8695C14.3045 38.0405 13.949 38.126 13.556 38.126ZM13.52 37.199C13.73 37.199 13.916 37.148 14.078 37.046C14.243 36.941 14.372 36.7865 14.465 36.5825C14.561 36.3785 14.609 36.125 14.609 35.822C14.609 35.36 14.5175 35.012 14.3345 34.778C14.1545 34.544 13.907 34.427 13.592 34.427C13.379 34.427 13.19 34.4795 13.025 34.5845C12.86 34.6865 12.7295 34.841 12.6335 35.048C12.5405 35.255 12.494 35.513 12.494 35.822C12.494 36.278 12.5855 36.6215 12.7685 36.8525C12.9545 37.0835 13.205 37.199 13.52 37.199ZM17.0877 38V33.104C17.0877 32.789 17.1492 32.5325 17.2722 32.3345C17.3952 32.1365 17.5572 31.991 17.7582 31.898C17.9622 31.802 18.1827 31.754 18.4197 31.754C18.5667 31.754 18.7182 31.7645 18.8742 31.7855C19.0302 31.8065 19.1817 31.832 19.3287 31.862L19.1217 32.681C19.0467 32.654 18.9687 32.633 18.8877 32.618C18.8067 32.6 18.7287 32.591 18.6537 32.591C18.5697 32.591 18.4902 32.6075 18.4152 32.6405C18.3402 32.6705 18.2787 32.7245 18.2307 32.8025C18.1827 32.8805 18.1587 32.987 18.1587 33.122V38H17.0877ZM16.4397 34.337V33.635H18.9597V34.337H16.4397ZM23.8747 38.126C23.5087 38.126 23.1682 38.0315 22.8532 37.8425C22.5412 37.6505 22.2877 37.382 22.0927 37.037C21.9007 36.689 21.8047 36.281 21.8047 35.813C21.8047 35.318 21.9007 34.8995 22.0927 34.5575C22.2877 34.2125 22.5412 33.9515 22.8532 33.7745C23.1682 33.5975 23.5087 33.509 23.8747 33.509C24.1597 33.509 24.4102 33.5555 24.6262 33.6485C24.8452 33.7385 25.0312 33.8615 25.1842 34.0175C25.3372 34.1705 25.4572 34.3415 25.5442 34.5305C25.6312 34.7195 25.6867 34.91 25.7107 35.102L24.6397 35.129C24.5917 34.937 24.5017 34.778 24.3697 34.652C24.2407 34.526 24.0727 34.463 23.8657 34.463C23.6947 34.463 23.5342 34.511 23.3842 34.607C23.2342 34.7 23.1112 34.8455 23.0152 35.0435C22.9222 35.2415 22.8757 35.498 22.8757 35.813C22.8757 36.113 22.9192 36.3635 23.0062 36.5645C23.0962 36.7625 23.2162 36.9125 23.3662 37.0145C23.5162 37.1135 23.6827 37.163 23.8657 37.163C24.1357 37.163 24.3322 37.0985 24.4552 36.9695C24.5782 36.8375 24.6397 36.662 24.6397 36.443H25.7107C25.7107 36.752 25.6402 37.034 25.4992 37.289C25.3582 37.544 25.1512 37.748 24.8782 37.901C24.6052 38.051 24.2707 38.126 23.8747 38.126ZM26.8834 38V31.826H27.9454V38H26.8834ZM32.3076 38L32.1726 36.938V35.183C32.1726 34.877 32.1096 34.6505 31.9836 34.5035C31.8606 34.3565 31.6506 34.283 31.3536 34.283C31.1826 34.283 31.0341 34.3085 30.9081 34.3595C30.7821 34.4105 30.6846 34.484 30.6156 34.58C30.5496 34.673 30.5166 34.787 30.5166 34.922H29.3556C29.3556 34.592 29.4351 34.3235 29.5941 34.1165C29.7531 33.9065 29.9811 33.7535 30.2781 33.6575C30.5781 33.5585 30.9366 33.509 31.3536 33.509C31.7316 33.509 32.0616 33.5705 32.3436 33.6935C32.6256 33.8135 32.8446 33.9995 33.0006 34.2515C33.1566 34.5035 33.2346 34.826 33.2346 35.219V38H32.3076ZM30.8766 38.126C30.5016 38.126 30.1881 38.0615 29.9361 37.9325C29.6871 37.8005 29.4996 37.628 29.3736 37.415C29.2476 37.202 29.1846 36.971 29.1846 36.722C29.1846 36.446 29.2566 36.215 29.4006 36.029C29.5476 35.84 29.7546 35.699 30.0216 35.606C30.2886 35.51 30.6036 35.462 30.9666 35.462C31.2036 35.462 31.4271 35.48 31.6371 35.516C31.8501 35.552 32.0616 35.6 32.2716 35.66V36.281C32.1066 36.227 31.9266 36.185 31.7316 36.155C31.5366 36.125 31.3536 36.11 31.1826 36.11C30.9306 36.11 30.7236 36.1565 30.5616 36.2495C30.3996 36.3425 30.3186 36.5 30.3186 36.722C30.3186 36.884 30.3846 37.0235 30.5166 37.1405C30.6486 37.2575 30.8586 37.316 31.1466 37.316C31.3656 37.316 31.5516 37.268 31.7046 37.172C31.8576 37.076 31.9731 36.956 32.0511 36.812C32.1321 36.668 32.1726 36.524 32.1726 36.38H32.4246C32.4246 36.695 32.3661 36.986 32.2491 37.253C32.1321 37.517 31.9581 37.7285 31.7271 37.8875C31.4991 38.0465 31.2156 38.126 30.8766 38.126ZM34.0262 33.635H35.2322L36.3932 37.073H36.2042L37.2032 33.635H38.2832L36.6092 38.792C36.4382 39.308 36.2267 39.6815 35.9747 39.9125C35.7257 40.1435 35.4212 40.259 35.0612 40.259C34.8542 40.259 34.6517 40.235 34.4537 40.187C34.2587 40.142 34.0592 40.07 33.8552 39.971V39.035C34.0202 39.137 34.1792 39.212 34.3322 39.26C34.4882 39.308 34.6442 39.332 34.8002 39.332C34.9412 39.332 35.0642 39.293 35.1692 39.215C35.2772 39.14 35.3702 39.0335 35.4482 38.8955C35.5262 38.7605 35.5922 38.603 35.6462 38.423L35.7812 38L34.0262 33.635ZM39.1779 39.0845L38.5389 38.765C38.7219 38.672 38.8794 38.5685 39.0114 38.4545C39.1434 38.3405 39.2304 38.204 39.2724 38.045C39.1284 38.024 39.0054 37.9685 38.9034 37.8785C38.8014 37.7885 38.7504 37.67 38.7504 37.523C38.7504 37.373 38.8059 37.247 38.9169 37.145C39.0309 37.04 39.1749 36.9875 39.3489 36.9875C39.5679 36.9875 39.7419 37.0655 39.8709 37.2215C40.0029 37.3775 40.0689 37.5635 40.0689 37.7795C40.0689 38.0285 39.9909 38.2715 39.8349 38.5085C39.6819 38.7485 39.4629 38.9405 39.1779 39.0845ZM45.268 38.117C44.953 38.117 44.68 38.0465 44.449 37.9055C44.218 37.7615 44.041 37.5515 43.918 37.2755C43.798 36.9965 43.738 36.6515 43.738 36.2405H44.071C44.071 36.4775 44.122 36.6785 44.224 36.8435C44.326 37.0055 44.4595 37.13 44.6245 37.217C44.7925 37.301 44.971 37.343 45.16 37.343C45.358 37.343 45.55 37.2875 45.736 37.1765C45.925 37.0625 46.0795 36.893 46.1995 36.668C46.3195 36.443 46.3795 36.164 46.3795 35.831C46.3795 35.513 46.3255 35.2415 46.2175 35.0165C46.1125 34.7915 45.9685 34.619 45.7855 34.499C45.6025 34.379 45.397 34.319 45.169 34.319C44.977 34.319 44.797 34.3655 44.629 34.4585C44.461 34.5485 44.326 34.682 44.224 34.859C44.122 35.033 44.071 35.246 44.071 35.498H43.738C43.738 35.063 43.807 34.7015 43.945 34.4135C44.086 34.1255 44.275 33.911 44.512 33.77C44.749 33.626 45.0115 33.554 45.2995 33.554C45.6385 33.554 45.9565 33.6455 46.2535 33.8285C46.5505 34.0085 46.7905 34.268 46.9735 34.607C47.1595 34.946 47.2525 35.354 47.2525 35.831C47.2525 36.308 47.1595 36.7175 46.9735 37.0595C46.7875 37.4015 46.543 37.664 46.24 37.847C45.94 38.027 45.616 38.117 45.268 38.117ZM43.216 40.124V33.671H43.9225L44.071 34.7105V40.124H43.216ZM51.1918 38L51.0838 37.0055V35.201C51.0838 34.847 51.0103 34.5905 50.8633 34.4315C50.7163 34.2695 50.4838 34.1885 50.1658 34.1885C49.9858 34.1885 49.8253 34.2155 49.6843 34.2695C49.5463 34.3205 49.4368 34.3985 49.3558 34.5035C49.2778 34.6085 49.2388 34.7405 49.2388 34.8995H48.2938C48.2938 34.5815 48.3718 34.3235 48.5278 34.1255C48.6838 33.9275 48.9013 33.7835 49.1803 33.6935C49.4623 33.6005 49.7908 33.554 50.1658 33.554C50.5168 33.554 50.8258 33.6125 51.0928 33.7295C51.3598 33.8435 51.5668 34.0235 51.7138 34.2695C51.8638 34.5155 51.9388 34.8335 51.9388 35.2235V38H51.1918ZM49.7428 38.117C49.3798 38.117 49.0783 38.054 48.8383 37.928C48.5983 37.799 48.4183 37.631 48.2983 37.424C48.1813 37.217 48.1228 36.9965 48.1228 36.7625C48.1228 36.4775 48.1948 36.2435 48.3388 36.0605C48.4858 35.8745 48.6883 35.7365 48.9463 35.6465C49.2043 35.5565 49.5013 35.5115 49.8373 35.5115C50.0683 35.5115 50.2933 35.5325 50.5123 35.5745C50.7313 35.6165 50.9473 35.672 51.1603 35.741V36.2585C50.9863 36.1955 50.7928 36.146 50.5798 36.11C50.3698 36.071 50.1733 36.0515 49.9903 36.0515C49.7173 36.0515 49.4893 36.1055 49.3063 36.2135C49.1233 36.3215 49.0318 36.5045 49.0318 36.7625C49.0318 36.9515 49.1038 37.115 49.2478 37.253C49.3918 37.388 49.6198 37.4555 49.9318 37.4555C50.1598 37.4555 50.3608 37.4045 50.5348 37.3025C50.7088 37.1975 50.8438 37.067 50.9398 36.911C51.0358 36.755 51.0838 36.599 51.0838 36.443H51.2908C51.2908 36.743 51.2293 37.0205 51.1063 37.2755C50.9863 37.5275 50.8108 37.7315 50.5798 37.8875C50.3488 38.0405 50.0698 38.117 49.7428 38.117ZM55.0522 38.117C54.6322 38.117 54.2782 38.0585 53.9902 37.9415C53.7022 37.8215 53.4817 37.6565 53.3287 37.4465C53.1787 37.2335 53.1007 36.9845 53.0947 36.6995H53.9002C53.9122 36.9485 54.0112 37.133 54.1972 37.253C54.3862 37.373 54.6412 37.433 54.9622 37.433C55.1332 37.433 55.2877 37.406 55.4257 37.352C55.5667 37.298 55.6777 37.2245 55.7587 37.1315C55.8427 37.0385 55.8847 36.9335 55.8847 36.8165C55.8847 36.6695 55.8307 36.554 55.7227 36.47C55.6147 36.383 55.4407 36.3065 55.2007 36.2405L54.3142 35.939C53.9602 35.819 53.6887 35.66 53.4997 35.462C53.3107 35.261 53.2162 35.021 53.2162 34.742C53.2162 34.385 53.3752 34.0985 53.6932 33.8825C54.0112 33.6635 54.4327 33.554 54.9577 33.554C55.5007 33.554 55.9192 33.6695 56.2132 33.9005C56.5102 34.1285 56.6647 34.415 56.6767 34.76H55.8532C55.8322 34.589 55.7467 34.4585 55.5967 34.3685C55.4497 34.2755 55.2367 34.229 54.9577 34.229C54.6967 34.229 54.4912 34.286 54.3412 34.4C54.1942 34.514 54.1207 34.643 54.1207 34.787C54.1207 35.045 54.3427 35.237 54.7867 35.363L55.7182 35.6915C56.0722 35.8055 56.3452 35.9525 56.5372 36.1325C56.7292 36.3125 56.8252 36.5405 56.8252 36.8165C56.8252 37.0385 56.7517 37.2485 56.6047 37.4465C56.4577 37.6445 56.2507 37.8065 55.9837 37.9325C55.7197 38.0555 55.4092 38.117 55.0522 38.117ZM59.6905 38.117C59.2705 38.117 58.9165 38.0585 58.6285 37.9415C58.3405 37.8215 58.12 37.6565 57.967 37.4465C57.817 37.2335 57.739 36.9845 57.733 36.6995H58.5385C58.5505 36.9485 58.6495 37.133 58.8355 37.253C59.0245 37.373 59.2795 37.433 59.6005 37.433C59.7715 37.433 59.926 37.406 60.064 37.352C60.205 37.298 60.316 37.2245 60.397 37.1315C60.481 37.0385 60.523 36.9335 60.523 36.8165C60.523 36.6695 60.469 36.554 60.361 36.47C60.253 36.383 60.079 36.3065 59.839 36.2405L58.9525 35.939C58.5985 35.819 58.327 35.66 58.138 35.462C57.949 35.261 57.8545 35.021 57.8545 34.742C57.8545 34.385 58.0135 34.0985 58.3315 33.8825C58.6495 33.6635 59.071 33.554 59.596 33.554C60.139 33.554 60.5575 33.6695 60.8515 33.9005C61.1485 34.1285 61.303 34.415 61.315 34.76H60.4915C60.4705 34.589 60.385 34.4585 60.235 34.3685C60.088 34.2755 59.875 34.229 59.596 34.229C59.335 34.229 59.1295 34.286 58.9795 34.4C58.8325 34.514 58.759 34.643 58.759 34.787C58.759 35.045 58.981 35.237 59.425 35.363L60.3565 35.6915C60.7105 35.8055 60.9835 35.9525 61.1755 36.1325C61.3675 36.3125 61.4635 36.5405 61.4635 36.8165C61.4635 37.0385 61.39 37.2485 61.243 37.4465C61.096 37.6445 60.889 37.8065 60.622 37.9325C60.358 38.0555 60.0475 38.117 59.6905 38.117ZM64.2973 38.117C63.9253 38.117 63.5893 38.021 63.2893 37.829C62.9893 37.637 62.7508 37.37 62.5738 37.028C62.3998 36.686 62.3128 36.29 62.3128 35.84C62.3128 35.363 62.3998 34.955 62.5738 34.616C62.7478 34.274 62.9848 34.0115 63.2848 33.8285C63.5848 33.6455 63.9223 33.554 64.2973 33.554C64.6333 33.554 64.9213 33.623 65.1613 33.761C65.4013 33.896 65.5948 34.079 65.7418 34.31C65.8888 34.538 65.9893 34.7975 66.0433 35.0885C66.1003 35.3795 66.1108 35.6795 66.0748 35.9885H62.9968V35.4935H65.4898L65.2828 35.6285C65.2918 35.4665 65.2828 35.3045 65.2558 35.1425C65.2318 34.9805 65.1838 34.832 65.1118 34.697C65.0398 34.559 64.9378 34.4495 64.8058 34.3685C64.6768 34.2845 64.5118 34.2425 64.3108 34.2425C64.0588 34.2425 63.8473 34.3055 63.6763 34.4315C63.5083 34.5575 63.3808 34.727 63.2938 34.94C63.2068 35.15 63.1633 35.381 63.1633 35.633V35.9795C63.1633 36.2585 63.2053 36.506 63.2893 36.722C63.3733 36.938 63.4978 37.109 63.6628 37.235C63.8308 37.358 64.0423 37.4195 64.2973 37.4195C64.5463 37.4195 64.7518 37.361 64.9138 37.244C65.0788 37.127 65.1808 36.9515 65.2198 36.7175H66.0928C66.0478 36.9995 65.9443 37.2455 65.7823 37.4555C65.6203 37.6655 65.4118 37.829 65.1568 37.946C64.9048 38.06 64.6183 38.117 64.2973 38.117ZM68.9009 38.117C68.5469 38.117 68.2214 38.0225 67.9244 37.8335C67.6274 37.6415 67.3904 37.3745 67.2134 37.0325C67.0394 36.6875 66.9524 36.2825 66.9524 35.8175C66.9524 35.3555 67.0379 34.955 67.2089 34.616C67.3829 34.277 67.6124 34.016 67.8974 33.833C68.1824 33.647 68.4989 33.554 68.8469 33.554C69.1649 33.554 69.4424 33.632 69.6794 33.788C69.9164 33.941 70.0994 34.1645 70.2284 34.4585C70.3604 34.7525 70.4264 35.111 70.4264 35.534H70.1294C70.1294 35.273 70.0769 35.0525 69.9719 34.8725C69.8669 34.6895 69.7304 34.5515 69.5624 34.4585C69.3944 34.3655 69.2144 34.319 69.0224 34.319C68.7974 34.319 68.5934 34.3805 68.4104 34.5035C68.2304 34.6235 68.0864 34.796 67.9784 35.021C67.8734 35.243 67.8209 35.5085 67.8209 35.8175C67.8209 36.1295 67.8734 36.401 67.9784 36.632C68.0864 36.86 68.2304 37.0355 68.4104 37.1585C68.5934 37.2815 68.7959 37.343 69.0179 37.343C69.2009 37.343 69.3764 37.295 69.5444 37.199C69.7154 37.1 69.8549 36.959 69.9629 36.776C70.0739 36.593 70.1294 36.3755 70.1294 36.1235H70.4264C70.4264 36.5555 70.3574 36.92 70.2194 37.217C70.0844 37.514 69.9014 37.739 69.6704 37.892C69.4394 38.042 69.1829 38.117 68.9009 38.117ZM70.2779 38L70.1294 36.9605V31.8485H70.9889V38H70.2779ZM12.1205 51V46.0635C12.1205 45.7635 12.1775 45.5205 12.2915 45.3345C12.4085 45.1455 12.563 45.006 12.755 44.916C12.947 44.826 13.1585 44.781 13.3895 44.781C13.5215 44.781 13.6565 44.79 13.7945 44.808C13.9355 44.826 14.0735 44.853 14.2085 44.889L14.0465 45.555C13.9625 45.525 13.877 45.501 13.79 45.483C13.706 45.465 13.625 45.456 13.547 45.456C13.454 45.456 13.364 45.474 13.277 45.51C13.19 45.543 13.118 45.6045 13.061 45.6945C13.007 45.7845 12.98 45.912 12.98 46.077V51H12.1205ZM11.441 47.2515V46.671H13.8305V47.2515H11.441ZM14.9514 51V46.6575H15.8064V51H14.9514ZM15.5724 49.065C15.5724 48.51 15.6294 48.0495 15.7434 47.6835C15.8604 47.3145 16.0224 47.04 16.2294 46.86C16.4394 46.68 16.6854 46.59 16.9674 46.59C17.0514 46.59 17.1294 46.596 17.2014 46.608C17.2764 46.62 17.3499 46.6365 17.4219 46.6575L17.3904 47.508C17.3094 47.487 17.2209 47.469 17.1249 47.454C17.0319 47.436 16.9464 47.427 16.8684 47.427C16.6224 47.427 16.4214 47.493 16.2654 47.625C16.1094 47.754 15.9939 47.9415 15.9189 48.1875C15.8439 48.4305 15.8064 48.723 15.8064 49.065H15.5724ZM19.8476 51.117C19.4546 51.117 19.1021 51.0315 18.7901 50.8605C18.4811 50.6895 18.2366 50.4345 18.0566 50.0955C17.8766 49.7565 17.7866 49.338 17.7866 48.84C17.7866 48.333 17.8766 47.9115 18.0566 47.5755C18.2366 47.2365 18.4811 46.9815 18.7901 46.8105C19.1021 46.6395 19.4546 46.554 19.8476 46.554C20.2346 46.554 20.5826 46.6395 20.8916 46.8105C21.2006 46.9815 21.4436 47.2365 21.6206 47.5755C21.8006 47.9115 21.8906 48.333 21.8906 48.84C21.8906 49.338 21.8006 49.7565 21.6206 50.0955C21.4436 50.4345 21.2006 50.6895 20.8916 50.8605C20.5826 51.0315 20.2346 51.117 19.8476 51.117ZM19.8206 50.37C20.0696 50.37 20.2841 50.31 20.4641 50.19C20.6471 50.07 20.7866 49.896 20.8826 49.668C20.9816 49.437 21.0311 49.161 21.0311 48.84C21.0311 48.348 20.9306 47.967 20.7296 47.697C20.5316 47.427 20.2451 47.292 19.8701 47.292C19.6181 47.292 19.4006 47.3535 19.2176 47.4765C19.0376 47.5965 18.8981 47.772 18.7991 48.003C18.7031 48.231 18.6551 48.51 18.6551 48.84C18.6551 49.323 18.7556 49.6995 18.9566 49.9695C19.1576 50.2365 19.4456 50.37 19.8206 50.37ZM29.1103 51V48.462C29.1103 48.087 29.0203 47.8035 28.8403 47.6115C28.6633 47.4165 28.4248 47.319 28.1248 47.319C27.7648 47.319 27.4858 47.46 27.2878 47.742C27.0928 48.024 26.9953 48.429 26.9953 48.957H26.6218C26.6218 48.54 26.6623 48.18 26.7433 47.877C26.8243 47.574 26.9398 47.325 27.0898 47.13C27.2428 46.935 27.4243 46.791 27.6343 46.698C27.8473 46.602 28.0843 46.554 28.3453 46.554C28.6933 46.554 28.9873 46.632 29.2273 46.788C29.4703 46.944 29.6548 47.166 29.7808 47.454C29.9068 47.739 29.9698 48.075 29.9698 48.462V51H29.1103ZM23.1118 51V46.671H23.8543L23.9488 47.4855C24.0868 47.1825 24.2758 46.9515 24.5158 46.7925C24.7588 46.6335 25.0438 46.554 25.3708 46.554C25.7188 46.554 26.0128 46.632 26.2528 46.788C26.4958 46.944 26.6803 47.166 26.8063 47.454C26.9323 47.739 26.9953 48.075 26.9953 48.462V51H26.1448V48.462C26.1448 48.087 26.0548 47.8035 25.8748 47.6115C25.6978 47.4165 25.4578 47.319 25.1548 47.319C24.9148 47.319 24.7048 47.385 24.5248 47.517C24.3478 47.646 24.2098 47.8365 24.1108 48.0885C24.0148 48.3375 23.9668 48.642 23.9668 49.002V51H23.1118ZM36.6167 51V48.462C36.6167 48.087 36.5267 47.8035 36.3467 47.6115C36.1697 47.4165 35.9297 47.319 35.6267 47.319C35.3867 47.319 35.1767 47.385 34.9967 47.517C34.8197 47.646 34.6817 47.8365 34.5827 48.0885C34.4867 48.3375 34.4387 48.642 34.4387 49.002H34.1327C34.1327 48.471 34.2002 48.024 34.3352 47.661C34.4732 47.298 34.6697 47.0235 34.9247 46.8375C35.1797 46.6485 35.4857 46.554 35.8427 46.554C36.1907 46.554 36.4847 46.632 36.7247 46.788C36.9677 46.944 37.1522 47.166 37.2782 47.454C37.4042 47.739 37.4672 48.075 37.4672 48.462V51H36.6167ZM33.5837 51V44.8485H34.4387V51H33.5837ZM41.7089 51L41.6009 50.0055V48.201C41.6009 47.847 41.5274 47.5905 41.3804 47.4315C41.2334 47.2695 41.0009 47.1885 40.6829 47.1885C40.5029 47.1885 40.3424 47.2155 40.2014 47.2695C40.0634 47.3205 39.9539 47.3985 39.8729 47.5035C39.7949 47.6085 39.7559 47.7405 39.7559 47.8995H38.8109C38.8109 47.5815 38.8889 47.3235 39.0449 47.1255C39.2009 46.9275 39.4184 46.7835 39.6974 46.6935C39.9794 46.6005 40.3079 46.554 40.6829 46.554C41.0339 46.554 41.3429 46.6125 41.6099 46.7295C41.8769 46.8435 42.0839 47.0235 42.2309 47.2695C42.3809 47.5155 42.4559 47.8335 42.4559 48.2235V51H41.7089ZM40.2599 51.117C39.8969 51.117 39.5954 51.054 39.3554 50.928C39.1154 50.799 38.9354 50.631 38.8154 50.424C38.6984 50.217 38.6399 49.9965 38.6399 49.7625C38.6399 49.4775 38.7119 49.2435 38.8559 49.0605C39.0029 48.8745 39.2054 48.7365 39.4634 48.6465C39.7214 48.5565 40.0184 48.5115 40.3544 48.5115C40.5854 48.5115 40.8104 48.5325 41.0294 48.5745C41.2484 48.6165 41.4644 48.672 41.6774 48.741V49.2585C41.5034 49.1955 41.3099 49.146 41.0969 49.11C40.8869 49.071 40.6904 49.0515 40.5074 49.0515C40.2344 49.0515 40.0064 49.1055 39.8234 49.2135C39.6404 49.3215 39.5489 49.5045 39.5489 49.7625C39.5489 49.9515 39.6209 50.115 39.7649 50.253C39.9089 50.388 40.1369 50.4555 40.4489 50.4555C40.6769 50.4555 40.8779 50.4045 41.0519 50.3025C41.2259 50.1975 41.3609 50.067 41.4569 49.911C41.5529 49.755 41.6009 49.599 41.6009 49.443H41.8079C41.8079 49.743 41.7464 50.0205 41.6234 50.2755C41.5034 50.5275 41.3279 50.7315 41.0969 50.8875C40.8659 51.0405 40.5869 51.117 40.2599 51.117ZM47.0183 51V48.462C47.0183 48.087 46.9283 47.8035 46.7483 47.6115C46.5713 47.4165 46.3313 47.319 46.0283 47.319C45.7883 47.319 45.5783 47.385 45.3983 47.517C45.2213 47.646 45.0833 47.8365 44.9843 48.0885C44.8883 48.3375 44.8403 48.642 44.8403 49.002H44.5343C44.5343 48.471 44.6018 48.024 44.7368 47.661C44.8748 47.298 45.0713 47.0235 45.3263 46.8375C45.5813 46.6485 45.8873 46.554 46.2443 46.554C46.5923 46.554 46.8863 46.632 47.1263 46.788C47.3693 46.944 47.5538 47.166 47.6798 47.454C47.8058 47.739 47.8688 48.075 47.8688 48.462V51H47.0183ZM43.9853 51V46.671H44.7278L44.8403 47.607V51H43.9853ZM50.9675 51.117C50.6135 51.117 50.288 51.0225 49.991 50.8335C49.694 50.6415 49.457 50.3745 49.28 50.0325C49.106 49.6875 49.019 49.2825 49.019 48.8175C49.019 48.3555 49.1045 47.955 49.2755 47.616C49.4495 47.277 49.679 47.016 49.964 46.833C50.249 46.647 50.5655 46.554 50.9135 46.554C51.2315 46.554 51.509 46.632 51.746 46.788C51.983 46.941 52.166 47.1645 52.295 47.4585C52.427 47.7525 52.493 48.111 52.493 48.534H52.196C52.196 48.273 52.1435 48.0525 52.0385 47.8725C51.9335 47.6895 51.797 47.5515 51.629 47.4585C51.461 47.3655 51.281 47.319 51.089 47.319C50.864 47.319 50.66 47.3805 50.477 47.5035C50.297 47.6235 50.153 47.796 50.045 48.021C49.94 48.243 49.8875 48.5085 49.8875 48.8175C49.8875 49.1295 49.94 49.401 50.045 49.632C50.153 49.86 50.297 50.0355 50.477 50.1585C50.66 50.2815 50.8625 50.343 51.0845 50.343C51.2675 50.343 51.443 50.295 51.611 50.199C51.782 50.1 51.9215 49.959 52.0295 49.776C52.1405 49.593 52.196 49.3755 52.196 49.1235H52.493C52.493 49.5555 52.424 49.92 52.286 50.217C52.151 50.514 51.968 50.739 51.737 50.892C51.506 51.042 51.2495 51.117 50.9675 51.117ZM52.3445 51L52.196 49.9605V44.8485H53.0555V51H52.3445ZM58.2008 51.117C57.9548 51.117 57.7328 51.0705 57.5348 50.9775C57.3368 50.8845 57.1793 50.745 57.0623 50.559C56.9483 50.37 56.8913 50.133 56.8913 49.848V45.492H57.7418V49.821C57.7418 50.229 57.9323 50.433 58.3134 50.433C58.4304 50.433 58.5443 50.421 58.6553 50.397C58.7663 50.37 58.8923 50.331 59.0333 50.28L59.1548 50.8875C58.9959 50.9535 58.8384 51.0075 58.6823 51.0495C58.5293 51.0945 58.3688 51.117 58.2008 51.117ZM56.2298 47.2515V46.671H59.0244V47.2515H56.2298ZM61.7945 51.117C61.4015 51.117 61.049 51.0315 60.737 50.8605C60.428 50.6895 60.1835 50.4345 60.0035 50.0955C59.8235 49.7565 59.7335 49.338 59.7335 48.84C59.7335 48.333 59.8235 47.9115 60.0035 47.5755C60.1835 47.2365 60.428 46.9815 60.737 46.8105C61.049 46.6395 61.4015 46.554 61.7945 46.554C62.1815 46.554 62.5295 46.6395 62.8385 46.8105C63.1475 46.9815 63.3905 47.2365 63.5675 47.5755C63.7475 47.9115 63.8375 48.333 63.8375 48.84C63.8375 49.338 63.7475 49.7565 63.5675 50.0955C63.3905 50.4345 63.1475 50.6895 62.8385 50.8605C62.5295 51.0315 62.1815 51.117 61.7945 51.117ZM61.7675 50.37C62.0165 50.37 62.231 50.31 62.411 50.19C62.594 50.07 62.7335 49.896 62.8295 49.668C62.9285 49.437 62.978 49.161 62.978 48.84C62.978 48.348 62.8775 47.967 62.6765 47.697C62.4785 47.427 62.192 47.292 61.817 47.292C61.565 47.292 61.3475 47.3535 61.1645 47.4765C60.9845 47.5965 60.845 47.772 60.746 48.003C60.65 48.231 60.602 48.51 60.602 48.84C60.602 49.323 60.7025 49.6995 60.9035 49.9695C61.1045 50.2365 61.3925 50.37 61.7675 50.37ZM14.9105 64V61.462C14.9105 61.087 14.8205 60.8035 14.6405 60.6115C14.4635 60.4165 14.2235 60.319 13.9205 60.319C13.6805 60.319 13.4705 60.385 13.2905 60.517C13.1135 60.646 12.9755 60.8365 12.8765 61.0885C12.7805 61.3375 12.7325 61.642 12.7325 62.002H12.4265C12.4265 61.471 12.494 61.024 12.629 60.661C12.767 60.298 12.9635 60.0235 13.2185 59.8375C13.4735 59.6485 13.7795 59.554 14.1365 59.554C14.4845 59.554 14.7785 59.632 15.0185 59.788C15.2615 59.944 15.446 60.166 15.572 60.454C15.698 60.739 15.761 61.075 15.761 61.462V64H14.9105ZM11.8775 64V57.8485H12.7325V64H11.8775ZM20.0027 64L19.8947 63.0055V61.201C19.8947 60.847 19.8212 60.5905 19.6742 60.4315C19.5272 60.2695 19.2947 60.1885 18.9767 60.1885C18.7967 60.1885 18.6362 60.2155 18.4952 60.2695C18.3572 60.3205 18.2477 60.3985 18.1667 60.5035C18.0887 60.6085 18.0497 60.7405 18.0497 60.8995H17.1047C17.1047 60.5815 17.1827 60.3235 17.3387 60.1255C17.4947 59.9275 17.7122 59.7835 17.9912 59.6935C18.2732 59.6005 18.6017 59.554 18.9767 59.554C19.3277 59.554 19.6367 59.6125 19.9037 59.7295C20.1707 59.8435 20.3777 60.0235 20.5247 60.2695C20.6747 60.5155 20.7497 60.8335 20.7497 61.2235V64H20.0027ZM18.5537 64.117C18.1907 64.117 17.8892 64.054 17.6492 63.928C17.4092 63.799 17.2292 63.631 17.1092 63.424C16.9922 63.217 16.9337 62.9965 16.9337 62.7625C16.9337 62.4775 17.0057 62.2435 17.1497 62.0605C17.2967 61.8745 17.4992 61.7365 17.7572 61.6465C18.0152 61.5565 18.3122 61.5115 18.6482 61.5115C18.8792 61.5115 19.1042 61.5325 19.3232 61.5745C19.5422 61.6165 19.7582 61.672 19.9712 61.741V62.2585C19.7972 62.1955 19.6037 62.146 19.3907 62.11C19.1807 62.071 18.9842 62.0515 18.8012 62.0515C18.5282 62.0515 18.3002 62.1055 18.1172 62.2135C17.9342 62.3215 17.8427 62.5045 17.8427 62.7625C17.8427 62.9515 17.9147 63.115 18.0587 63.253C18.2027 63.388 18.4307 63.4555 18.7427 63.4555C18.9707 63.4555 19.1717 63.4045 19.3457 63.3025C19.5197 63.1975 19.6547 63.067 19.7507 62.911C19.8467 62.755 19.8947 62.599 19.8947 62.443H20.1017C20.1017 62.743 20.0402 63.0205 19.9172 63.2755C19.7972 63.5275 19.6217 63.7315 19.3907 63.8875C19.1597 64.0405 18.8807 64.117 18.5537 64.117ZM25.3121 64V61.462C25.3121 61.087 25.2221 60.8035 25.0421 60.6115C24.8651 60.4165 24.6251 60.319 24.3221 60.319C24.0821 60.319 23.8721 60.385 23.6921 60.517C23.5151 60.646 23.3771 60.8365 23.2781 61.0885C23.1821 61.3375 23.1341 61.642 23.1341 62.002H22.8281C22.8281 61.471 22.8956 61.024 23.0306 60.661C23.1686 60.298 23.3651 60.0235 23.6201 59.8375C23.8751 59.6485 24.1811 59.554 24.5381 59.554C24.8861 59.554 25.1801 59.632 25.4201 59.788C25.6631 59.944 25.8476 60.166 25.9736 60.454C26.0996 60.739 26.1626 61.075 26.1626 61.462V64H25.3121ZM22.2791 64V59.671H23.0216L23.1341 60.607V64H22.2791ZM29.2614 64.117C28.9074 64.117 28.5819 64.0225 28.2849 63.8335C27.9879 63.6415 27.7509 63.3745 27.5739 63.0325C27.3999 62.6875 27.3129 62.2825 27.3129 61.8175C27.3129 61.3555 27.3984 60.955 27.5694 60.616C27.7434 60.277 27.9729 60.016 28.2579 59.833C28.5429 59.647 28.8594 59.554 29.2074 59.554C29.5254 59.554 29.8029 59.632 30.0399 59.788C30.2769 59.941 30.4599 60.1645 30.5889 60.4585C30.7209 60.7525 30.7869 61.111 30.7869 61.534H30.4899C30.4899 61.273 30.4374 61.0525 30.3324 60.8725C30.2274 60.6895 30.0909 60.5515 29.9229 60.4585C29.7549 60.3655 29.5749 60.319 29.3829 60.319C29.1579 60.319 28.9539 60.3805 28.7709 60.5035C28.5909 60.6235 28.4469 60.796 28.3389 61.021C28.2339 61.243 28.1814 61.5085 28.1814 61.8175C28.1814 62.1295 28.2339 62.401 28.3389 62.632C28.4469 62.86 28.5909 63.0355 28.7709 63.1585C28.9539 63.2815 29.1564 63.343 29.3784 63.343C29.5614 63.343 29.7369 63.295 29.9049 63.199C30.0759 63.1 30.2154 62.959 30.3234 62.776C30.4344 62.593 30.4899 62.3755 30.4899 62.1235H30.7869C30.7869 62.5555 30.7179 62.92 30.5799 63.217C30.4449 63.514 30.2619 63.739 30.0309 63.892C29.7999 64.042 29.5434 64.117 29.2614 64.117ZM30.6384 64L30.4899 62.9605V57.8485H31.3494V64H30.6384ZM32.3759 63.496C32.3759 63.328 32.4329 63.1855 32.5469 63.0685C32.6639 62.9515 32.8109 62.893 32.9879 62.893C33.1649 62.893 33.3149 62.9515 33.4379 63.0685C33.5609 63.1855 33.6224 63.328 33.6224 63.496C33.6224 63.661 33.5609 63.8005 33.4379 63.9145C33.3149 64.0255 33.1649 64.081 32.9879 64.081C32.8109 64.081 32.6639 64.024 32.5469 63.91C32.4329 63.796 32.3759 63.658 32.3759 63.496Z" fill="#1C1A2B"/>
</svg>
