<svg width="82" height="84" viewBox="0 0 82 84" fill="none" xmlns="http://www.w3.org/2000/svg">
<rect x="0.5" y="0.5" width="81" height="83" rx="13.5" fill="white" stroke="#DCDCDC"/>
<path d="M8.7325 14.267V19.253H11.203V20H7.8775V14.267H8.7325ZM13.6376 20.117C13.2656 20.117 12.9296 20.021 12.6296 19.829C12.3296 19.637 12.0911 19.37 11.9141 19.028C11.7401 18.686 11.6531 18.29 11.6531 17.84C11.6531 17.363 11.7401 16.955 11.9141 16.616C12.0881 16.274 12.3251 16.0115 12.6251 15.8285C12.9251 15.6455 13.2626 15.554 13.6376 15.554C13.9736 15.554 14.2616 15.623 14.5016 15.761C14.7416 15.896 14.9351 16.079 15.0821 16.31C15.2291 16.538 15.3296 16.7975 15.3836 17.0885C15.4406 17.3795 15.4511 17.6795 15.4151 17.9885H12.3371V17.4935H14.8301L14.6231 17.6285C14.6321 17.4665 14.6231 17.3045 14.5961 17.1425C14.5721 16.9805 14.5241 16.832 14.4521 16.697C14.3801 16.559 14.2781 16.4495 14.1461 16.3685C14.0171 16.2845 13.8521 16.2425 13.6511 16.2425C13.3991 16.2425 13.1876 16.3055 13.0166 16.4315C12.8486 16.5575 12.7211 16.727 12.6341 16.94C12.5471 17.15 12.5036 17.381 12.5036 17.633V17.9795C12.5036 18.2585 12.5456 18.506 12.6296 18.722C12.7136 18.938 12.8381 19.109 13.0031 19.235C13.1711 19.358 13.3826 19.4195 13.6376 19.4195C13.8866 19.4195 14.0921 19.361 14.2541 19.244C14.4191 19.127 14.5211 18.9515 14.5601 18.7175H15.4331C15.3881 18.9995 15.2846 19.2455 15.1226 19.4555C14.9606 19.6655 14.7521 19.829 14.4971 19.946C14.2451 20.06 13.9586 20.117 13.6376 20.117ZM19.3842 20L19.2762 19.0055V17.201C19.2762 16.847 19.2027 16.5905 19.0557 16.4315C18.9087 16.2695 18.6762 16.1885 18.3582 16.1885C18.1782 16.1885 18.0177 16.2155 17.8767 16.2695C17.7387 16.3205 17.6292 16.3985 17.5482 16.5035C17.4702 16.6085 17.4312 16.7405 17.4312 16.8995H16.4862C16.4862 16.5815 16.5642 16.3235 16.7202 16.1255C16.8762 15.9275 17.0937 15.7835 17.3727 15.6935C17.6547 15.6005 17.9832 15.554 18.3582 15.554C18.7092 15.554 19.0182 15.6125 19.2852 15.7295C19.5522 15.8435 19.7592 16.0235 19.9062 16.2695C20.0562 16.5155 20.1312 16.8335 20.1312 17.2235V20H19.3842ZM17.9352 20.117C17.5722 20.117 17.2707 20.054 17.0307 19.928C16.7907 19.799 16.6107 19.631 16.4907 19.424C16.3737 19.217 16.3152 18.9965 16.3152 18.7625C16.3152 18.4775 16.3872 18.2435 16.5312 18.0605C16.6782 17.8745 16.8807 17.7365 17.1387 17.6465C17.3967 17.5565 17.6937 17.5115 18.0297 17.5115C18.2607 17.5115 18.4857 17.5325 18.7047 17.5745C18.9237 17.6165 19.1397 17.672 19.3527 17.741V18.2585C19.1787 18.1955 18.9852 18.146 18.7722 18.11C18.5622 18.071 18.3657 18.0515 18.1827 18.0515C17.9097 18.0515 17.6817 18.1055 17.4987 18.2135C17.3157 18.3215 17.2242 18.5045 17.2242 18.7625C17.2242 18.9515 17.2962 19.115 17.4402 19.253C17.5842 19.388 17.8122 19.4555 18.1242 19.4555C18.3522 19.4555 18.5532 19.4045 18.7272 19.3025C18.9012 19.1975 19.0362 19.067 19.1322 18.911C19.2282 18.755 19.2762 18.599 19.2762 18.443H19.4832C19.4832 18.743 19.4217 19.0205 19.2987 19.2755C19.1787 19.5275 19.0032 19.7315 18.7722 19.8875C18.5412 20.0405 18.2622 20.117 17.9352 20.117ZM21.6606 20V15.6575H22.5156V20H21.6606ZM22.2816 18.065C22.2816 17.51 22.3386 17.0495 22.4526 16.6835C22.5696 16.3145 22.7316 16.04 22.9386 15.86C23.1486 15.68 23.3946 15.59 23.6766 15.59C23.7606 15.59 23.8386 15.596 23.9106 15.608C23.9856 15.62 24.0591 15.6365 24.1311 15.6575L24.0996 16.508C24.0186 16.487 23.9301 16.469 23.8341 16.454C23.7411 16.436 23.6556 16.427 23.5776 16.427C23.3316 16.427 23.1306 16.493 22.9746 16.625C22.8186 16.754 22.7031 16.9415 22.6281 17.1875C22.5531 17.4305 22.5156 17.723 22.5156 18.065H22.2816ZM27.9608 20V17.462C27.9608 17.087 27.8708 16.8035 27.6908 16.6115C27.5138 16.4165 27.2738 16.319 26.9708 16.319C26.7308 16.319 26.5208 16.385 26.3408 16.517C26.1638 16.646 26.0258 16.8365 25.9268 17.0885C25.8308 17.3375 25.7828 17.642 25.7828 18.002H25.4768C25.4768 17.471 25.5443 17.024 25.6793 16.661C25.8173 16.298 26.0138 16.0235 26.2688 15.8375C26.5238 15.6485 26.8298 15.554 27.1868 15.554C27.5348 15.554 27.8288 15.632 28.0688 15.788C28.3118 15.944 28.4963 16.166 28.6223 16.454C28.7483 16.739 28.8113 17.075 28.8113 17.462V20H27.9608ZM24.9278 20V15.671H25.6703L25.7828 16.607V20H24.9278ZM33.8283 20.117C33.5823 20.117 33.3603 20.0705 33.1623 19.9775C32.9643 19.8845 32.8068 19.745 32.6898 19.559C32.5758 19.37 32.5188 19.133 32.5188 18.848V14.492H33.3693V18.821C33.3693 19.229 33.5598 19.433 33.9408 19.433C34.0578 19.433 34.1718 19.421 34.2828 19.397C34.3938 19.37 34.5198 19.331 34.6608 19.28L34.7823 19.8875C34.6233 19.9535 34.4658 20.0075 34.3098 20.0495C34.1568 20.0945 33.9963 20.117 33.8283 20.117ZM31.8573 16.2515V15.671H34.6518V16.2515H31.8573ZM37.4219 20.117C37.0289 20.117 36.6764 20.0315 36.3644 19.8605C36.0554 19.6895 35.8109 19.4345 35.6309 19.0955C35.4509 18.7565 35.3609 18.338 35.3609 17.84C35.3609 17.333 35.4509 16.9115 35.6309 16.5755C35.8109 16.2365 36.0554 15.9815 36.3644 15.8105C36.6764 15.6395 37.0289 15.554 37.4219 15.554C37.8089 15.554 38.1569 15.6395 38.4659 15.8105C38.7749 15.9815 39.0179 16.2365 39.1949 16.5755C39.3749 16.9115 39.4649 17.333 39.4649 17.84C39.4649 18.338 39.3749 18.7565 39.1949 19.0955C39.0179 19.4345 38.7749 19.6895 38.4659 19.8605C38.1569 20.0315 37.8089 20.117 37.4219 20.117ZM37.3949 19.37C37.6439 19.37 37.8584 19.31 38.0384 19.19C38.2214 19.07 38.3609 18.896 38.4569 18.668C38.5559 18.437 38.6054 18.161 38.6054 17.84C38.6054 17.348 38.5049 16.967 38.3039 16.697C38.1059 16.427 37.8194 16.292 37.4444 16.292C37.1924 16.292 36.9749 16.3535 36.7919 16.4765C36.6119 16.5965 36.4724 16.772 36.3734 17.003C36.2774 17.231 36.2294 17.51 36.2294 17.84C36.2294 18.323 36.3299 18.6995 36.5309 18.9695C36.7319 19.2365 37.0199 19.37 37.3949 19.37ZM42.7844 20V15.6575H43.6394V20H42.7844ZM43.4054 18.065C43.4054 17.51 43.4624 17.0495 43.5764 16.6835C43.6934 16.3145 43.8554 16.04 44.0624 15.86C44.2724 15.68 44.5184 15.59 44.8004 15.59C44.8844 15.59 44.9624 15.596 45.0344 15.608C45.1094 15.62 45.1829 15.6365 45.2549 15.6575L45.2234 16.508C45.1424 16.487 45.0539 16.469 44.9579 16.454C44.8649 16.436 44.7794 16.427 44.7014 16.427C44.4554 16.427 44.2544 16.493 44.0984 16.625C43.9424 16.754 43.8269 16.9415 43.7519 17.1875C43.6769 17.4305 43.6394 17.723 43.6394 18.065H43.4054ZM47.6041 20.117C47.2321 20.117 46.8961 20.021 46.5961 19.829C46.2961 19.637 46.0576 19.37 45.8806 19.028C45.7066 18.686 45.6196 18.29 45.6196 17.84C45.6196 17.363 45.7066 16.955 45.8806 16.616C46.0546 16.274 46.2916 16.0115 46.5916 15.8285C46.8916 15.6455 47.2291 15.554 47.6041 15.554C47.9401 15.554 48.2281 15.623 48.4681 15.761C48.7081 15.896 48.9016 16.079 49.0486 16.31C49.1956 16.538 49.2961 16.7975 49.3501 17.0885C49.4071 17.3795 49.4176 17.6795 49.3816 17.9885H46.3036V17.4935H48.7966L48.5896 17.6285C48.5986 17.4665 48.5896 17.3045 48.5626 17.1425C48.5386 16.9805 48.4906 16.832 48.4186 16.697C48.3466 16.559 48.2446 16.4495 48.1126 16.3685C47.9836 16.2845 47.8186 16.2425 47.6176 16.2425C47.3656 16.2425 47.1541 16.3055 46.9831 16.4315C46.8151 16.5575 46.6876 16.727 46.6006 16.94C46.5136 17.15 46.4701 17.381 46.4701 17.633V17.9795C46.4701 18.2585 46.5121 18.506 46.5961 18.722C46.6801 18.938 46.8046 19.109 46.9696 19.235C47.1376 19.358 47.3491 19.4195 47.6041 19.4195C47.8531 19.4195 48.0586 19.361 48.2206 19.244C48.3856 19.127 48.4876 18.9515 48.5266 18.7175H49.3996C49.3546 18.9995 49.2511 19.2455 49.0891 19.4555C48.9271 19.6655 48.7186 19.829 48.4636 19.946C48.2116 20.06 47.9251 20.117 47.6041 20.117ZM53.3506 20L53.2426 19.0055V17.201C53.2426 16.847 53.1691 16.5905 53.0221 16.4315C52.8751 16.2695 52.6426 16.1885 52.3246 16.1885C52.1446 16.1885 51.9841 16.2155 51.8431 16.2695C51.7051 16.3205 51.5956 16.3985 51.5146 16.5035C51.4366 16.6085 51.3976 16.7405 51.3976 16.8995H50.4526C50.4526 16.5815 50.5306 16.3235 50.6866 16.1255C50.8426 15.9275 51.0601 15.7835 51.3391 15.6935C51.6211 15.6005 51.9496 15.554 52.3246 15.554C52.6756 15.554 52.9846 15.6125 53.2516 15.7295C53.5186 15.8435 53.7256 16.0235 53.8726 16.2695C54.0226 16.5155 54.0976 16.8335 54.0976 17.2235V20H53.3506ZM51.9016 20.117C51.5386 20.117 51.2371 20.054 50.9971 19.928C50.7571 19.799 50.5771 19.631 50.4571 19.424C50.3401 19.217 50.2816 18.9965 50.2816 18.7625C50.2816 18.4775 50.3536 18.2435 50.4976 18.0605C50.6446 17.8745 50.8471 17.7365 51.1051 17.6465C51.3631 17.5565 51.6601 17.5115 51.9961 17.5115C52.2271 17.5115 52.4521 17.5325 52.6711 17.5745C52.8901 17.6165 53.1061 17.672 53.3191 17.741V18.2585C53.1451 18.1955 52.9516 18.146 52.7386 18.11C52.5286 18.071 52.3321 18.0515 52.1491 18.0515C51.8761 18.0515 51.6481 18.1055 51.4651 18.2135C51.2821 18.3215 51.1906 18.5045 51.1906 18.7625C51.1906 18.9515 51.2626 19.115 51.4066 19.253C51.5506 19.388 51.7786 19.4555 52.0906 19.4555C52.3186 19.4555 52.5196 19.4045 52.6936 19.3025C52.8676 19.1975 53.0026 19.067 53.0986 18.911C53.1946 18.755 53.2426 18.599 53.2426 18.443H53.4496C53.4496 18.743 53.3881 19.0205 53.2651 19.2755C53.1451 19.5275 52.9696 19.7315 52.7386 19.8875C52.5076 20.0405 52.2286 20.117 51.9016 20.117ZM57.1975 20.117C56.8435 20.117 56.518 20.0225 56.221 19.8335C55.924 19.6415 55.687 19.3745 55.51 19.0325C55.336 18.6875 55.249 18.2825 55.249 17.8175C55.249 17.3555 55.3345 16.955 55.5055 16.616C55.6795 16.277 55.909 16.016 56.194 15.833C56.479 15.647 56.7955 15.554 57.1435 15.554C57.4615 15.554 57.739 15.632 57.976 15.788C58.213 15.941 58.396 16.1645 58.525 16.4585C58.657 16.7525 58.723 17.111 58.723 17.534H58.426C58.426 17.273 58.3735 17.0525 58.2685 16.8725C58.1635 16.6895 58.027 16.5515 57.859 16.4585C57.691 16.3655 57.511 16.319 57.319 16.319C57.094 16.319 56.89 16.3805 56.707 16.5035C56.527 16.6235 56.383 16.796 56.275 17.021C56.17 17.243 56.1175 17.5085 56.1175 17.8175C56.1175 18.1295 56.17 18.401 56.275 18.632C56.383 18.86 56.527 19.0355 56.707 19.1585C56.89 19.2815 57.0925 19.343 57.3145 19.343C57.4975 19.343 57.673 19.295 57.841 19.199C58.012 19.1 58.1515 18.959 58.2595 18.776C58.3705 18.593 58.426 18.3755 58.426 18.1235H58.723C58.723 18.5555 58.654 18.92 58.516 19.217C58.381 19.514 58.198 19.739 57.967 19.892C57.736 20.042 57.4795 20.117 57.1975 20.117ZM58.5745 20L58.426 18.9605V13.8485H59.2855V20H58.5745ZM64.4308 20.117C64.1848 20.117 63.9628 20.0705 63.7648 19.9775C63.5668 19.8845 63.4093 19.745 63.2923 19.559C63.1783 19.37 63.1213 19.133 63.1213 18.848V14.492H63.9718V18.821C63.9718 19.229 64.1623 19.433 64.5433 19.433C64.6603 19.433 64.7743 19.421 64.8853 19.397C64.9963 19.37 65.1223 19.331 65.2633 19.28L65.3848 19.8875C65.2258 19.9535 65.0683 20.0075 64.9123 20.0495C64.7593 20.0945 64.5988 20.117 64.4308 20.117ZM62.4598 16.2515V15.671H65.2543V16.2515H62.4598ZM69.4284 20V17.462C69.4284 17.087 69.3384 16.8035 69.1584 16.6115C68.9814 16.4165 68.7414 16.319 68.4384 16.319C68.1984 16.319 67.9884 16.385 67.8084 16.517C67.6314 16.646 67.4934 16.8365 67.3944 17.0885C67.2984 17.3375 67.2504 17.642 67.2504 18.002H66.9444C66.9444 17.471 67.0119 17.024 67.1469 16.661C67.2849 16.298 67.4814 16.0235 67.7364 15.8375C67.9914 15.6485 68.2974 15.554 68.6544 15.554C69.0024 15.554 69.2964 15.632 69.5364 15.788C69.7794 15.944 69.9639 16.166 70.0899 16.454C70.2159 16.739 70.2789 17.075 70.2789 17.462V20H69.4284ZM66.3954 20V13.8485H67.2504V20H66.3954ZM73.3597 20.117C72.9877 20.117 72.6517 20.021 72.3517 19.829C72.0517 19.637 71.8132 19.37 71.6362 19.028C71.4622 18.686 71.3752 18.29 71.3752 17.84C71.3752 17.363 71.4622 16.955 71.6362 16.616C71.8102 16.274 72.0472 16.0115 72.3472 15.8285C72.6472 15.6455 72.9847 15.554 73.3597 15.554C73.6957 15.554 73.9837 15.623 74.2237 15.761C74.4637 15.896 74.6572 16.079 74.8042 16.31C74.9512 16.538 75.0517 16.7975 75.1057 17.0885C75.1627 17.3795 75.1732 17.6795 75.1372 17.9885H72.0592V17.4935H74.5522L74.3452 17.6285C74.3542 17.4665 74.3452 17.3045 74.3182 17.1425C74.2942 16.9805 74.2462 16.832 74.1742 16.697C74.1022 16.559 74.0002 16.4495 73.8682 16.3685C73.7392 16.2845 73.5742 16.2425 73.3732 16.2425C73.1212 16.2425 72.9097 16.3055 72.7387 16.4315C72.5707 16.5575 72.4432 16.727 72.3562 16.94C72.2692 17.15 72.2257 17.381 72.2257 17.633V17.9795C72.2257 18.2585 72.2677 18.506 72.3517 18.722C72.4357 18.938 72.5602 19.109 72.7252 19.235C72.8932 19.358 73.1047 19.4195 73.3597 19.4195C73.6087 19.4195 73.8142 19.361 73.9762 19.244C74.1412 19.127 74.2432 18.9515 74.2822 18.7175H75.1552C75.1102 18.9995 75.0067 19.2455 74.8447 19.4555C74.6827 19.6655 74.4742 19.829 74.2192 19.946C73.9672 20.06 73.6807 20.117 73.3597 20.117ZM13.876 31V28.462C13.876 28.087 13.786 27.8035 13.606 27.6115C13.429 27.4165 13.1905 27.319 12.8905 27.319C12.5305 27.319 12.2515 27.46 12.0535 27.742C11.8585 28.024 11.761 28.429 11.761 28.957H11.3875C11.3875 28.54 11.428 28.18 11.509 27.877C11.59 27.574 11.7055 27.325 11.8555 27.13C12.0085 26.935 12.19 26.791 12.4 26.698C12.613 26.602 12.85 26.554 13.111 26.554C13.459 26.554 13.753 26.632 13.993 26.788C14.236 26.944 14.4205 27.166 14.5465 27.454C14.6725 27.739 14.7355 28.075 14.7355 28.462V31H13.876ZM7.8775 31V26.671H8.62L8.7145 27.4855C8.8525 27.1825 9.0415 26.9515 9.2815 26.7925C9.5245 26.6335 9.8095 26.554 10.1365 26.554C10.4845 26.554 10.7785 26.632 11.0185 26.788C11.2615 26.944 11.446 27.166 11.572 27.454C11.698 27.739 11.761 28.075 11.761 28.462V31H10.9105V28.462C10.9105 28.087 10.8205 27.8035 10.6405 27.6115C10.4635 27.4165 10.2235 27.319 9.9205 27.319C9.6805 27.319 9.4705 27.385 9.2905 27.517C9.1135 27.646 8.9755 27.8365 8.8765 28.0885C8.7805 28.3375 8.7325 28.642 8.7325 29.002V31H7.8775ZM17.8802 31.117C17.4872 31.117 17.1347 31.0315 16.8227 30.8605C16.5137 30.6895 16.2692 30.4345 16.0892 30.0955C15.9092 29.7565 15.8192 29.338 15.8192 28.84C15.8192 28.333 15.9092 27.9115 16.0892 27.5755C16.2692 27.2365 16.5137 26.9815 16.8227 26.8105C17.1347 26.6395 17.4872 26.554 17.8802 26.554C18.2672 26.554 18.6152 26.6395 18.9242 26.8105C19.2332 26.9815 19.4762 27.2365 19.6532 27.5755C19.8332 27.9115 19.9232 28.333 19.9232 28.84C19.9232 29.338 19.8332 29.7565 19.6532 30.0955C19.4762 30.4345 19.2332 30.6895 18.9242 30.8605C18.6152 31.0315 18.2672 31.117 17.8802 31.117ZM17.8532 30.37C18.1022 30.37 18.3167 30.31 18.4967 30.19C18.6797 30.07 18.8192 29.896 18.9152 29.668C19.0142 29.437 19.0637 29.161 19.0637 28.84C19.0637 28.348 18.9632 27.967 18.7622 27.697C18.5642 27.427 18.2777 27.292 17.9027 27.292C17.6507 27.292 17.4332 27.3535 17.2502 27.4765C17.0702 27.5965 16.9307 27.772 16.8317 28.003C16.7357 28.231 16.6877 28.51 16.6877 28.84C16.6877 29.323 16.7882 29.6995 16.9892 29.9695C17.1902 30.2365 17.4782 30.37 17.8532 30.37ZM20.4063 26.671H21.3873L22.6068 30.2665H22.5168L23.7363 26.671H24.7173L23.0343 31H22.0848L20.4063 26.671ZM27.1857 31.117C26.8137 31.117 26.4777 31.021 26.1777 30.829C25.8777 30.637 25.6392 30.37 25.4622 30.028C25.2882 29.686 25.2012 29.29 25.2012 28.84C25.2012 28.363 25.2882 27.955 25.4622 27.616C25.6362 27.274 25.8732 27.0115 26.1732 26.8285C26.4732 26.6455 26.8107 26.554 27.1857 26.554C27.5217 26.554 27.8097 26.623 28.0497 26.761C28.2897 26.896 28.4832 27.079 28.6302 27.31C28.7772 27.538 28.8777 27.7975 28.9317 28.0885C28.9887 28.3795 28.9992 28.6795 28.9632 28.9885H25.8852V28.4935H28.3782L28.1712 28.6285C28.1802 28.4665 28.1712 28.3045 28.1442 28.1425C28.1202 27.9805 28.0722 27.832 28.0002 27.697C27.9282 27.559 27.8262 27.4495 27.6942 27.3685C27.5652 27.2845 27.4002 27.2425 27.1992 27.2425C26.9472 27.2425 26.7357 27.3055 26.5647 27.4315C26.3967 27.5575 26.2692 27.727 26.1822 27.94C26.0952 28.15 26.0517 28.381 26.0517 28.633V28.9795C26.0517 29.2585 26.0937 29.506 26.1777 29.722C26.2617 29.938 26.3862 30.109 26.5512 30.235C26.7192 30.358 26.9307 30.4195 27.1857 30.4195C27.4347 30.4195 27.6402 30.361 27.8022 30.244C27.9672 30.127 28.0692 29.9515 28.1082 29.7175H28.9812C28.9362 29.9995 28.8327 30.2455 28.6707 30.4555C28.5087 30.6655 28.3002 30.829 28.0452 30.946C27.7932 31.06 27.5067 31.117 27.1857 31.117ZM36.2173 31V28.462C36.2173 28.087 36.1273 27.8035 35.9473 27.6115C35.7703 27.4165 35.5318 27.319 35.2318 27.319C34.8718 27.319 34.5928 27.46 34.3948 27.742C34.1998 28.024 34.1023 28.429 34.1023 28.957H33.7288C33.7288 28.54 33.7693 28.18 33.8503 27.877C33.9313 27.574 34.0468 27.325 34.1968 27.13C34.3498 26.935 34.5313 26.791 34.7413 26.698C34.9543 26.602 35.1913 26.554 35.4523 26.554C35.8003 26.554 36.0943 26.632 36.3343 26.788C36.5773 26.944 36.7618 27.166 36.8878 27.454C37.0138 27.739 37.0768 28.075 37.0768 28.462V31H36.2173ZM30.2188 31V26.671H30.9613L31.0558 27.4855C31.1938 27.1825 31.3828 26.9515 31.6228 26.7925C31.8658 26.6335 32.1508 26.554 32.4778 26.554C32.8258 26.554 33.1198 26.632 33.3598 26.788C33.6028 26.944 33.7873 27.166 33.9133 27.454C34.0393 27.739 34.1023 28.075 34.1023 28.462V31H33.2518V28.462C33.2518 28.087 33.1618 27.8035 32.9818 27.6115C32.8048 27.4165 32.5648 27.319 32.2618 27.319C32.0218 27.319 31.8118 27.385 31.6318 27.517C31.4548 27.646 31.3168 27.8365 31.2178 28.0885C31.1218 28.3375 31.0738 28.642 31.0738 29.002V31H30.2188ZM40.145 31.117C39.773 31.117 39.437 31.021 39.137 30.829C38.837 30.637 38.5985 30.37 38.4215 30.028C38.2475 29.686 38.1605 29.29 38.1605 28.84C38.1605 28.363 38.2475 27.955 38.4215 27.616C38.5955 27.274 38.8325 27.0115 39.1325 26.8285C39.4325 26.6455 39.77 26.554 40.145 26.554C40.481 26.554 40.769 26.623 41.009 26.761C41.249 26.896 41.4425 27.079 41.5895 27.31C41.7365 27.538 41.837 27.7975 41.891 28.0885C41.948 28.3795 41.9585 28.6795 41.9225 28.9885H38.8445V28.4935H41.3375L41.1305 28.6285C41.1395 28.4665 41.1305 28.3045 41.1035 28.1425C41.0795 27.9805 41.0315 27.832 40.9595 27.697C40.8875 27.559 40.7855 27.4495 40.6535 27.3685C40.5245 27.2845 40.3595 27.2425 40.1585 27.2425C39.9065 27.2425 39.695 27.3055 39.524 27.4315C39.356 27.5575 39.2285 27.727 39.1415 27.94C39.0545 28.15 39.011 28.381 39.011 28.633V28.9795C39.011 29.2585 39.053 29.506 39.137 29.722C39.221 29.938 39.3455 30.109 39.5105 30.235C39.6785 30.358 39.89 30.4195 40.145 30.4195C40.394 30.4195 40.5995 30.361 40.7615 30.244C40.9265 30.127 41.0285 29.9515 41.0675 29.7175H41.9405C41.8955 29.9995 41.792 30.2455 41.63 30.4555C41.468 30.6655 41.2595 30.829 41.0045 30.946C40.7525 31.06 40.466 31.117 40.145 31.117ZM46.211 31V28.462C46.211 28.087 46.121 27.8035 45.941 27.6115C45.764 27.4165 45.524 27.319 45.221 27.319C44.981 27.319 44.771 27.385 44.591 27.517C44.414 27.646 44.276 27.8365 44.177 28.0885C44.081 28.3375 44.033 28.642 44.033 29.002H43.727C43.727 28.471 43.7945 28.024 43.9295 27.661C44.0675 27.298 44.264 27.0235 44.519 26.8375C44.774 26.6485 45.08 26.554 45.437 26.554C45.785 26.554 46.079 26.632 46.319 26.788C46.562 26.944 46.7465 27.166 46.8725 27.454C46.9985 27.739 47.0615 28.075 47.0615 28.462V31H46.211ZM43.178 31V26.671H43.9205L44.033 27.607V31H43.178ZM49.9803 31.117C49.7343 31.117 49.5123 31.0705 49.3143 30.9775C49.1163 30.8845 48.9588 30.745 48.8418 30.559C48.7278 30.37 48.6708 30.133 48.6708 29.848V25.492H49.5213V29.821C49.5213 30.229 49.7118 30.433 50.0928 30.433C50.2098 30.433 50.3238 30.421 50.4348 30.397C50.5458 30.37 50.6718 30.331 50.8128 30.28L50.9343 30.8875C50.7753 30.9535 50.6178 31.0075 50.4618 31.0495C50.3088 31.0945 50.1483 31.117 49.9803 31.117ZM48.0093 27.2515V26.671H50.8038V27.2515H48.0093ZM53.5289 31.117C53.1089 31.117 52.7549 31.0585 52.4669 30.9415C52.1789 30.8215 51.9584 30.6565 51.8054 30.4465C51.6554 30.2335 51.5774 29.9845 51.5714 29.6995H52.3769C52.3889 29.9485 52.4879 30.133 52.6739 30.253C52.8629 30.373 53.1179 30.433 53.4389 30.433C53.6099 30.433 53.7644 30.406 53.9024 30.352C54.0434 30.298 54.1544 30.2245 54.2354 30.1315C54.3194 30.0385 54.3614 29.9335 54.3614 29.8165C54.3614 29.6695 54.3074 29.554 54.1994 29.47C54.0914 29.383 53.9174 29.3065 53.6774 29.2405L52.7909 28.939C52.4369 28.819 52.1654 28.66 51.9764 28.462C51.7874 28.261 51.6929 28.021 51.6929 27.742C51.6929 27.385 51.8519 27.0985 52.1699 26.8825C52.4879 26.6635 52.9094 26.554 53.4344 26.554C53.9774 26.554 54.3959 26.6695 54.6899 26.9005C54.9869 27.1285 55.1414 27.415 55.1534 27.76H54.3299C54.3089 27.589 54.2234 27.4585 54.0734 27.3685C53.9264 27.2755 53.7134 27.229 53.4344 27.229C53.1734 27.229 52.9679 27.286 52.8179 27.4C52.6709 27.514 52.5974 27.643 52.5974 27.787C52.5974 28.045 52.8194 28.237 53.2634 28.363L54.1949 28.6915C54.5489 28.8055 54.8219 28.9525 55.0139 29.1325C55.2059 29.3125 55.3019 29.5405 55.3019 29.8165C55.3019 30.0385 55.2284 30.2485 55.0814 30.4465C54.9344 30.6445 54.7274 30.8065 54.4604 30.9325C54.1964 31.0555 53.8859 31.117 53.5289 31.117ZM60.0719 31.117C59.8259 31.117 59.6039 31.0705 59.4059 30.9775C59.2079 30.8845 59.0504 30.745 58.9334 30.559C58.8194 30.37 58.7624 30.133 58.7624 29.848V25.492H59.6129V29.821C59.6129 30.229 59.8034 30.433 60.1844 30.433C60.3014 30.433 60.4154 30.421 60.5264 30.397C60.6374 30.37 60.7634 30.331 60.9044 30.28L61.0259 30.8875C60.8669 30.9535 60.7094 31.0075 60.5534 31.0495C60.4004 31.0945 60.2399 31.117 60.0719 31.117ZM58.1009 27.2515V26.671H60.8954V27.2515H58.1009ZM65.0695 31V28.462C65.0695 28.087 64.9795 27.8035 64.7995 27.6115C64.6225 27.4165 64.3825 27.319 64.0795 27.319C63.8395 27.319 63.6295 27.385 63.4495 27.517C63.2725 27.646 63.1345 27.8365 63.0355 28.0885C62.9395 28.3375 62.8915 28.642 62.8915 29.002H62.5855C62.5855 28.471 62.653 28.024 62.788 27.661C62.926 27.298 63.1225 27.0235 63.3775 26.8375C63.6325 26.6485 63.9385 26.554 64.2955 26.554C64.6435 26.554 64.9375 26.632 65.1775 26.788C65.4205 26.944 65.605 27.166 65.731 27.454C65.857 27.739 65.92 28.075 65.92 28.462V31H65.0695ZM62.0365 31V24.8485H62.8915V31H62.0365ZM70.1618 31L70.0538 30.0055V28.201C70.0538 27.847 69.9803 27.5905 69.8333 27.4315C69.6863 27.2695 69.4538 27.1885 69.1358 27.1885C68.9558 27.1885 68.7953 27.2155 68.6543 27.2695C68.5163 27.3205 68.4068 27.3985 68.3258 27.5035C68.2478 27.6085 68.2088 27.7405 68.2088 27.8995H67.2638C67.2638 27.5815 67.3418 27.3235 67.4978 27.1255C67.6538 26.9275 67.8713 26.7835 68.1503 26.6935C68.4323 26.6005 68.7608 26.554 69.1358 26.554C69.4868 26.554 69.7958 26.6125 70.0628 26.7295C70.3298 26.8435 70.5368 27.0235 70.6838 27.2695C70.8338 27.5155 70.9088 27.8335 70.9088 28.2235V31H70.1618ZM68.7128 31.117C68.3498 31.117 68.0483 31.054 67.8083 30.928C67.5683 30.799 67.3883 30.631 67.2683 30.424C67.1513 30.217 67.0928 29.9965 67.0928 29.7625C67.0928 29.4775 67.1648 29.2435 67.3088 29.0605C67.4558 28.8745 67.6583 28.7365 67.9163 28.6465C68.1743 28.5565 68.4713 28.5115 68.8073 28.5115C69.0383 28.5115 69.2633 28.5325 69.4823 28.5745C69.7013 28.6165 69.9173 28.672 70.1303 28.741V29.2585C69.9563 29.1955 69.7628 29.146 69.5498 29.11C69.3398 29.071 69.1433 29.0515 68.9603 29.0515C68.6873 29.0515 68.4593 29.1055 68.2763 29.2135C68.0933 29.3215 68.0018 29.5045 68.0018 29.7625C68.0018 29.9515 68.0738 30.115 68.2178 30.253C68.3618 30.388 68.5898 30.4555 68.9018 30.4555C69.1298 30.4555 69.3308 30.4045 69.5048 30.3025C69.6788 30.1975 69.8138 30.067 69.9098 29.911C70.0058 29.755 70.0538 29.599 70.0538 29.443H70.2608C70.2608 29.743 70.1993 30.0205 70.0763 30.2755C69.9563 30.5275 69.7808 30.7315 69.5498 30.8875C69.3188 31.0405 69.0398 31.117 68.7128 31.117ZM73.8287 31.117C73.5827 31.117 73.3607 31.0705 73.1627 30.9775C72.9647 30.8845 72.8072 30.745 72.6902 30.559C72.5762 30.37 72.5192 30.133 72.5192 29.848V25.492H73.3697V29.821C73.3697 30.229 73.5602 30.433 73.9412 30.433C74.0582 30.433 74.1722 30.421 74.2832 30.397C74.3942 30.37 74.5202 30.331 74.6612 30.28L74.7827 30.8875C74.6237 30.9535 74.4662 31.0075 74.3102 31.0495C74.1572 31.0945 73.9967 31.117 73.8287 31.117ZM71.8577 27.2515V26.671H74.6522V27.2515H71.8577ZM9.466 42.126C9.046 42.126 8.6845 42.069 8.3815 41.955C8.0815 41.838 7.8505 41.6715 7.6885 41.4555C7.5265 41.2365 7.444 40.974 7.441 40.668H8.422C8.431 40.884 8.5165 41.0415 8.6785 41.1405C8.8405 41.2395 9.061 41.289 9.34 41.289C9.493 41.289 9.628 41.2665 9.745 41.2215C9.865 41.1765 9.958 41.115 10.024 41.037C10.09 40.959 10.123 40.872 10.123 40.776C10.123 40.653 10.078 40.557 9.988 40.488C9.901 40.416 9.76 40.35 9.565 40.29L8.611 39.948C8.269 39.825 8.0065 39.663 7.8235 39.462C7.6405 39.261 7.549 39.021 7.549 38.742C7.549 38.373 7.7155 38.076 8.0485 37.851C8.3845 37.623 8.833 37.509 9.394 37.509C9.952 37.509 10.3825 37.632 10.6855 37.878C10.9915 38.121 11.149 38.43 11.158 38.805H10.159C10.144 38.661 10.075 38.547 9.952 38.463C9.829 38.379 9.643 38.337 9.394 38.337C9.169 38.337 8.992 38.3835 8.863 38.4765C8.737 38.5665 8.674 38.673 8.674 38.796C8.674 39.003 8.851 39.159 9.205 39.264L10.24 39.651C10.576 39.765 10.837 39.912 11.023 40.092C11.209 40.272 11.302 40.5 11.302 40.776C11.302 41.007 11.224 41.226 11.068 41.433C10.915 41.637 10.7005 41.8035 10.4245 41.9325C10.1485 42.0615 9.829 42.126 9.466 42.126ZM15.4811 42V39.444C15.4811 39.12 15.4031 38.8755 15.2471 38.7105C15.0911 38.5455 14.8871 38.463 14.6351 38.463C14.4221 38.463 14.2331 38.5215 14.0681 38.6385C13.9061 38.7555 13.7786 38.9325 13.6856 39.1695C13.5926 39.4035 13.5461 39.696 13.5461 40.047H13.1951C13.1951 39.48 13.2656 39.009 13.4066 38.634C13.5476 38.256 13.7471 37.974 14.0051 37.788C14.2631 37.602 14.5661 37.509 14.9141 37.509C15.2741 37.509 15.5741 37.59 15.8141 37.752C16.0571 37.911 16.2386 38.136 16.3586 38.427C16.4816 38.718 16.5431 39.057 16.5431 39.444V42H15.4811ZM12.4841 42V35.826H13.5461V42H12.4841ZM20.7735 42L20.6385 40.938V39.183C20.6385 38.877 20.5755 38.6505 20.4495 38.5035C20.3265 38.3565 20.1165 38.283 19.8195 38.283C19.6485 38.283 19.5 38.3085 19.374 38.3595C19.248 38.4105 19.1505 38.484 19.0815 38.58C19.0155 38.673 18.9825 38.787 18.9825 38.922H17.8215C17.8215 38.592 17.901 38.3235 18.06 38.1165C18.219 37.9065 18.447 37.7535 18.744 37.6575C19.044 37.5585 19.4025 37.509 19.8195 37.509C20.1975 37.509 20.5275 37.5705 20.8095 37.6935C21.0915 37.8135 21.3105 37.9995 21.4665 38.2515C21.6225 38.5035 21.7005 38.826 21.7005 39.219V42H20.7735ZM19.3425 42.126C18.9675 42.126 18.654 42.0615 18.402 41.9325C18.153 41.8005 17.9655 41.628 17.8395 41.415C17.7135 41.202 17.6505 40.971 17.6505 40.722C17.6505 40.446 17.7225 40.215 17.8665 40.029C18.0135 39.84 18.2205 39.699 18.4875 39.606C18.7545 39.51 19.0695 39.462 19.4325 39.462C19.6695 39.462 19.893 39.48 20.103 39.516C20.316 39.552 20.5275 39.6 20.7375 39.66V40.281C20.5725 40.227 20.3925 40.185 20.1975 40.155C20.0025 40.125 19.8195 40.11 19.6485 40.11C19.3965 40.11 19.1895 40.1565 19.0275 40.2495C18.8655 40.3425 18.7845 40.5 18.7845 40.722C18.7845 40.884 18.8505 41.0235 18.9825 41.1405C19.1145 41.2575 19.3245 41.316 19.6125 41.316C19.8315 41.316 20.0175 41.268 20.1705 41.172C20.3235 41.076 20.439 40.956 20.517 40.812C20.598 40.668 20.6385 40.524 20.6385 40.38H20.8905C20.8905 40.695 20.832 40.986 20.715 41.253C20.598 41.517 20.424 41.7285 20.193 41.8875C19.965 42.0465 19.6815 42.126 19.3425 42.126ZM25.3452 42.126C25.0242 42.126 24.7512 42.057 24.5262 41.919C24.3012 41.781 24.1287 41.5725 24.0087 41.2935C23.8917 41.0115 23.8332 40.659 23.8332 40.236H24.2202C24.2202 40.431 24.2652 40.5975 24.3552 40.7355C24.4452 40.8735 24.5637 40.98 24.7107 41.055C24.8607 41.127 25.0212 41.163 25.1922 41.163C25.3692 41.163 25.5432 41.115 25.7142 41.019C25.8882 40.92 26.0322 40.7715 26.1462 40.5735C26.2602 40.3725 26.3172 40.119 26.3172 39.813C26.3172 39.534 26.2692 39.294 26.1732 39.093C26.0772 38.889 25.9452 38.733 25.7772 38.625C25.6122 38.517 25.4232 38.463 25.2102 38.463C25.0302 38.463 24.8652 38.5035 24.7152 38.5845C24.5652 38.6655 24.4452 38.784 24.3552 38.94C24.2652 39.093 24.2202 39.279 24.2202 39.498H23.8332C23.8332 39.039 23.9037 38.664 24.0447 38.373C24.1857 38.079 24.3747 37.8615 24.6117 37.7205C24.8487 37.5795 25.1082 37.509 25.3902 37.509C25.7352 37.509 26.0592 37.6005 26.3622 37.7835C26.6682 37.9665 26.9157 38.2305 27.1047 38.5755C27.2937 38.9175 27.3882 39.33 27.3882 39.813C27.3882 40.299 27.2922 40.7145 27.1002 41.0595C26.9082 41.4045 26.6562 41.6685 26.3442 41.8515C26.0352 42.0345 25.7022 42.126 25.3452 42.126ZM23.1582 44.133V37.635H24.0312L24.2202 38.715V44.133H23.1582ZM30.1813 42.126C29.8093 42.126 29.4688 42.03 29.1598 41.838C28.8508 41.646 28.6033 41.3775 28.4173 41.0325C28.2313 40.6845 28.1383 40.278 28.1383 39.813C28.1383 39.333 28.2298 38.9205 28.4128 38.5755C28.5988 38.2305 28.8463 37.9665 29.1553 37.7835C29.4643 37.6005 29.8063 37.509 30.1813 37.509C30.5293 37.509 30.8293 37.5795 31.0813 37.7205C31.3363 37.8585 31.5403 38.0475 31.6933 38.2875C31.8493 38.5245 31.9543 38.793 32.0083 39.093C32.0623 39.393 32.0653 39.702 32.0173 40.02H28.9843V39.444H31.2658L31.0588 39.579C31.0678 39.438 31.0603 39.2955 31.0363 39.1515C31.0153 39.0075 30.9733 38.8755 30.9103 38.7555C30.8473 38.6355 30.7573 38.5395 30.6403 38.4675C30.5263 38.3925 30.3793 38.355 30.1993 38.355C29.9833 38.355 29.8003 38.409 29.6503 38.517C29.5003 38.625 29.3863 38.772 29.3083 38.958C29.2303 39.144 29.1913 39.354 29.1913 39.588V40.011C29.1913 40.257 29.2273 40.4745 29.2993 40.6635C29.3743 40.8525 29.4838 41.001 29.6278 41.109C29.7748 41.217 29.9593 41.271 30.1813 41.271C30.3883 41.271 30.5623 41.223 30.7033 41.127C30.8443 41.031 30.9343 40.887 30.9733 40.695H32.0443C31.9993 40.977 31.8928 41.226 31.7248 41.442C31.5598 41.655 31.3453 41.823 31.0813 41.946C30.8173 42.066 30.5173 42.126 30.1813 42.126ZM35.3762 42L35.7812 37.698H36.3302C36.3302 37.836 36.3287 37.9755 36.3257 38.1165C36.3227 38.2545 36.3212 38.394 36.3212 38.535C36.4742 38.229 36.6677 37.995 36.9017 37.833C37.1387 37.671 37.4072 37.59 37.7072 37.59C38.0432 37.59 38.3177 37.68 38.5307 37.86C38.7437 38.04 38.8862 38.295 38.9582 38.625C39.1142 38.271 39.3152 38.01 39.5612 37.842C39.8102 37.674 40.0907 37.59 40.4027 37.59C40.7087 37.59 40.9637 37.665 41.1677 37.815C41.3717 37.965 41.5187 38.181 41.6087 38.463C41.6987 38.742 41.7242 39.078 41.6852 39.471L41.4512 42H40.8212L41.0597 39.471C41.0957 39.069 41.0357 38.76 40.8797 38.544C40.7267 38.328 40.5002 38.22 40.2002 38.22C39.9602 38.22 39.7532 38.2875 39.5792 38.4225C39.4082 38.5575 39.2702 38.751 39.1652 39.003C39.0632 39.255 38.9912 39.558 38.9492 39.912L38.7602 42H38.1302L38.3642 39.471C38.4062 39.057 38.3462 38.745 38.1842 38.535C38.0222 38.325 37.7987 38.22 37.5137 38.22C37.1507 38.22 36.8537 38.376 36.6227 38.688C36.3947 38.997 36.2552 39.423 36.2042 39.966L36.0152 42H35.3762ZM44.1855 42.099C43.8465 42.099 43.5525 42.009 43.3035 41.829C43.0545 41.649 42.87 41.3925 42.75 41.0595C42.63 40.7235 42.5925 40.323 42.6375 39.858C42.6825 39.387 42.7965 38.982 42.9795 38.643C43.1625 38.304 43.3935 38.0445 43.6725 37.8645C43.9545 37.6815 44.2635 37.59 44.5995 37.59C44.8485 37.59 45.063 37.638 45.243 37.734C45.426 37.827 45.5745 37.9575 45.6885 38.1255C45.8055 38.2905 45.8895 38.481 45.9405 38.697C45.9915 38.913 46.0095 39.144 45.9945 39.39C45.9915 39.483 45.9825 39.582 45.9675 39.687C45.9555 39.792 45.9375 39.897 45.9135 40.002H43.056L43.2765 39.8535C43.2405 40.1655 43.248 40.449 43.299 40.704C43.35 40.956 43.452 41.1555 43.605 41.3025C43.761 41.4495 43.974 41.523 44.244 41.523C44.487 41.523 44.6955 41.457 44.8695 41.325C45.0435 41.19 45.1605 40.995 45.2205 40.74H45.8775C45.8085 41.028 45.6915 41.274 45.5265 41.478C45.3645 41.679 45.168 41.8335 44.937 41.9415C44.706 42.0465 44.4555 42.099 44.1855 42.099ZM43.29 39.651L43.119 39.5475H45.594L45.3735 39.6285C45.4095 39.3735 45.411 39.135 45.378 38.913C45.345 38.688 45.264 38.5065 45.135 38.3685C45.009 38.2275 44.8185 38.157 44.5635 38.157C44.3175 38.157 44.1045 38.226 43.9245 38.364C43.7475 38.499 43.605 38.6805 43.497 38.9085C43.392 39.1335 43.323 39.381 43.29 39.651ZM46.9116 42L47.3166 37.698H47.8656C47.8656 37.836 47.8641 37.9755 47.8611 38.1165C47.8581 38.2545 47.8566 38.394 47.8566 38.535C48.0096 38.229 48.2031 37.995 48.4371 37.833C48.6741 37.671 48.9426 37.59 49.2426 37.59C49.5786 37.59 49.8531 37.68 50.0661 37.86C50.2791 38.04 50.4216 38.295 50.4936 38.625C50.6496 38.271 50.8506 38.01 51.0966 37.842C51.3456 37.674 51.6261 37.59 51.9381 37.59C52.2441 37.59 52.4991 37.665 52.7031 37.815C52.9071 37.965 53.0541 38.181 53.1441 38.463C53.2341 38.742 53.2596 39.078 53.2206 39.471L52.9866 42H52.3566L52.5951 39.471C52.6311 39.069 52.5711 38.76 52.4151 38.544C52.2621 38.328 52.0356 38.22 51.7356 38.22C51.4956 38.22 51.2886 38.2875 51.1146 38.4225C50.9436 38.5575 50.8056 38.751 50.7006 39.003C50.5986 39.255 50.5266 39.558 50.4846 39.912L50.2956 42H49.6656L49.8996 39.471C49.9416 39.057 49.8816 38.745 49.7196 38.535C49.5576 38.325 49.3341 38.22 49.0491 38.22C48.6861 38.22 48.3891 38.376 48.1581 38.688C47.9301 38.997 47.7906 39.423 47.7396 39.966L47.5506 42H46.9116ZM55.7704 42.099C55.4194 42.099 55.1149 42.0135 54.8569 41.8425C54.5989 41.6715 54.4084 41.4195 54.2854 41.0865C54.1624 40.7505 54.1249 40.338 54.1729 39.849C54.2209 39.354 54.3379 38.94 54.5239 38.607C54.7129 38.271 54.9514 38.0175 55.2394 37.8465C55.5304 37.6755 55.8499 37.59 56.1979 37.59C56.5489 37.59 56.8519 37.677 57.1069 37.851C57.3619 38.025 57.5509 38.28 57.6739 38.616C57.7999 38.949 57.8389 39.36 57.7909 39.849C57.7429 40.338 57.6244 40.7505 57.4354 41.0865C57.2494 41.4195 57.0124 41.6715 56.7244 41.8425C56.4394 42.0135 56.1214 42.099 55.7704 42.099ZM55.8019 41.487C56.1769 41.487 56.4814 41.3415 56.7154 41.0505C56.9494 40.7565 57.0919 40.356 57.1429 39.849C57.1939 39.336 57.1339 38.934 56.9629 38.643C56.7949 38.349 56.5234 38.202 56.1484 38.202C55.7764 38.202 55.4764 38.3475 55.2484 38.6385C55.0234 38.9265 54.8854 39.33 54.8344 39.849C54.8014 40.182 54.8149 40.4715 54.8749 40.7175C54.9349 40.9635 55.0414 41.154 55.1944 41.289C55.3504 41.421 55.5529 41.487 55.8019 41.487ZM58.7018 42L59.1068 37.689H59.7458L59.6648 38.508C59.7998 38.202 59.9603 37.977 60.1463 37.833C60.3353 37.689 60.5513 37.617 60.7943 37.617C60.8573 37.617 60.9263 37.623 61.0013 37.635C61.0763 37.644 61.1498 37.665 61.2218 37.698L61.1228 38.391C61.0418 38.364 60.9578 38.343 60.8708 38.328C60.7868 38.31 60.7043 38.301 60.6233 38.301C60.3953 38.301 60.2048 38.3745 60.0518 38.5215C59.8988 38.6655 59.7788 38.8695 59.6918 39.1335C59.6048 39.3945 59.5463 39.702 59.5163 40.056L59.3408 42H58.7018ZM61.6608 44.214C61.4958 44.214 61.3383 44.187 61.1883 44.133C61.0413 44.079 60.8928 44.001 60.7428 43.899L60.8058 43.251C60.9318 43.371 61.0593 43.458 61.1883 43.512C61.3173 43.566 61.4538 43.593 61.5978 43.593C61.7598 43.593 61.9008 43.536 62.0208 43.422C62.1438 43.311 62.2488 43.167 62.3358 42.99C62.4258 42.816 62.5038 42.633 62.5698 42.441L62.7318 42L61.5528 37.698H62.2638L63.1098 41.118L64.3518 37.698H64.9998L63.0648 42.855C62.9538 43.146 62.8293 43.392 62.6913 43.593C62.5533 43.797 62.3988 43.9515 62.2278 44.0565C62.0598 44.1615 61.8708 44.214 61.6608 44.214ZM65.5852 43.0845L64.9462 42.765C65.1292 42.672 65.2867 42.5685 65.4187 42.4545C65.5507 42.3405 65.6377 42.204 65.6797 42.045C65.5357 42.024 65.4127 41.9685 65.3107 41.8785C65.2087 41.7885 65.1577 41.67 65.1577 41.523C65.1577 41.373 65.2132 41.247 65.3242 41.145C65.4382 41.04 65.5822 40.9875 65.7562 40.9875C65.9752 40.9875 66.1492 41.0655 66.2782 41.2215C66.4102 41.3775 66.4762 41.5635 66.4762 41.7795C66.4762 42.0285 66.3982 42.2715 66.2422 42.5085C66.0892 42.7485 65.8702 42.9405 65.5852 43.0845ZM7.81 53L8.215 48.698H8.764C8.764 48.836 8.7625 48.9755 8.7595 49.1165C8.7565 49.2545 8.755 49.394 8.755 49.535C8.908 49.229 9.1015 48.995 9.3355 48.833C9.5725 48.671 9.841 48.59 10.141 48.59C10.477 48.59 10.7515 48.68 10.9645 48.86C11.1775 49.04 11.32 49.295 11.392 49.625C11.548 49.271 11.749 49.01 11.995 48.842C12.244 48.674 12.5245 48.59 12.8365 48.59C13.1425 48.59 13.3975 48.665 13.6015 48.815C13.8055 48.965 13.9525 49.181 14.0425 49.463C14.1325 49.742 14.158 50.078 14.119 50.471L13.885 53H13.255L13.4935 50.471C13.5295 50.069 13.4695 49.76 13.3135 49.544C13.1605 49.328 12.934 49.22 12.634 49.22C12.394 49.22 12.187 49.2875 12.013 49.4225C11.842 49.5575 11.704 49.751 11.599 50.003C11.497 50.255 11.425 50.558 11.383 50.912L11.194 53H10.564L10.798 50.471C10.84 50.057 10.78 49.745 10.618 49.535C10.456 49.325 10.2325 49.22 9.9475 49.22C9.5845 49.22 9.2875 49.376 9.0565 49.688C8.8285 49.997 8.689 50.423 8.638 50.966L8.449 53H7.81ZM16.4124 53.099C16.1124 53.099 15.8649 53.036 15.6699 52.91C15.4749 52.784 15.3339 52.622 15.2469 52.424C15.1629 52.223 15.1314 52.013 15.1524 51.794C15.1824 51.503 15.2724 51.2645 15.4224 51.0785C15.5724 50.8925 15.7659 50.7545 16.0029 50.6645C16.2399 50.5715 16.4994 50.525 16.7814 50.525C16.9704 50.525 17.1594 50.546 17.3484 50.588C17.5404 50.627 17.7204 50.684 17.8884 50.759L17.9424 50.21C17.9844 49.823 17.9379 49.5455 17.8029 49.3775C17.6679 49.2065 17.4534 49.121 17.1594 49.121C16.9914 49.121 16.8369 49.148 16.6959 49.202C16.5549 49.256 16.4394 49.34 16.3494 49.454C16.2624 49.565 16.2114 49.709 16.1964 49.886H15.4854C15.5154 49.565 15.6114 49.31 15.7734 49.121C15.9384 48.932 16.1424 48.797 16.3854 48.716C16.6314 48.632 16.8894 48.59 17.1594 48.59C17.6484 48.59 18.0189 48.7205 18.2709 48.9815C18.5259 49.2395 18.6264 49.655 18.5724 50.228L18.3114 53H17.7624C17.7624 52.877 17.7639 52.757 17.7669 52.64C17.7699 52.52 17.7714 52.4 17.7714 52.28C17.6244 52.556 17.4324 52.7615 17.1954 52.8965C16.9584 53.0315 16.6974 53.099 16.4124 53.099ZM16.5339 52.55C16.7529 52.55 16.9614 52.496 17.1594 52.388C17.3574 52.277 17.5194 52.121 17.6454 51.92C17.7744 51.719 17.8404 51.482 17.8434 51.209C17.6784 51.155 17.5074 51.1115 17.3304 51.0785C17.1534 51.0455 16.9854 51.029 16.8264 51.029C16.5654 51.029 16.3404 51.086 16.1514 51.2C15.9624 51.311 15.8544 51.509 15.8274 51.794C15.8094 52.004 15.8574 52.1825 15.9714 52.3295C16.0884 52.4765 16.2759 52.55 16.5339 52.55ZM20.9025 53.099C20.6895 53.099 20.5035 53.0555 20.3445 52.9685C20.1855 52.8815 20.067 52.748 19.989 52.568C19.914 52.388 19.8885 52.16 19.9125 51.884L20.1735 49.0355L20.358 49.175H19.5255L19.5885 48.698H20.403L20.178 48.9005L20.3175 47.501H20.9565L20.817 48.9005L20.637 48.698H22.0545L22.0005 49.175H20.583L20.8035 49.0355L20.5335 51.875C20.5125 52.094 20.5455 52.259 20.6325 52.37C20.7195 52.478 20.8545 52.532 21.0375 52.532C21.1395 52.532 21.2445 52.5185 21.3525 52.4915C21.4635 52.4645 21.5835 52.424 21.7125 52.37L21.7575 52.874C21.6105 52.946 21.4665 53.0015 21.3255 53.0405C21.1875 53.0795 21.0465 53.099 20.9025 53.099ZM23.9976 53.099C23.6586 53.099 23.3646 53.009 23.1156 52.829C22.8666 52.649 22.6821 52.3925 22.5621 52.0595C22.4421 51.7235 22.4046 51.323 22.4496 50.858C22.4946 50.387 22.6086 49.982 22.7916 49.643C22.9746 49.304 23.2056 49.0445 23.4846 48.8645C23.7666 48.6815 24.0756 48.59 24.4116 48.59C24.6606 48.59 24.8751 48.638 25.0551 48.734C25.2381 48.827 25.3866 48.9575 25.5006 49.1255C25.6176 49.2905 25.7016 49.481 25.7526 49.697C25.8036 49.913 25.8216 50.144 25.8066 50.39C25.8036 50.483 25.7946 50.582 25.7796 50.687C25.7676 50.792 25.7496 50.897 25.7256 51.002H22.8681L23.0886 50.8535C23.0526 51.1655 23.0601 51.449 23.1111 51.704C23.1621 51.956 23.2641 52.1555 23.4171 52.3025C23.5731 52.4495 23.7861 52.523 24.0561 52.523C24.2991 52.523 24.5076 52.457 24.6816 52.325C24.8556 52.19 24.9726 51.995 25.0326 51.74H25.6896C25.6206 52.028 25.5036 52.274 25.3386 52.478C25.1766 52.679 24.9801 52.8335 24.7491 52.9415C24.5181 53.0465 24.2676 53.099 23.9976 53.099ZM23.1021 50.651L22.9311 50.5475H25.4061L25.1856 50.6285C25.2216 50.3735 25.2231 50.135 25.1901 49.913C25.1571 49.688 25.0761 49.5065 24.9471 49.3685C24.8211 49.2275 24.6306 49.157 24.3756 49.157C24.1296 49.157 23.9166 49.226 23.7366 49.364C23.5596 49.499 23.4171 49.6805 23.3091 49.9085C23.2041 50.1335 23.1351 50.381 23.1021 50.651ZM26.7236 53L27.1286 48.689H27.7676L27.6866 49.508C27.8216 49.202 27.9821 48.977 28.1681 48.833C28.3571 48.689 28.5731 48.617 28.8161 48.617C28.8791 48.617 28.9481 48.623 29.0231 48.635C29.0981 48.644 29.1716 48.665 29.2436 48.698L29.1446 49.391C29.0636 49.364 28.9796 49.343 28.8926 49.328C28.8086 49.31 28.7261 49.301 28.6451 49.301C28.4171 49.301 28.2266 49.3745 28.0736 49.5215C27.9206 49.6655 27.8006 49.8695 27.7136 50.1335C27.6266 50.3945 27.5681 50.702 27.5381 51.056L27.3626 53H26.7236ZM30.578 47.681C30.449 47.681 30.3515 47.6405 30.2855 47.5595C30.2195 47.4785 30.191 47.372 30.2 47.24C30.212 47.117 30.257 47.012 30.335 46.925C30.416 46.835 30.524 46.79 30.659 46.79C30.791 46.79 30.89 46.832 30.956 46.916C31.025 47 31.0535 47.108 31.0415 47.24C31.0295 47.378 30.98 47.486 30.893 47.564C30.809 47.642 30.704 47.681 30.578 47.681ZM29.7545 53L30.1595 48.689H30.7985L30.3935 53H29.7545ZM33.1615 53.099C32.8615 53.099 32.614 53.036 32.419 52.91C32.224 52.784 32.083 52.622 31.996 52.424C31.912 52.223 31.8805 52.013 31.9015 51.794C31.9315 51.503 32.0215 51.2645 32.1715 51.0785C32.3215 50.8925 32.515 50.7545 32.752 50.6645C32.989 50.5715 33.2485 50.525 33.5305 50.525C33.7195 50.525 33.9085 50.546 34.0975 50.588C34.2895 50.627 34.4695 50.684 34.6375 50.759L34.6915 50.21C34.7335 49.823 34.687 49.5455 34.552 49.3775C34.417 49.2065 34.2025 49.121 33.9085 49.121C33.7405 49.121 33.586 49.148 33.445 49.202C33.304 49.256 33.1885 49.34 33.0985 49.454C33.0115 49.565 32.9605 49.709 32.9455 49.886H32.2345C32.2645 49.565 32.3605 49.31 32.5225 49.121C32.6875 48.932 32.8915 48.797 33.1345 48.716C33.3805 48.632 33.6385 48.59 33.9085 48.59C34.3975 48.59 34.768 48.7205 35.02 48.9815C35.275 49.2395 35.3755 49.655 35.3215 50.228L35.0605 53H34.5115C34.5115 52.877 34.513 52.757 34.516 52.64C34.519 52.52 34.5205 52.4 34.5205 52.28C34.3735 52.556 34.1815 52.7615 33.9445 52.8965C33.7075 53.0315 33.4465 53.099 33.1615 53.099ZM33.283 52.55C33.502 52.55 33.7105 52.496 33.9085 52.388C34.1065 52.277 34.2685 52.121 34.3945 51.92C34.5235 51.719 34.5895 51.482 34.5925 51.209C34.4275 51.155 34.2565 51.1115 34.0795 51.0785C33.9025 51.0455 33.7345 51.029 33.5755 51.029C33.3145 51.029 33.0895 51.086 32.9005 51.2C32.7115 51.311 32.6035 51.509 32.5765 51.794C32.5585 52.004 32.6065 52.1825 32.7205 52.3295C32.8375 52.4765 33.025 52.55 33.283 52.55ZM36.4727 53L37.0487 46.871H37.6877L37.1117 53H36.4727ZM38.7088 54.0845L38.0698 53.765C38.2528 53.672 38.4103 53.5685 38.5423 53.4545C38.6743 53.3405 38.7613 53.204 38.8033 53.045C38.6593 53.024 38.5363 52.9685 38.4343 52.8785C38.3323 52.7885 38.2813 52.67 38.2813 52.523C38.2813 52.373 38.3368 52.247 38.4478 52.145C38.5618 52.04 38.7058 51.9875 38.8798 51.9875C39.0988 51.9875 39.2728 52.0655 39.4018 52.2215C39.5338 52.3775 39.5998 52.5635 39.5998 52.7795C39.5998 53.0285 39.5218 53.2715 39.3658 53.5085C39.2128 53.7485 38.9938 53.9405 38.7088 54.0845ZM45.4604 53L45.3524 52.0055V50.201C45.3524 49.847 45.2789 49.5905 45.1319 49.4315C44.9849 49.2695 44.7524 49.1885 44.4344 49.1885C44.2544 49.1885 44.0939 49.2155 43.9529 49.2695C43.8149 49.3205 43.7054 49.3985 43.6244 49.5035C43.5464 49.6085 43.5074 49.7405 43.5074 49.8995H42.5624C42.5624 49.5815 42.6404 49.3235 42.7964 49.1255C42.9524 48.9275 43.1699 48.7835 43.4489 48.6935C43.7309 48.6005 44.0594 48.554 44.4344 48.554C44.7854 48.554 45.0944 48.6125 45.3614 48.7295C45.6284 48.8435 45.8354 49.0235 45.9824 49.2695C46.1324 49.5155 46.2074 49.8335 46.2074 50.2235V53H45.4604ZM44.0114 53.117C43.6484 53.117 43.3469 53.054 43.1069 52.928C42.8669 52.799 42.6869 52.631 42.5669 52.424C42.4499 52.217 42.3914 51.9965 42.3914 51.7625C42.3914 51.4775 42.4634 51.2435 42.6074 51.0605C42.7544 50.8745 42.9569 50.7365 43.2149 50.6465C43.4729 50.5565 43.7699 50.5115 44.1059 50.5115C44.3369 50.5115 44.5619 50.5325 44.7809 50.5745C44.9999 50.6165 45.2159 50.672 45.4289 50.741V51.2585C45.2549 51.1955 45.0614 51.146 44.8484 51.11C44.6384 51.071 44.4419 51.0515 44.2589 51.0515C43.9859 51.0515 43.7579 51.1055 43.5749 51.2135C43.3919 51.3215 43.3004 51.5045 43.3004 51.7625C43.3004 51.9515 43.3724 52.115 43.5164 52.253C43.6604 52.388 43.8884 52.4555 44.2004 52.4555C44.4284 52.4555 44.6294 52.4045 44.8034 52.3025C44.9774 52.1975 45.1124 52.067 45.2084 51.911C45.3044 51.755 45.3524 51.599 45.3524 51.443H45.5594C45.5594 51.743 45.4979 52.0205 45.3749 52.2755C45.2549 52.5275 45.0794 52.7315 44.8484 52.8875C44.6174 53.0405 44.3384 53.117 44.0114 53.117ZM50.7697 53V50.462C50.7697 50.087 50.6797 49.8035 50.4997 49.6115C50.3227 49.4165 50.0827 49.319 49.7797 49.319C49.5397 49.319 49.3297 49.385 49.1497 49.517C48.9727 49.646 48.8347 49.8365 48.7357 50.0885C48.6397 50.3375 48.5917 50.642 48.5917 51.002H48.2857C48.2857 50.471 48.3532 50.024 48.4882 49.661C48.6262 49.298 48.8227 49.0235 49.0777 48.8375C49.3327 48.6485 49.6387 48.554 49.9957 48.554C50.3437 48.554 50.6377 48.632 50.8777 48.788C51.1207 48.944 51.3052 49.166 51.4312 49.454C51.5572 49.739 51.6202 50.075 51.6202 50.462V53H50.7697ZM47.7367 53V48.671H48.4792L48.5917 49.607V53H47.7367ZM54.719 53.117C54.365 53.117 54.0395 53.0225 53.7425 52.8335C53.4455 52.6415 53.2085 52.3745 53.0315 52.0325C52.8575 51.6875 52.7705 51.2825 52.7705 50.8175C52.7705 50.3555 52.856 49.955 53.027 49.616C53.201 49.277 53.4305 49.016 53.7155 48.833C54.0005 48.647 54.317 48.554 54.665 48.554C54.983 48.554 55.2605 48.632 55.4975 48.788C55.7345 48.941 55.9175 49.1645 56.0465 49.4585C56.1785 49.7525 56.2445 50.111 56.2445 50.534H55.9475C55.9475 50.273 55.895 50.0525 55.79 49.8725C55.685 49.6895 55.5485 49.5515 55.3805 49.4585C55.2125 49.3655 55.0325 49.319 54.8405 49.319C54.6155 49.319 54.4115 49.3805 54.2285 49.5035C54.0485 49.6235 53.9045 49.796 53.7965 50.021C53.6915 50.243 53.639 50.5085 53.639 50.8175C53.639 51.1295 53.6915 51.401 53.7965 51.632C53.9045 51.86 54.0485 52.0355 54.2285 52.1585C54.4115 52.2815 54.614 52.343 54.836 52.343C55.019 52.343 55.1945 52.295 55.3625 52.199C55.5335 52.1 55.673 51.959 55.781 51.776C55.892 51.593 55.9475 51.3755 55.9475 51.1235H56.2445C56.2445 51.5555 56.1755 51.92 56.0375 52.217C55.9025 52.514 55.7195 52.739 55.4885 52.892C55.2575 53.042 55.001 53.117 54.719 53.117ZM56.096 53L55.9475 51.9605V46.8485H56.807V53H56.096ZM7.81 64L8.215 59.698H8.764C8.764 59.836 8.7625 59.9755 8.7595 60.1165C8.7565 60.2545 8.755 60.394 8.755 60.535C8.908 60.229 9.1015 59.995 9.3355 59.833C9.5725 59.671 9.841 59.59 10.141 59.59C10.477 59.59 10.7515 59.68 10.9645 59.86C11.1775 60.04 11.32 60.295 11.392 60.625C11.548 60.271 11.749 60.01 11.995 59.842C12.244 59.674 12.5245 59.59 12.8365 59.59C13.1425 59.59 13.3975 59.665 13.6015 59.815C13.8055 59.965 13.9525 60.181 14.0425 60.463C14.1325 60.742 14.158 61.078 14.119 61.471L13.885 64H13.255L13.4935 61.471C13.5295 61.069 13.4695 60.76 13.3135 60.544C13.1605 60.328 12.934 60.22 12.634 60.22C12.394 60.22 12.187 60.2875 12.013 60.4225C11.842 60.5575 11.704 60.751 11.599 61.003C11.497 61.255 11.425 61.558 11.383 61.912L11.194 64H10.564L10.798 61.471C10.84 61.057 10.78 60.745 10.618 60.535C10.456 60.325 10.2325 60.22 9.9475 60.22C9.5845 60.22 9.2875 60.376 9.0565 60.688C8.8285 60.997 8.689 61.423 8.638 61.966L8.449 64H7.81ZM16.6194 64.099C16.2804 64.099 15.9864 64.009 15.7374 63.829C15.4884 63.649 15.3039 63.3925 15.1839 63.0595C15.0639 62.7235 15.0264 62.323 15.0714 61.858C15.1164 61.387 15.2304 60.982 15.4134 60.643C15.5964 60.304 15.8274 60.0445 16.1064 59.8645C16.3884 59.6815 16.6974 59.59 17.0334 59.59C17.2824 59.59 17.4969 59.638 17.6769 59.734C17.8599 59.827 18.0084 59.9575 18.1224 60.1255C18.2394 60.2905 18.3234 60.481 18.3744 60.697C18.4254 60.913 18.4434 61.144 18.4284 61.39C18.4254 61.483 18.4164 61.582 18.4014 61.687C18.3894 61.792 18.3714 61.897 18.3474 62.002H15.4899L15.7104 61.8535C15.6744 62.1655 15.6819 62.449 15.7329 62.704C15.7839 62.956 15.8859 63.1555 16.0389 63.3025C16.1949 63.4495 16.4079 63.523 16.6779 63.523C16.9209 63.523 17.1294 63.457 17.3034 63.325C17.4774 63.19 17.5944 62.995 17.6544 62.74H18.3114C18.2424 63.028 18.1254 63.274 17.9604 63.478C17.7984 63.679 17.6019 63.8335 17.3709 63.9415C17.1399 64.0465 16.8894 64.099 16.6194 64.099ZM15.7239 61.651L15.5529 61.5475H18.0279L17.8074 61.6285C17.8434 61.3735 17.8449 61.135 17.8119 60.913C17.7789 60.688 17.6979 60.5065 17.5689 60.3685C17.4429 60.2275 17.2524 60.157 16.9974 60.157C16.7514 60.157 16.5384 60.226 16.3584 60.364C16.1814 60.499 16.0389 60.6805 15.9309 60.9085C15.8259 61.1335 15.7569 61.381 15.7239 61.651ZM20.4794 64.099C20.1794 64.099 19.9319 64.036 19.7369 63.91C19.5419 63.784 19.4009 63.622 19.3139 63.424C19.2299 63.223 19.1984 63.013 19.2194 62.794C19.2494 62.503 19.3394 62.2645 19.4894 62.0785C19.6394 61.8925 19.8329 61.7545 20.0699 61.6645C20.3069 61.5715 20.5664 61.525 20.8484 61.525C21.0374 61.525 21.2264 61.546 21.4154 61.588C21.6074 61.627 21.7874 61.684 21.9554 61.759L22.0094 61.21C22.0514 60.823 22.0049 60.5455 21.8699 60.3775C21.7349 60.2065 21.5204 60.121 21.2264 60.121C21.0584 60.121 20.9039 60.148 20.7629 60.202C20.6219 60.256 20.5064 60.34 20.4164 60.454C20.3294 60.565 20.2784 60.709 20.2634 60.886H19.5524C19.5824 60.565 19.6784 60.31 19.8404 60.121C20.0054 59.932 20.2094 59.797 20.4524 59.716C20.6984 59.632 20.9564 59.59 21.2264 59.59C21.7154 59.59 22.0859 59.7205 22.3379 59.9815C22.5929 60.2395 22.6934 60.655 22.6394 61.228L22.3784 64H21.8294C21.8294 63.877 21.8309 63.757 21.8339 63.64C21.8369 63.52 21.8384 63.4 21.8384 63.28C21.6914 63.556 21.4994 63.7615 21.2624 63.8965C21.0254 64.0315 20.7644 64.099 20.4794 64.099ZM20.6009 63.55C20.8199 63.55 21.0284 63.496 21.2264 63.388C21.4244 63.277 21.5864 63.121 21.7124 62.92C21.8414 62.719 21.9074 62.482 21.9104 62.209C21.7454 62.155 21.5744 62.1115 21.3974 62.0785C21.2204 62.0455 21.0524 62.029 20.8934 62.029C20.6324 62.029 20.4074 62.086 20.2184 62.2C20.0294 62.311 19.9214 62.509 19.8944 62.794C19.8764 63.004 19.9244 63.1825 20.0384 63.3295C20.1554 63.4765 20.3429 63.55 20.6009 63.55ZM23.7816 64L24.1866 59.698H24.7356L24.7266 60.535C24.8796 60.229 25.0731 59.995 25.3071 59.833C25.5441 59.671 25.8126 59.59 26.1126 59.59C26.4186 59.59 26.6736 59.665 26.8776 59.815C27.0846 59.965 27.2331 60.181 27.3231 60.463C27.4131 60.742 27.4386 61.078 27.3996 61.471L27.1656 64H26.5356L26.7696 61.471C26.8116 61.057 26.7516 60.745 26.5896 60.535C26.4276 60.325 26.2041 60.22 25.9191 60.22C25.5561 60.22 25.2591 60.376 25.0281 60.688C24.8001 60.997 24.6606 61.423 24.6096 61.966L24.4206 64H23.7816ZM29.4378 58.681C29.3088 58.681 29.2113 58.6405 29.1453 58.5595C29.0793 58.4785 29.0508 58.372 29.0598 58.24C29.0718 58.117 29.1168 58.012 29.1948 57.925C29.2758 57.835 29.3838 57.79 29.5188 57.79C29.6508 57.79 29.7498 57.832 29.8158 57.916C29.8848 58 29.9133 58.108 29.9013 58.24C29.8893 58.378 29.8398 58.486 29.7528 58.564C29.6688 58.642 29.5638 58.681 29.4378 58.681ZM28.6143 64L29.0193 59.689H29.6583L29.2533 64H28.6143ZM30.8873 64L31.2923 59.698H31.8413L31.8323 60.535C31.9853 60.229 32.1788 59.995 32.4128 59.833C32.6498 59.671 32.9183 59.59 33.2183 59.59C33.5243 59.59 33.7793 59.665 33.9833 59.815C34.1903 59.965 34.3388 60.181 34.4288 60.463C34.5188 60.742 34.5443 61.078 34.5053 61.471L34.2713 64H33.6413L33.8753 61.471C33.9173 61.057 33.8573 60.745 33.6953 60.535C33.5333 60.325 33.3098 60.22 33.0248 60.22C32.6618 60.22 32.3648 60.376 32.1338 60.688C31.9058 60.997 31.7663 61.423 31.7153 61.966L31.5263 64H30.8873ZM36.836 66.214C36.443 66.214 36.1055 66.1525 35.8235 66.0295C35.5415 65.9095 35.3285 65.7445 35.1845 65.5345C35.0435 65.3275 34.9835 65.095 35.0045 64.837C35.0255 64.591 35.1125 64.3825 35.2655 64.2115C35.4215 64.0435 35.618 63.928 35.855 63.865C35.705 63.778 35.5955 63.6685 35.5265 63.5365C35.4575 63.4015 35.429 63.256 35.441 63.1C35.459 62.89 35.537 62.7145 35.675 62.5735C35.816 62.4325 35.984 62.338 36.179 62.29C36.059 62.149 35.969 61.984 35.909 61.795C35.852 61.603 35.834 61.39 35.855 61.156C35.888 60.841 35.984 60.5665 36.143 60.3325C36.302 60.0955 36.506 59.9125 36.755 59.7835C37.004 59.6545 37.2755 59.59 37.5695 59.59C37.7615 59.59 37.9385 59.6185 38.1005 59.6755C38.2655 59.7295 38.408 59.809 38.528 59.914C38.573 59.704 38.6495 59.521 38.7575 59.365C38.8685 59.206 39.0065 59.083 39.1715 58.996C39.3365 58.906 39.524 58.861 39.734 58.861L39.599 59.563C39.371 59.563 39.188 59.6155 39.05 59.7205C38.915 59.8225 38.831 59.989 38.798 60.22C38.876 60.346 38.933 60.487 38.969 60.643C39.005 60.799 39.014 60.97 38.996 61.156C38.969 61.468 38.873 61.744 38.708 61.984C38.546 62.221 38.3375 62.407 38.0825 62.542C37.8275 62.674 37.547 62.74 37.241 62.74C37.103 62.74 36.968 62.722 36.836 62.686C36.704 62.65 36.584 62.599 36.476 62.533C36.365 62.554 36.2645 62.6095 36.1745 62.6995C36.0845 62.7895 36.029 62.908 36.008 63.055C35.99 63.193 36.0275 63.307 36.1205 63.397C36.2165 63.487 36.401 63.532 36.674 63.532H38.177C38.537 63.532 38.8145 63.6175 39.0095 63.7885C39.2045 63.9565 39.29 64.195 39.266 64.504C39.245 64.792 39.1295 65.0665 38.9195 65.3275C38.7125 65.5885 38.4305 65.8015 38.0735 65.9665C37.7165 66.1315 37.304 66.214 36.836 66.214ZM36.8495 65.647C37.1855 65.647 37.484 65.5945 37.745 65.4895C38.006 65.3845 38.213 65.248 38.366 65.08C38.522 64.915 38.6075 64.738 38.6225 64.549C38.6345 64.402 38.6 64.2805 38.519 64.1845C38.438 64.0915 38.309 64.045 38.132 64.045H36.557C36.293 64.045 36.077 64.1185 35.909 64.2655C35.744 64.4155 35.6555 64.597 35.6435 64.81C35.6315 65.05 35.7275 65.2495 35.9315 65.4085C36.1385 65.5675 36.4445 65.647 36.8495 65.647ZM37.3265 62.227C37.5245 62.227 37.6985 62.1805 37.8485 62.0875C37.9985 61.9915 38.1185 61.8625 38.2085 61.7005C38.3015 61.5385 38.357 61.357 38.375 61.156C38.405 60.844 38.3435 60.5905 38.1905 60.3955C38.0405 60.2005 37.82 60.103 37.529 60.103C37.235 60.103 36.9935 60.2005 36.8045 60.3955C36.6185 60.5905 36.512 60.844 36.485 61.156C36.455 61.459 36.5135 61.714 36.6605 61.921C36.8105 62.125 37.0325 62.227 37.3265 62.227ZM39.5838 63.496C39.5838 63.328 39.6408 63.1855 39.7548 63.0685C39.8718 62.9515 40.0188 62.893 40.1958 62.893C40.3728 62.893 40.5228 62.9515 40.6458 63.0685C40.7688 63.1855 40.8303 63.328 40.8303 63.496C40.8303 63.661 40.7688 63.8005 40.6458 63.9145C40.5228 64.0255 40.3728 64.081 40.1958 64.081C40.0188 64.081 39.8718 64.024 39.7548 63.91C39.6408 63.796 39.5838 63.658 39.5838 63.496Z" fill="#1C1A2B"/>
</svg>
