<svg width="82" height="86" viewBox="0 0 82 86" fill="none" xmlns="http://www.w3.org/2000/svg">
<rect x="0.5" y="0.5" width="81" height="83" rx="13.5" fill="white" stroke="#DCDCDC"/>
<path d="M46.2787 70.12C43.9854 70.12 41.8788 69.6933 39.9588 68.84C38.0654 67.9867 36.5454 66.68 35.3988 64.92C34.2788 63.16 33.7188 60.92 33.7188 58.2V19.88H43.1588V57.88C43.1588 61.08 44.6788 62.68 47.7188 62.68C48.6521 62.68 49.5854 62.5733 50.5188 62.36C51.4521 62.1467 52.5188 61.8267 53.7188 61.4L55.0788 68.04C53.5854 68.6267 52.1321 69.12 50.7188 69.52C49.3054 69.92 47.8254 70.12 46.2787 70.12ZM28.2788 36.44V30.2H53.7188V36.44H28.2788Z" fill="black"/>
</svg>
