<svg width="82" height="84" viewBox="0 0 82 84" fill="none" xmlns="http://www.w3.org/2000/svg">
<rect x="0.5" y="0.5" width="81" height="83" rx="13.5" fill="white" stroke="#DCDCDC"/>
<path d="M49.2019 23.04H58.6419V62H49.2019V23.04ZM22.5619 23.04H32.0019V46.88C32.0019 49.4133 32.6285 51.32 33.8819 52.6C35.1352 53.8533 36.8552 54.48 39.0419 54.48C40.9085 54.48 42.6019 54 44.1219 53.04C45.6685 52.0533 46.8952 50.6133 47.8019 48.72C48.7352 46.8 49.2019 44.4267 49.2019 41.6H51.7619C51.7619 46.3467 51.1485 50.28 49.9219 53.4C48.6952 56.52 47.0019 58.8533 44.8419 60.4C42.6819 61.9467 40.1885 62.72 37.3619 62.72C34.5885 62.72 32.0819 62.2267 29.8419 61.24C27.6019 60.2533 25.8285 58.6667 24.5219 56.48C23.2152 54.2933 22.5619 51.4133 22.5619 47.84V23.04Z" fill="black"/>
</svg>
