<svg width="295" height="30" viewBox="0 0 295 30" fill="none" xmlns="http://www.w3.org/2000/svg">
<path d="M0.193811 2.34V1.356H6.21781V2.34H3.51781L3.77581 2.076V9H2.63581V2.076L2.88781 2.34H0.193811ZM11.2359 9V5.616C11.2359 5.116 11.1159 4.738 10.8759 4.482C10.6399 4.222 10.3199 4.092 9.91587 4.092C9.59587 4.092 9.31587 4.18 9.07587 4.356C8.83987 4.528 8.65587 4.782 8.52387 5.118C8.39587 5.45 8.33187 5.856 8.33187 6.336H7.92387C7.92387 5.628 8.01387 5.032 8.19387 4.548C8.37787 4.064 8.63987 3.698 8.97987 3.45C9.31987 3.198 9.72787 3.072 10.2039 3.072C10.6679 3.072 11.0599 3.176 11.3799 3.384C11.7039 3.592 11.9499 3.888 12.1179 4.272C12.2859 4.652 12.3699 5.1 12.3699 5.616V9H11.2359ZM7.19187 9V0.797999H8.33187V9H7.19187ZM14.9355 1.998C14.7075 1.998 14.5275 1.936 14.3955 1.812C14.2675 1.684 14.2035 1.512 14.2035 1.296C14.2035 1.088 14.2675 0.924 14.3955 0.804C14.5275 0.68 14.7075 0.618 14.9355 0.618C15.1595 0.618 15.3355 0.68 15.4635 0.804C15.5955 0.924 15.6615 1.088 15.6615 1.296C15.6615 1.512 15.5955 1.684 15.4635 1.812C15.3355 1.936 15.1595 1.998 14.9355 1.998ZM14.3655 9V3.21H15.5055V9H14.3655ZM19.8501 9.156C19.2901 9.156 18.8181 9.078 18.4341 8.922C18.0501 8.762 17.7561 8.542 17.5521 8.262C17.3521 7.978 17.2481 7.646 17.2401 7.266H18.3141C18.3301 7.598 18.4621 7.844 18.7101 8.004C18.9621 8.164 19.3021 8.244 19.7301 8.244C19.9581 8.244 20.1641 8.208 20.3481 8.136C20.5361 8.064 20.6841 7.966 20.7921 7.842C20.9041 7.718 20.9601 7.578 20.9601 7.422C20.9601 7.226 20.8881 7.072 20.7441 6.96C20.6001 6.844 20.3681 6.742 20.0481 6.654L18.8661 6.252C18.3941 6.092 18.0321 5.88 17.7801 5.616C17.5281 5.348 17.4021 5.028 17.4021 4.656C17.4021 4.18 17.6141 3.798 18.0381 3.51C18.4621 3.218 19.0241 3.072 19.7241 3.072C20.4481 3.072 21.0061 3.226 21.3981 3.534C21.7941 3.838 22.0001 4.22 22.0161 4.68H20.9181C20.8901 4.452 20.7761 4.278 20.5761 4.158C20.3801 4.034 20.0961 3.972 19.7241 3.972C19.3761 3.972 19.1021 4.048 18.9021 4.2C18.7061 4.352 18.6081 4.524 18.6081 4.716C18.6081 5.06 18.9041 5.316 19.4961 5.484L20.7381 5.922C21.2101 6.074 21.5741 6.27 21.8301 6.51C22.0861 6.75 22.2141 7.054 22.2141 7.422C22.2141 7.718 22.1161 7.998 21.9201 8.262C21.7241 8.526 21.4481 8.742 21.0921 8.91C20.7401 9.074 20.3261 9.156 19.8501 9.156ZM30.0742 9L29.9302 7.674V5.268C29.9302 4.796 29.8322 4.454 29.6362 4.242C29.4402 4.026 29.1302 3.918 28.7062 3.918C28.4662 3.918 28.2522 3.954 28.0642 4.026C27.8802 4.094 27.7342 4.198 27.6262 4.338C27.5222 4.478 27.4702 4.654 27.4702 4.866H26.2102C26.2102 4.442 26.3142 4.098 26.5222 3.834C26.7302 3.57 27.0202 3.378 27.3922 3.258C27.7682 3.134 28.2062 3.072 28.7062 3.072C29.1742 3.072 29.5862 3.15 29.9422 3.306C30.2982 3.458 30.5742 3.698 30.7702 4.026C30.9702 4.354 31.0702 4.778 31.0702 5.298V9H30.0742ZM28.1422 9.156C27.6582 9.156 27.2562 9.072 26.9362 8.904C26.6162 8.732 26.3762 8.508 26.2162 8.232C26.0602 7.956 25.9822 7.662 25.9822 7.35C25.9822 6.97 26.0782 6.658 26.2702 6.414C26.4662 6.166 26.7362 5.982 27.0802 5.862C27.4242 5.742 27.8202 5.682 28.2682 5.682C28.5762 5.682 28.8762 5.71 29.1682 5.766C29.4602 5.822 29.7482 5.896 30.0322 5.988V6.678C29.8002 6.594 29.5422 6.528 29.2582 6.48C28.9782 6.428 28.7162 6.402 28.4722 6.402C28.1082 6.402 27.8042 6.474 27.5602 6.618C27.3162 6.762 27.1942 7.006 27.1942 7.35C27.1942 7.602 27.2902 7.82 27.4822 8.004C27.6742 8.184 27.9782 8.274 28.3942 8.274C28.6982 8.274 28.9662 8.206 29.1982 8.07C29.4302 7.93 29.6102 7.756 29.7382 7.548C29.8662 7.34 29.9302 7.132 29.9302 6.924H30.2062C30.2062 7.324 30.1242 7.694 29.9602 8.034C29.8002 8.37 29.5662 8.642 29.2582 8.85C28.9502 9.054 28.5782 9.156 28.1422 9.156ZM32.9773 9V3.21H34.1173V9H32.9773ZM33.8053 6.42C33.8053 5.68 33.8813 5.066 34.0333 4.578C34.1893 4.086 34.4053 3.72 34.6813 3.48C34.9613 3.24 35.2893 3.12 35.6653 3.12C35.7773 3.12 35.8813 3.128 35.9773 3.144C36.0773 3.16 36.1753 3.182 36.2713 3.21L36.2293 4.344C36.1213 4.316 36.0033 4.292 35.8753 4.272C35.7513 4.248 35.6373 4.236 35.5333 4.236C35.2053 4.236 34.9373 4.324 34.7293 4.5C34.5213 4.672 34.3673 4.922 34.2673 5.25C34.1673 5.574 34.1173 5.964 34.1173 6.42H33.8053ZM39.3016 9.156C38.8296 9.156 38.3896 9.03 37.9816 8.778C37.5736 8.526 37.2456 8.172 36.9976 7.716C36.7496 7.26 36.6256 6.724 36.6256 6.108C36.6256 5.46 36.7496 4.912 36.9976 4.464C37.2456 4.012 37.5736 3.668 37.9816 3.432C38.3896 3.192 38.8296 3.072 39.3016 3.072C39.6496 3.072 39.9596 3.128 40.2316 3.24C40.5036 3.348 40.7376 3.496 40.9336 3.684C41.1296 3.868 41.2876 4.076 41.4076 4.308C41.5316 4.54 41.6176 4.78 41.6656 5.028L40.5076 5.088C40.4236 4.788 40.2756 4.548 40.0636 4.368C39.8556 4.184 39.5976 4.092 39.2896 4.092C39.0296 4.092 38.7836 4.166 38.5516 4.314C38.3236 4.458 38.1376 4.68 37.9936 4.98C37.8536 5.276 37.7836 5.652 37.7836 6.108C37.7836 6.532 37.8496 6.894 37.9816 7.194C38.1136 7.494 38.2936 7.724 38.5216 7.884C38.7496 8.044 39.0056 8.124 39.2896 8.124C39.6976 8.124 40.0016 8.026 40.2016 7.83C40.4056 7.63 40.5076 7.356 40.5076 7.008H41.6656C41.6656 7.412 41.5716 7.776 41.3836 8.1C41.1956 8.424 40.9236 8.682 40.5676 8.874C40.2156 9.062 39.7936 9.156 39.3016 9.156ZM47.2394 9V5.616C47.2394 5.116 47.1194 4.738 46.8794 4.482C46.6434 4.222 46.3234 4.092 45.9194 4.092C45.5994 4.092 45.3194 4.18 45.0794 4.356C44.8434 4.528 44.6594 4.782 44.5274 5.118C44.3994 5.45 44.3354 5.856 44.3354 6.336H43.9274C43.9274 5.628 44.0174 5.032 44.1974 4.548C44.3814 4.064 44.6434 3.698 44.9834 3.45C45.3234 3.198 45.7314 3.072 46.2074 3.072C46.6714 3.072 47.0634 3.176 47.3834 3.384C47.7074 3.592 47.9534 3.888 48.1214 4.272C48.2894 4.652 48.3734 5.1 48.3734 5.616V9H47.2394ZM43.1954 9V0.797999H44.3354V9H43.1954ZM50.9391 1.998C50.7111 1.998 50.5311 1.936 50.3991 1.812C50.2711 1.684 50.2071 1.512 50.2071 1.296C50.2071 1.088 50.2711 0.924 50.3991 0.804C50.5311 0.68 50.7111 0.618 50.9391 0.618C51.1631 0.618 51.3391 0.68 51.4671 0.804C51.5991 0.924 51.6651 1.088 51.6651 1.296C51.6651 1.512 51.5991 1.684 51.4671 1.812C51.3391 1.936 51.1631 1.998 50.9391 1.998ZM50.3691 9V3.21H51.5091V9H50.3691ZM52.7577 3.228H54.0657L55.6917 8.022H55.5717L57.1977 3.228H58.5057L56.2617 9H54.9957L52.7577 3.228ZM61.6648 9.156C61.1688 9.156 60.7208 9.028 60.3208 8.772C59.9208 8.516 59.6028 8.16 59.3668 7.704C59.1348 7.248 59.0188 6.72 59.0188 6.12C59.0188 5.484 59.1348 4.94 59.3668 4.488C59.5988 4.032 59.9148 3.682 60.3148 3.438C60.7148 3.194 61.1648 3.072 61.6648 3.072C62.1128 3.072 62.4968 3.164 62.8168 3.348C63.1368 3.528 63.3948 3.772 63.5908 4.08C63.7868 4.384 63.9208 4.73 63.9928 5.118C64.0688 5.506 64.0828 5.906 64.0348 6.318H59.9308V5.658H63.2548L62.9788 5.838C62.9908 5.622 62.9788 5.406 62.9428 5.19C62.9108 4.974 62.8468 4.776 62.7508 4.596C62.6548 4.412 62.5188 4.266 62.3428 4.158C62.1708 4.046 61.9508 3.99 61.6828 3.99C61.3468 3.99 61.0648 4.074 60.8368 4.242C60.6128 4.41 60.4428 4.636 60.3268 4.92C60.2108 5.2 60.1528 5.508 60.1528 5.844V6.306C60.1528 6.678 60.2088 7.008 60.3208 7.296C60.4328 7.584 60.5988 7.812 60.8188 7.98C61.0428 8.144 61.3248 8.226 61.6648 8.226C61.9968 8.226 62.2708 8.148 62.4868 7.992C62.7068 7.836 62.8428 7.602 62.8948 7.29H64.0588C63.9988 7.666 63.8608 7.994 63.6448 8.274C63.4288 8.554 63.1508 8.772 62.8108 8.928C62.4748 9.08 62.0928 9.156 61.6648 9.156ZM68.2426 9V3.21H69.3826V9H68.2426ZM69.0706 6.42C69.0706 5.68 69.1466 5.066 69.2986 4.578C69.4546 4.086 69.6706 3.72 69.9466 3.48C70.2266 3.24 70.5546 3.12 70.9306 3.12C71.0426 3.12 71.1466 3.128 71.2426 3.144C71.3426 3.16 71.4406 3.182 71.5366 3.21L71.4946 4.344C71.3866 4.316 71.2686 4.292 71.1406 4.272C71.0166 4.248 70.9026 4.236 70.7986 4.236C70.4706 4.236 70.2026 4.324 69.9946 4.5C69.7866 4.672 69.6326 4.922 69.5326 5.25C69.4326 5.574 69.3826 5.964 69.3826 6.42H69.0706ZM74.5369 9.156C74.0409 9.156 73.5929 9.028 73.1929 8.772C72.7929 8.516 72.4749 8.16 72.2389 7.704C72.0069 7.248 71.8909 6.72 71.8909 6.12C71.8909 5.484 72.0069 4.94 72.2389 4.488C72.4709 4.032 72.7869 3.682 73.1869 3.438C73.5869 3.194 74.0369 3.072 74.5369 3.072C74.9849 3.072 75.3689 3.164 75.6889 3.348C76.0089 3.528 76.2669 3.772 76.4629 4.08C76.6589 4.384 76.7929 4.73 76.8649 5.118C76.9409 5.506 76.9549 5.906 76.9069 6.318H72.8029V5.658H76.1269L75.8509 5.838C75.8629 5.622 75.8509 5.406 75.8149 5.19C75.7829 4.974 75.7189 4.776 75.6229 4.596C75.5269 4.412 75.3909 4.266 75.2149 4.158C75.0429 4.046 74.8229 3.99 74.5549 3.99C74.2189 3.99 73.9369 4.074 73.7089 4.242C73.4849 4.41 73.3149 4.636 73.1989 4.92C73.0829 5.2 73.0249 5.508 73.0249 5.844V6.306C73.0249 6.678 73.0809 7.008 73.1929 7.296C73.3049 7.584 73.4709 7.812 73.6909 7.98C73.9149 8.144 74.1969 8.226 74.5369 8.226C74.8689 8.226 75.1429 8.148 75.3589 7.992C75.5789 7.836 75.7149 7.602 75.7669 7.29H76.9309C76.8709 7.666 76.7329 7.994 76.5169 8.274C76.3009 8.554 76.0229 8.772 75.6829 8.928C75.3469 9.08 74.9649 9.156 74.5369 9.156ZM80.549 9.156C80.077 9.156 79.637 9.03 79.229 8.778C78.821 8.526 78.493 8.172 78.245 7.716C77.997 7.26 77.873 6.724 77.873 6.108C77.873 5.46 77.997 4.912 78.245 4.464C78.493 4.012 78.821 3.668 79.229 3.432C79.637 3.192 80.077 3.072 80.549 3.072C80.897 3.072 81.207 3.128 81.479 3.24C81.751 3.348 81.985 3.496 82.181 3.684C82.377 3.868 82.535 4.076 82.655 4.308C82.779 4.54 82.865 4.78 82.913 5.028L81.755 5.088C81.671 4.788 81.523 4.548 81.311 4.368C81.103 4.184 80.845 4.092 80.537 4.092C80.277 4.092 80.031 4.166 79.799 4.314C79.571 4.458 79.385 4.68 79.241 4.98C79.101 5.276 79.031 5.652 79.031 6.108C79.031 6.532 79.097 6.894 79.229 7.194C79.361 7.494 79.541 7.724 79.769 7.884C79.997 8.044 80.253 8.124 80.537 8.124C80.945 8.124 81.249 8.026 81.449 7.83C81.653 7.63 81.755 7.356 81.755 7.008H82.913C82.913 7.412 82.819 7.776 82.631 8.1C82.443 8.424 82.171 8.682 81.815 8.874C81.463 9.062 81.041 9.156 80.549 9.156ZM86.6148 9.156C86.0908 9.156 85.6208 9.042 85.2048 8.814C84.7928 8.586 84.4668 8.246 84.2268 7.794C83.9868 7.342 83.8668 6.784 83.8668 6.12C83.8668 5.444 83.9868 4.882 84.2268 4.434C84.4668 3.982 84.7928 3.642 85.2048 3.414C85.6208 3.186 86.0908 3.072 86.6148 3.072C87.1308 3.072 87.5948 3.186 88.0068 3.414C88.4188 3.642 88.7428 3.982 88.9788 4.434C89.2188 4.882 89.3388 5.444 89.3388 6.12C89.3388 6.784 89.2188 7.342 88.9788 7.794C88.7428 8.246 88.4188 8.586 88.0068 8.814C87.5948 9.042 87.1308 9.156 86.6148 9.156ZM86.5788 8.16C86.9108 8.16 87.1968 8.08 87.4368 7.92C87.6808 7.76 87.8668 7.528 87.9948 7.224C88.1268 6.916 88.1928 6.548 88.1928 6.12C88.1928 5.464 88.0588 4.956 87.7908 4.596C87.5268 4.236 87.1448 4.056 86.6448 4.056C86.3088 4.056 86.0188 4.138 85.7748 4.302C85.5348 4.462 85.3488 4.696 85.2168 5.004C85.0888 5.308 85.0248 5.68 85.0248 6.12C85.0248 6.764 85.1588 7.266 85.4268 7.626C85.6948 7.982 86.0788 8.16 86.5788 8.16ZM92.9591 11.976C92.3351 11.976 91.7971 11.89 91.3451 11.718C90.8971 11.546 90.5511 11.316 90.3071 11.028C90.0631 10.74 89.9411 10.426 89.9411 10.086C89.9411 9.654 90.0991 9.322 90.4151 9.09C90.7311 8.862 91.1331 8.748 91.6211 8.748L92.3591 9.096C91.9431 9.096 91.6211 9.18 91.3931 9.348C91.1691 9.516 91.0571 9.744 91.0571 10.032C91.0571 10.332 91.2211 10.578 91.5491 10.77C91.8771 10.966 92.3471 11.064 92.9591 11.064C93.4031 11.064 93.7931 10.998 94.1291 10.866C94.4651 10.738 94.7251 10.568 94.9091 10.356C95.0931 10.148 95.1851 9.924 95.1851 9.684C95.1851 9.52 95.1251 9.38 95.0051 9.264C94.8891 9.152 94.7111 9.096 94.4711 9.096H92.3591C91.9671 9.096 91.6211 9.036 91.3211 8.916C91.0251 8.792 90.7931 8.63 90.6251 8.43C90.4571 8.23 90.3731 8.008 90.3731 7.764C90.3731 7.524 90.4411 7.318 90.5771 7.146C90.7131 6.97 90.8931 6.838 91.1171 6.75C91.3411 6.658 91.5871 6.612 91.8551 6.612L92.1131 7.008C91.9971 7.008 91.8811 7.034 91.7651 7.086C91.6491 7.134 91.5531 7.208 91.4771 7.308C91.4011 7.408 91.3631 7.532 91.3631 7.68C91.3631 7.852 91.4351 7.996 91.5791 8.112C91.7271 8.224 91.9871 8.28 92.3591 8.28H94.4711C95.0471 8.28 95.4991 8.394 95.8271 8.622C96.1551 8.85 96.3191 9.182 96.3191 9.618C96.3191 10.014 96.1831 10.392 95.9111 10.752C95.6391 11.112 95.2511 11.406 94.7471 11.634C94.2471 11.862 93.6511 11.976 92.9591 11.976ZM93.0851 7.266C92.6371 7.266 92.2291 7.18 91.8611 7.008C91.4971 6.832 91.2071 6.588 90.9911 6.276C90.7751 5.96 90.6671 5.592 90.6671 5.172C90.6671 4.748 90.7751 4.38 90.9911 4.068C91.2071 3.752 91.4971 3.508 91.8611 3.336C92.2291 3.16 92.6371 3.072 93.0851 3.072C93.5211 3.072 93.9191 3.16 94.2791 3.336C94.6431 3.508 94.9331 3.752 95.1491 4.068C95.3691 4.38 95.4791 4.748 95.4791 5.172C95.4791 5.592 95.3691 5.96 95.1491 6.276C94.9331 6.588 94.6431 6.832 94.2791 7.008C93.9191 7.18 93.5211 7.266 93.0851 7.266ZM93.0851 6.462C93.4971 6.462 93.8111 6.34 94.0271 6.096C94.2471 5.848 94.3571 5.54 94.3571 5.172C94.3571 4.788 94.2471 4.478 94.0271 4.242C93.8111 4.006 93.4971 3.888 93.0851 3.888C92.6811 3.888 92.3651 4.006 92.1371 4.242C91.9131 4.478 91.8011 4.788 91.8011 5.172C91.8011 5.54 91.9131 5.848 92.1371 6.096C92.3651 6.34 92.6811 6.462 93.0851 6.462ZM95.0471 3.996L94.5131 3.738C94.5131 3.394 94.5851 3.094 94.7291 2.838C94.8731 2.582 95.0731 2.382 95.3291 2.238C95.5851 2.094 95.8791 2.022 96.2111 2.022L96.1391 3.132C95.7831 3.132 95.5111 3.202 95.3231 3.342C95.1391 3.482 95.0471 3.7 95.0471 3.996ZM101.482 9V5.616C101.482 5.116 101.362 4.738 101.122 4.482C100.886 4.222 100.566 4.092 100.162 4.092C99.8422 4.092 99.5622 4.18 99.3222 4.356C99.0862 4.528 98.9022 4.782 98.7702 5.118C98.6422 5.45 98.5782 5.856 98.5782 6.336H98.1702C98.1702 5.628 98.2602 5.032 98.4402 4.548C98.6242 4.064 98.8862 3.698 99.2262 3.45C99.5662 3.198 99.9742 3.072 100.45 3.072C100.914 3.072 101.306 3.176 101.626 3.384C101.95 3.592 102.196 3.888 102.364 4.272C102.532 4.652 102.616 5.1 102.616 5.616V9H101.482ZM97.4382 9V3.228H98.4282L98.5782 4.476V9H97.4382ZM105.182 1.998C104.954 1.998 104.774 1.936 104.642 1.812C104.514 1.684 104.45 1.512 104.45 1.296C104.45 1.088 104.514 0.924 104.642 0.804C104.774 0.68 104.954 0.618 105.182 0.618C105.406 0.618 105.582 0.68 105.71 0.804C105.842 0.924 105.908 1.088 105.908 1.296C105.908 1.512 105.842 1.684 105.71 1.812C105.582 1.936 105.406 1.998 105.182 1.998ZM104.612 9V3.21H105.752V9H104.612ZM107.468 9V8.076L110.702 4.146H107.468V3.228H111.974V4.146L108.812 8.076H111.974V9H107.468ZM115.591 9.156C115.095 9.156 114.647 9.028 114.247 8.772C113.847 8.516 113.529 8.16 113.293 7.704C113.061 7.248 112.945 6.72 112.945 6.12C112.945 5.484 113.061 4.94 113.293 4.488C113.525 4.032 113.841 3.682 114.241 3.438C114.641 3.194 115.091 3.072 115.591 3.072C116.039 3.072 116.423 3.164 116.743 3.348C117.063 3.528 117.321 3.772 117.517 4.08C117.713 4.384 117.847 4.73 117.919 5.118C117.995 5.506 118.009 5.906 117.961 6.318H113.857V5.658H117.181L116.905 5.838C116.917 5.622 116.905 5.406 116.869 5.19C116.837 4.974 116.773 4.776 116.677 4.596C116.581 4.412 116.445 4.266 116.269 4.158C116.097 4.046 115.877 3.99 115.609 3.99C115.273 3.99 114.991 4.074 114.763 4.242C114.539 4.41 114.369 4.636 114.253 4.92C114.137 5.2 114.079 5.508 114.079 5.844V6.306C114.079 6.678 114.135 7.008 114.247 7.296C114.359 7.584 114.525 7.812 114.745 7.98C114.969 8.144 115.251 8.226 115.591 8.226C115.923 8.226 116.197 8.148 116.413 7.992C116.633 7.836 116.769 7.602 116.821 7.29H117.985C117.925 7.666 117.787 7.994 117.571 8.274C117.355 8.554 117.077 8.772 116.737 8.928C116.401 9.08 116.019 9.156 115.591 9.156ZM121.615 9.156C121.055 9.156 120.583 9.078 120.199 8.922C119.815 8.762 119.521 8.542 119.317 8.262C119.117 7.978 119.013 7.646 119.005 7.266H120.079C120.095 7.598 120.227 7.844 120.475 8.004C120.727 8.164 121.067 8.244 121.495 8.244C121.723 8.244 121.929 8.208 122.113 8.136C122.301 8.064 122.449 7.966 122.557 7.842C122.669 7.718 122.725 7.578 122.725 7.422C122.725 7.226 122.653 7.072 122.509 6.96C122.365 6.844 122.133 6.742 121.813 6.654L120.631 6.252C120.159 6.092 119.797 5.88 119.545 5.616C119.293 5.348 119.167 5.028 119.167 4.656C119.167 4.18 119.379 3.798 119.803 3.51C120.227 3.218 120.789 3.072 121.489 3.072C122.213 3.072 122.771 3.226 123.163 3.534C123.559 3.838 123.765 4.22 123.781 4.68H122.683C122.655 4.452 122.541 4.278 122.341 4.158C122.145 4.034 121.861 3.972 121.489 3.972C121.141 3.972 120.867 4.048 120.667 4.2C120.471 4.352 120.373 4.524 120.373 4.716C120.373 5.06 120.669 5.316 121.261 5.484L122.503 5.922C122.975 6.074 123.339 6.27 123.595 6.51C123.851 6.75 123.979 7.054 123.979 7.422C123.979 7.718 123.881 7.998 123.685 8.262C123.489 8.526 123.213 8.742 122.857 8.91C122.505 9.074 122.091 9.156 121.615 9.156ZM130.345 11.976C129.721 11.976 129.183 11.89 128.731 11.718C128.283 11.546 127.937 11.316 127.693 11.028C127.449 10.74 127.327 10.426 127.327 10.086C127.327 9.654 127.485 9.322 127.801 9.09C128.117 8.862 128.519 8.748 129.007 8.748L129.745 9.096C129.329 9.096 129.007 9.18 128.779 9.348C128.555 9.516 128.443 9.744 128.443 10.032C128.443 10.332 128.607 10.578 128.935 10.77C129.263 10.966 129.733 11.064 130.345 11.064C130.789 11.064 131.179 10.998 131.515 10.866C131.851 10.738 132.111 10.568 132.295 10.356C132.479 10.148 132.571 9.924 132.571 9.684C132.571 9.52 132.511 9.38 132.391 9.264C132.275 9.152 132.097 9.096 131.857 9.096H129.745C129.353 9.096 129.007 9.036 128.707 8.916C128.411 8.792 128.179 8.63 128.011 8.43C127.843 8.23 127.759 8.008 127.759 7.764C127.759 7.524 127.827 7.318 127.963 7.146C128.099 6.97 128.279 6.838 128.503 6.75C128.727 6.658 128.973 6.612 129.241 6.612L129.499 7.008C129.383 7.008 129.267 7.034 129.151 7.086C129.035 7.134 128.939 7.208 128.863 7.308C128.787 7.408 128.749 7.532 128.749 7.68C128.749 7.852 128.821 7.996 128.965 8.112C129.113 8.224 129.373 8.28 129.745 8.28H131.857C132.433 8.28 132.885 8.394 133.213 8.622C133.541 8.85 133.705 9.182 133.705 9.618C133.705 10.014 133.569 10.392 133.297 10.752C133.025 11.112 132.637 11.406 132.133 11.634C131.633 11.862 131.037 11.976 130.345 11.976ZM130.471 7.266C130.023 7.266 129.615 7.18 129.247 7.008C128.883 6.832 128.593 6.588 128.377 6.276C128.161 5.96 128.053 5.592 128.053 5.172C128.053 4.748 128.161 4.38 128.377 4.068C128.593 3.752 128.883 3.508 129.247 3.336C129.615 3.16 130.023 3.072 130.471 3.072C130.907 3.072 131.305 3.16 131.665 3.336C132.029 3.508 132.319 3.752 132.535 4.068C132.755 4.38 132.865 4.748 132.865 5.172C132.865 5.592 132.755 5.96 132.535 6.276C132.319 6.588 132.029 6.832 131.665 7.008C131.305 7.18 130.907 7.266 130.471 7.266ZM130.471 6.462C130.883 6.462 131.197 6.34 131.413 6.096C131.633 5.848 131.743 5.54 131.743 5.172C131.743 4.788 131.633 4.478 131.413 4.242C131.197 4.006 130.883 3.888 130.471 3.888C130.067 3.888 129.751 4.006 129.523 4.242C129.299 4.478 129.187 4.788 129.187 5.172C129.187 5.54 129.299 5.848 129.523 6.096C129.751 6.34 130.067 6.462 130.471 6.462ZM132.433 3.996L131.899 3.738C131.899 3.394 131.971 3.094 132.115 2.838C132.259 2.582 132.459 2.382 132.715 2.238C132.971 2.094 133.265 2.022 133.597 2.022L133.525 3.132C133.169 3.132 132.897 3.202 132.709 3.342C132.525 3.482 132.433 3.7 132.433 3.996ZM136.895 9.156C136.399 9.156 135.951 9.028 135.551 8.772C135.151 8.516 134.833 8.16 134.597 7.704C134.365 7.248 134.249 6.72 134.249 6.12C134.249 5.484 134.365 4.94 134.597 4.488C134.829 4.032 135.145 3.682 135.545 3.438C135.945 3.194 136.395 3.072 136.895 3.072C137.343 3.072 137.727 3.164 138.047 3.348C138.367 3.528 138.625 3.772 138.821 4.08C139.017 4.384 139.151 4.73 139.223 5.118C139.299 5.506 139.313 5.906 139.265 6.318H135.161V5.658H138.485L138.209 5.838C138.221 5.622 138.209 5.406 138.173 5.19C138.141 4.974 138.077 4.776 137.981 4.596C137.885 4.412 137.749 4.266 137.573 4.158C137.401 4.046 137.181 3.99 136.913 3.99C136.577 3.99 136.295 4.074 136.067 4.242C135.843 4.41 135.673 4.636 135.557 4.92C135.441 5.2 135.383 5.508 135.383 5.844V6.306C135.383 6.678 135.439 7.008 135.551 7.296C135.663 7.584 135.829 7.812 136.049 7.98C136.273 8.144 136.555 8.226 136.895 8.226C137.227 8.226 137.501 8.148 137.717 7.992C137.937 7.836 138.073 7.602 138.125 7.29H139.289C139.229 7.666 139.091 7.994 138.875 8.274C138.659 8.554 138.381 8.772 138.041 8.928C137.705 9.08 137.323 9.156 136.895 9.156ZM142.919 9.156C142.359 9.156 141.887 9.078 141.503 8.922C141.119 8.762 140.825 8.542 140.621 8.262C140.421 7.978 140.317 7.646 140.309 7.266H141.383C141.399 7.598 141.531 7.844 141.779 8.004C142.031 8.164 142.371 8.244 142.799 8.244C143.027 8.244 143.233 8.208 143.417 8.136C143.605 8.064 143.753 7.966 143.861 7.842C143.973 7.718 144.029 7.578 144.029 7.422C144.029 7.226 143.957 7.072 143.813 6.96C143.669 6.844 143.437 6.742 143.117 6.654L141.935 6.252C141.463 6.092 141.101 5.88 140.849 5.616C140.597 5.348 140.471 5.028 140.471 4.656C140.471 4.18 140.683 3.798 141.107 3.51C141.531 3.218 142.093 3.072 142.793 3.072C143.517 3.072 144.075 3.226 144.467 3.534C144.863 3.838 145.069 4.22 145.085 4.68H143.987C143.959 4.452 143.845 4.278 143.645 4.158C143.449 4.034 143.165 3.972 142.793 3.972C142.445 3.972 142.171 4.048 141.971 4.2C141.775 4.352 141.677 4.524 141.677 4.716C141.677 5.06 141.973 5.316 142.565 5.484L143.807 5.922C144.279 6.074 144.643 6.27 144.899 6.51C145.155 6.75 145.283 7.054 145.283 7.422C145.283 7.718 145.185 7.998 144.989 8.262C144.793 8.526 144.517 8.742 144.161 8.91C143.809 9.074 143.395 9.156 142.919 9.156ZM148.713 9.156C148.385 9.156 148.089 9.094 147.825 8.97C147.561 8.846 147.351 8.66 147.195 8.412C147.043 8.16 146.967 7.844 146.967 7.464V1.656H148.101V7.428C148.101 7.972 148.355 8.244 148.863 8.244C149.019 8.244 149.171 8.228 149.319 8.196C149.467 8.16 149.635 8.108 149.823 8.04L149.985 8.85C149.773 8.938 149.563 9.01 149.355 9.066C149.151 9.126 148.937 9.156 148.713 9.156ZM146.085 4.002V3.228H149.811V4.002H146.085ZM155.089 3.21H156.235V9H155.089V3.21ZM151.057 3.21H152.197V6.786C152.197 7.222 152.303 7.552 152.515 7.776C152.731 8 153.033 8.112 153.421 8.112C153.749 8.112 154.037 8.026 154.285 7.854C154.537 7.682 154.733 7.438 154.873 7.122C155.017 6.806 155.089 6.432 155.089 6H155.455C155.455 6.676 155.363 7.244 155.179 7.704C154.995 8.164 154.737 8.514 154.405 8.754C154.073 8.99 153.685 9.108 153.241 9.108C152.817 9.108 152.439 9.03 152.107 8.874C151.779 8.718 151.521 8.478 151.333 8.154C151.149 7.826 151.057 7.404 151.057 6.888V3.21ZM158.308 9V3.21H159.448V9H158.308ZM159.136 6.42C159.136 5.68 159.212 5.066 159.364 4.578C159.52 4.086 159.736 3.72 160.012 3.48C160.292 3.24 160.62 3.12 160.996 3.12C161.108 3.12 161.212 3.128 161.308 3.144C161.408 3.16 161.506 3.182 161.602 3.21L161.56 4.344C161.452 4.316 161.334 4.292 161.206 4.272C161.082 4.248 160.968 4.236 160.864 4.236C160.536 4.236 160.268 4.324 160.06 4.5C159.852 4.672 159.698 4.922 159.598 5.25C159.498 5.574 159.448 5.964 159.448 6.42H159.136ZM164.602 9.156C164.106 9.156 163.658 9.028 163.258 8.772C162.858 8.516 162.54 8.16 162.304 7.704C162.072 7.248 161.956 6.72 161.956 6.12C161.956 5.484 162.072 4.94 162.304 4.488C162.536 4.032 162.852 3.682 163.252 3.438C163.652 3.194 164.102 3.072 164.602 3.072C165.05 3.072 165.434 3.164 165.754 3.348C166.074 3.528 166.332 3.772 166.528 4.08C166.724 4.384 166.858 4.73 166.93 5.118C167.006 5.506 167.02 5.906 166.972 6.318H162.868V5.658H166.192L165.916 5.838C165.928 5.622 165.916 5.406 165.88 5.19C165.848 4.974 165.784 4.776 165.688 4.596C165.592 4.412 165.456 4.266 165.28 4.158C165.108 4.046 164.888 3.99 164.62 3.99C164.284 3.99 164.002 4.074 163.774 4.242C163.55 4.41 163.38 4.636 163.264 4.92C163.148 5.2 163.09 5.508 163.09 5.844V6.306C163.09 6.678 163.146 7.008 163.258 7.296C163.37 7.584 163.536 7.812 163.756 7.98C163.98 8.144 164.262 8.226 164.602 8.226C164.934 8.226 165.208 8.148 165.424 7.992C165.644 7.836 165.78 7.602 165.832 7.29H166.996C166.936 7.666 166.798 7.994 166.582 8.274C166.366 8.554 166.088 8.772 165.748 8.928C165.412 9.08 165.03 9.156 164.602 9.156ZM170.626 9.156C170.066 9.156 169.594 9.078 169.21 8.922C168.826 8.762 168.532 8.542 168.328 8.262C168.128 7.978 168.024 7.646 168.016 7.266H169.09C169.106 7.598 169.238 7.844 169.486 8.004C169.738 8.164 170.078 8.244 170.506 8.244C170.734 8.244 170.94 8.208 171.124 8.136C171.312 8.064 171.46 7.966 171.568 7.842C171.68 7.718 171.736 7.578 171.736 7.422C171.736 7.226 171.664 7.072 171.52 6.96C171.376 6.844 171.144 6.742 170.824 6.654L169.642 6.252C169.17 6.092 168.808 5.88 168.556 5.616C168.304 5.348 168.178 5.028 168.178 4.656C168.178 4.18 168.39 3.798 168.814 3.51C169.238 3.218 169.8 3.072 170.5 3.072C171.224 3.072 171.782 3.226 172.174 3.534C172.57 3.838 172.776 4.22 172.792 4.68H171.694C171.666 4.452 171.552 4.278 171.352 4.158C171.156 4.034 170.872 3.972 170.5 3.972C170.152 3.972 169.878 4.048 169.678 4.2C169.482 4.352 169.384 4.524 169.384 4.716C169.384 5.06 169.68 5.316 170.272 5.484L171.514 5.922C171.986 6.074 172.35 6.27 172.606 6.51C172.862 6.75 172.99 7.054 172.99 7.422C172.99 7.718 172.892 7.998 172.696 8.262C172.5 8.526 172.224 8.742 171.868 8.91C171.516 9.074 171.102 9.156 170.626 9.156ZM179.086 9.156C178.758 9.156 178.462 9.094 178.198 8.97C177.934 8.846 177.724 8.66 177.568 8.412C177.416 8.16 177.34 7.844 177.34 7.464V1.656H178.474V7.428C178.474 7.972 178.728 8.244 179.236 8.244C179.392 8.244 179.544 8.228 179.692 8.196C179.84 8.16 180.008 8.108 180.196 8.04L180.358 8.85C180.146 8.938 179.936 9.01 179.728 9.066C179.524 9.126 179.31 9.156 179.086 9.156ZM176.458 4.002V3.228H180.184V4.002H176.458ZM185.618 9V5.616C185.618 5.116 185.498 4.738 185.258 4.482C185.022 4.222 184.702 4.092 184.298 4.092C183.978 4.092 183.698 4.18 183.458 4.356C183.222 4.528 183.038 4.782 182.906 5.118C182.778 5.45 182.714 5.856 182.714 6.336H182.306C182.306 5.628 182.396 5.032 182.576 4.548C182.76 4.064 183.022 3.698 183.362 3.45C183.702 3.198 184.11 3.072 184.586 3.072C185.05 3.072 185.442 3.176 185.762 3.384C186.086 3.592 186.332 3.888 186.5 4.272C186.668 4.652 186.752 5.1 186.752 5.616V9H185.618ZM181.574 9V0.797999H182.714V9H181.574ZM188.657 9V3.21H189.797V9H188.657ZM189.485 6.42C189.485 5.68 189.561 5.066 189.713 4.578C189.869 4.086 190.085 3.72 190.361 3.48C190.641 3.24 190.969 3.12 191.345 3.12C191.457 3.12 191.561 3.128 191.657 3.144C191.757 3.16 191.855 3.182 191.951 3.21L191.909 4.344C191.801 4.316 191.683 4.292 191.555 4.272C191.431 4.248 191.317 4.236 191.213 4.236C190.885 4.236 190.617 4.324 190.409 4.5C190.201 4.672 190.047 4.922 189.947 5.25C189.847 5.574 189.797 5.964 189.797 6.42H189.485ZM195.054 9.156C194.53 9.156 194.06 9.042 193.644 8.814C193.232 8.586 192.906 8.246 192.666 7.794C192.426 7.342 192.306 6.784 192.306 6.12C192.306 5.444 192.426 4.882 192.666 4.434C192.906 3.982 193.232 3.642 193.644 3.414C194.06 3.186 194.53 3.072 195.054 3.072C195.57 3.072 196.034 3.186 196.446 3.414C196.858 3.642 197.182 3.982 197.418 4.434C197.658 4.882 197.778 5.444 197.778 6.12C197.778 6.784 197.658 7.342 197.418 7.794C197.182 8.246 196.858 8.586 196.446 8.814C196.034 9.042 195.57 9.156 195.054 9.156ZM195.018 8.16C195.35 8.16 195.636 8.08 195.876 7.92C196.12 7.76 196.306 7.528 196.434 7.224C196.566 6.916 196.632 6.548 196.632 6.12C196.632 5.464 196.498 4.956 196.23 4.596C195.966 4.236 195.584 4.056 195.084 4.056C194.748 4.056 194.458 4.138 194.214 4.302C193.974 4.462 193.788 4.696 193.656 5.004C193.528 5.308 193.464 5.68 193.464 6.12C193.464 6.764 193.598 7.266 193.866 7.626C194.134 7.982 194.518 8.16 195.018 8.16ZM203.162 3.21H204.308V9H203.162V3.21ZM199.13 3.21H200.27V6.786C200.27 7.222 200.376 7.552 200.588 7.776C200.804 8 201.106 8.112 201.494 8.112C201.822 8.112 202.11 8.026 202.358 7.854C202.61 7.682 202.806 7.438 202.946 7.122C203.09 6.806 203.162 6.432 203.162 6H203.528C203.528 6.676 203.436 7.244 203.252 7.704C203.068 8.164 202.81 8.514 202.478 8.754C202.146 8.99 201.758 9.108 201.314 9.108C200.89 9.108 200.512 9.03 200.18 8.874C199.852 8.718 199.594 8.478 199.406 8.154C199.222 7.826 199.13 7.404 199.13 6.888V3.21ZM208.505 11.976C207.881 11.976 207.343 11.89 206.891 11.718C206.443 11.546 206.097 11.316 205.853 11.028C205.609 10.74 205.487 10.426 205.487 10.086C205.487 9.654 205.645 9.322 205.961 9.09C206.277 8.862 206.679 8.748 207.167 8.748L207.905 9.096C207.489 9.096 207.167 9.18 206.939 9.348C206.715 9.516 206.603 9.744 206.603 10.032C206.603 10.332 206.767 10.578 207.095 10.77C207.423 10.966 207.893 11.064 208.505 11.064C208.949 11.064 209.339 10.998 209.675 10.866C210.011 10.738 210.271 10.568 210.455 10.356C210.639 10.148 210.731 9.924 210.731 9.684C210.731 9.52 210.671 9.38 210.551 9.264C210.435 9.152 210.257 9.096 210.017 9.096H207.905C207.513 9.096 207.167 9.036 206.867 8.916C206.571 8.792 206.339 8.63 206.171 8.43C206.003 8.23 205.919 8.008 205.919 7.764C205.919 7.524 205.987 7.318 206.123 7.146C206.259 6.97 206.439 6.838 206.663 6.75C206.887 6.658 207.133 6.612 207.401 6.612L207.659 7.008C207.543 7.008 207.427 7.034 207.311 7.086C207.195 7.134 207.099 7.208 207.023 7.308C206.947 7.408 206.909 7.532 206.909 7.68C206.909 7.852 206.981 7.996 207.125 8.112C207.273 8.224 207.533 8.28 207.905 8.28H210.017C210.593 8.28 211.045 8.394 211.373 8.622C211.701 8.85 211.865 9.182 211.865 9.618C211.865 10.014 211.729 10.392 211.457 10.752C211.185 11.112 210.797 11.406 210.293 11.634C209.793 11.862 209.197 11.976 208.505 11.976ZM208.631 7.266C208.183 7.266 207.775 7.18 207.407 7.008C207.043 6.832 206.753 6.588 206.537 6.276C206.321 5.96 206.213 5.592 206.213 5.172C206.213 4.748 206.321 4.38 206.537 4.068C206.753 3.752 207.043 3.508 207.407 3.336C207.775 3.16 208.183 3.072 208.631 3.072C209.067 3.072 209.465 3.16 209.825 3.336C210.189 3.508 210.479 3.752 210.695 4.068C210.915 4.38 211.025 4.748 211.025 5.172C211.025 5.592 210.915 5.96 210.695 6.276C210.479 6.588 210.189 6.832 209.825 7.008C209.465 7.18 209.067 7.266 208.631 7.266ZM208.631 6.462C209.043 6.462 209.357 6.34 209.573 6.096C209.793 5.848 209.903 5.54 209.903 5.172C209.903 4.788 209.793 4.478 209.573 4.242C209.357 4.006 209.043 3.888 208.631 3.888C208.227 3.888 207.911 4.006 207.683 4.242C207.459 4.478 207.347 4.788 207.347 5.172C207.347 5.54 207.459 5.848 207.683 6.096C207.911 6.34 208.227 6.462 208.631 6.462ZM210.593 3.996L210.059 3.738C210.059 3.394 210.131 3.094 210.275 2.838C210.419 2.582 210.619 2.382 210.875 2.238C211.131 2.094 211.425 2.022 211.757 2.022L211.685 3.132C211.329 3.132 211.057 3.202 210.869 3.342C210.685 3.482 210.593 3.7 210.593 3.996ZM217.028 9V5.616C217.028 5.116 216.908 4.738 216.668 4.482C216.432 4.222 216.112 4.092 215.708 4.092C215.388 4.092 215.108 4.18 214.868 4.356C214.632 4.528 214.448 4.782 214.316 5.118C214.188 5.45 214.124 5.856 214.124 6.336H213.716C213.716 5.628 213.806 5.032 213.986 4.548C214.17 4.064 214.432 3.698 214.772 3.45C215.112 3.198 215.52 3.072 215.996 3.072C216.46 3.072 216.852 3.176 217.172 3.384C217.496 3.592 217.742 3.888 217.91 4.272C218.078 4.652 218.162 5.1 218.162 5.616V9H217.028ZM212.984 9V0.797999H214.124V9H212.984ZM221.815 3.228H223.093L224.833 8.004H224.599L225.997 3.228H227.161L224.971 10.11C224.771 10.734 224.513 11.2 224.197 11.508C223.885 11.82 223.493 11.976 223.021 11.976C222.757 11.976 222.503 11.942 222.259 11.874C222.019 11.806 221.773 11.706 221.521 11.574V10.548C221.737 10.7 221.945 10.81 222.145 10.878C222.345 10.946 222.553 10.98 222.769 10.98C222.985 10.98 223.169 10.914 223.321 10.782C223.477 10.654 223.607 10.482 223.711 10.266C223.819 10.054 223.911 9.822 223.987 9.57L224.161 9L221.815 3.228ZM230.419 9.156C229.895 9.156 229.425 9.042 229.009 8.814C228.597 8.586 228.271 8.246 228.031 7.794C227.791 7.342 227.671 6.784 227.671 6.12C227.671 5.444 227.791 4.882 228.031 4.434C228.271 3.982 228.597 3.642 229.009 3.414C229.425 3.186 229.895 3.072 230.419 3.072C230.935 3.072 231.399 3.186 231.811 3.414C232.223 3.642 232.547 3.982 232.783 4.434C233.023 4.882 233.143 5.444 233.143 6.12C233.143 6.784 233.023 7.342 232.783 7.794C232.547 8.246 232.223 8.586 231.811 8.814C231.399 9.042 230.935 9.156 230.419 9.156ZM230.383 8.16C230.715 8.16 231.001 8.08 231.241 7.92C231.485 7.76 231.671 7.528 231.799 7.224C231.931 6.916 231.997 6.548 231.997 6.12C231.997 5.464 231.863 4.956 231.595 4.596C231.331 4.236 230.949 4.056 230.449 4.056C230.113 4.056 229.823 4.138 229.579 4.302C229.339 4.462 229.153 4.696 229.021 5.004C228.893 5.308 228.829 5.68 228.829 6.12C228.829 6.764 228.963 7.266 229.231 7.626C229.499 7.982 229.883 8.16 230.383 8.16ZM238.527 3.21H239.673V9H238.527V3.21ZM234.495 3.21H235.635V6.786C235.635 7.222 235.741 7.552 235.953 7.776C236.169 8 236.471 8.112 236.859 8.112C237.187 8.112 237.475 8.026 237.723 7.854C237.975 7.682 238.171 7.438 238.311 7.122C238.455 6.806 238.527 6.432 238.527 6H238.893C238.893 6.676 238.801 7.244 238.617 7.704C238.433 8.164 238.175 8.514 237.843 8.754C237.511 8.99 237.123 9.108 236.679 9.108C236.255 9.108 235.877 9.03 235.545 8.874C235.217 8.718 234.959 8.478 234.771 8.154C234.587 7.826 234.495 7.404 234.495 6.888V3.21ZM241.746 9V3.21H242.886V9H241.746ZM242.574 6.42C242.574 5.68 242.65 5.066 242.802 4.578C242.958 4.086 243.174 3.72 243.45 3.48C243.73 3.24 244.058 3.12 244.434 3.12C244.546 3.12 244.65 3.128 244.746 3.144C244.846 3.16 244.944 3.182 245.04 3.21L244.998 4.344C244.89 4.316 244.772 4.292 244.644 4.272C244.52 4.248 244.406 4.236 244.302 4.236C243.974 4.236 243.706 4.324 243.498 4.5C243.29 4.672 243.136 4.922 243.036 5.25C242.936 5.574 242.886 5.964 242.886 6.42H242.574ZM247.652 3.228H248.84L250.214 7.86H250.088L251.414 3.522H252.404L253.724 7.872H253.604L254.978 3.228H256.118L254.222 9H253.106L251.798 4.92H251.972L250.682 9H249.566L247.652 3.228ZM259.301 9.156C258.805 9.156 258.357 9.028 257.957 8.772C257.557 8.516 257.239 8.16 257.003 7.704C256.771 7.248 256.655 6.72 256.655 6.12C256.655 5.484 256.771 4.94 257.003 4.488C257.235 4.032 257.551 3.682 257.951 3.438C258.351 3.194 258.801 3.072 259.301 3.072C259.749 3.072 260.133 3.164 260.453 3.348C260.773 3.528 261.031 3.772 261.227 4.08C261.423 4.384 261.557 4.73 261.629 5.118C261.705 5.506 261.719 5.906 261.671 6.318H257.567V5.658H260.891L260.615 5.838C260.627 5.622 260.615 5.406 260.579 5.19C260.547 4.974 260.483 4.776 260.387 4.596C260.291 4.412 260.155 4.266 259.979 4.158C259.807 4.046 259.587 3.99 259.319 3.99C258.983 3.99 258.701 4.074 258.473 4.242C258.249 4.41 258.079 4.636 257.963 4.92C257.847 5.2 257.789 5.508 257.789 5.844V6.306C257.789 6.678 257.845 7.008 257.957 7.296C258.069 7.584 258.235 7.812 258.455 7.98C258.679 8.144 258.961 8.226 259.301 8.226C259.633 8.226 259.907 8.148 260.123 7.992C260.343 7.836 260.479 7.602 260.531 7.29H261.695C261.635 7.666 261.497 7.994 261.281 8.274C261.065 8.554 260.787 8.772 260.447 8.928C260.111 9.08 259.729 9.156 259.301 9.156ZM265.992 9.156C265.616 9.156 265.274 9.056 264.966 8.856C264.662 8.652 264.418 8.352 264.234 7.956C264.054 7.56 263.964 7.074 263.964 6.498H264.354C264.354 6.834 264.426 7.124 264.57 7.368C264.718 7.612 264.906 7.8 265.134 7.932C265.362 8.06 265.6 8.124 265.848 8.124C266.144 8.124 266.41 8.042 266.646 7.878C266.886 7.714 267.076 7.48 267.216 7.176C267.36 6.868 267.432 6.506 267.432 6.09C267.432 5.678 267.362 5.324 267.222 5.028C267.082 4.728 266.892 4.498 266.652 4.338C266.412 4.174 266.14 4.092 265.836 4.092C265.58 4.092 265.338 4.154 265.11 4.278C264.886 4.402 264.704 4.586 264.564 4.83C264.424 5.07 264.354 5.364 264.354 5.712H263.964C263.964 5.148 264.052 4.67 264.228 4.278C264.404 3.886 264.648 3.588 264.96 3.384C265.276 3.176 265.646 3.072 266.07 3.072C266.53 3.072 266.95 3.196 267.33 3.444C267.714 3.688 268.02 4.036 268.248 4.488C268.48 4.94 268.596 5.474 268.596 6.09C268.596 6.71 268.478 7.25 268.242 7.71C268.006 8.166 267.69 8.522 267.294 8.778C266.902 9.03 266.468 9.156 265.992 9.156ZM263.214 9V0.797999H264.354V7.614L263.988 9H263.214ZM272.268 9.156C271.796 9.156 271.356 9.03 270.948 8.778C270.54 8.526 270.212 8.172 269.964 7.716C269.716 7.26 269.592 6.724 269.592 6.108C269.592 5.46 269.716 4.912 269.964 4.464C270.212 4.012 270.54 3.668 270.948 3.432C271.356 3.192 271.796 3.072 272.268 3.072C272.616 3.072 272.926 3.128 273.198 3.24C273.47 3.348 273.704 3.496 273.9 3.684C274.096 3.868 274.254 4.076 274.374 4.308C274.498 4.54 274.584 4.78 274.632 5.028L273.474 5.088C273.39 4.788 273.242 4.548 273.03 4.368C272.822 4.184 272.564 4.092 272.256 4.092C271.996 4.092 271.75 4.166 271.518 4.314C271.29 4.458 271.104 4.68 270.96 4.98C270.82 5.276 270.75 5.652 270.75 6.108C270.75 6.532 270.816 6.894 270.948 7.194C271.08 7.494 271.26 7.724 271.488 7.884C271.716 8.044 271.972 8.124 272.256 8.124C272.664 8.124 272.968 8.026 273.168 7.83C273.372 7.63 273.474 7.356 273.474 7.008H274.632C274.632 7.412 274.538 7.776 274.35 8.1C274.162 8.424 273.89 8.682 273.534 8.874C273.182 9.062 272.76 9.156 272.268 9.156ZM279.78 9L279.636 7.674V5.268C279.636 4.796 279.538 4.454 279.342 4.242C279.146 4.026 278.836 3.918 278.412 3.918C278.172 3.918 277.958 3.954 277.77 4.026C277.586 4.094 277.44 4.198 277.332 4.338C277.228 4.478 277.176 4.654 277.176 4.866H275.916C275.916 4.442 276.02 4.098 276.228 3.834C276.436 3.57 276.726 3.378 277.098 3.258C277.474 3.134 277.912 3.072 278.412 3.072C278.88 3.072 279.292 3.15 279.648 3.306C280.004 3.458 280.28 3.698 280.476 4.026C280.676 4.354 280.776 4.778 280.776 5.298V9H279.78ZM277.848 9.156C277.364 9.156 276.962 9.072 276.642 8.904C276.322 8.732 276.082 8.508 275.922 8.232C275.766 7.956 275.688 7.662 275.688 7.35C275.688 6.97 275.784 6.658 275.976 6.414C276.172 6.166 276.442 5.982 276.786 5.862C277.13 5.742 277.526 5.682 277.974 5.682C278.282 5.682 278.582 5.71 278.874 5.766C279.166 5.822 279.454 5.896 279.738 5.988V6.678C279.506 6.594 279.248 6.528 278.964 6.48C278.684 6.428 278.422 6.402 278.178 6.402C277.814 6.402 277.51 6.474 277.266 6.618C277.022 6.762 276.9 7.006 276.9 7.35C276.9 7.602 276.996 7.82 277.188 8.004C277.38 8.184 277.684 8.274 278.1 8.274C278.404 8.274 278.672 8.206 278.904 8.07C279.136 7.93 279.316 7.756 279.444 7.548C279.572 7.34 279.636 7.132 279.636 6.924H279.912C279.912 7.324 279.83 7.694 279.666 8.034C279.506 8.37 279.272 8.642 278.964 8.85C278.656 9.054 278.284 9.156 277.848 9.156ZM290.681 9V5.616C290.681 5.116 290.561 4.738 290.321 4.482C290.085 4.222 289.767 4.092 289.367 4.092C288.887 4.092 288.515 4.28 288.251 4.656C287.991 5.032 287.861 5.572 287.861 6.276H287.363C287.363 5.72 287.417 5.24 287.525 4.836C287.633 4.432 287.787 4.1 287.987 3.84C288.191 3.58 288.433 3.388 288.713 3.264C288.997 3.136 289.313 3.072 289.661 3.072C290.125 3.072 290.517 3.176 290.837 3.384C291.161 3.592 291.407 3.888 291.575 4.272C291.743 4.652 291.827 5.1 291.827 5.616V9H290.681ZM282.683 9V3.228H283.673L283.799 4.314C283.983 3.91 284.235 3.602 284.555 3.39C284.879 3.178 285.259 3.072 285.695 3.072C286.159 3.072 286.551 3.176 286.871 3.384C287.195 3.592 287.441 3.888 287.609 4.272C287.777 4.652 287.861 5.1 287.861 5.616V9H286.727V5.616C286.727 5.116 286.607 4.738 286.367 4.482C286.131 4.222 285.811 4.092 285.407 4.092C285.087 4.092 284.807 4.18 284.567 4.356C284.331 4.528 284.147 4.782 284.015 5.118C283.887 5.45 283.823 5.856 283.823 6.336V9H282.683ZM292.876 8.328C292.876 8.104 292.952 7.914 293.104 7.758C293.26 7.602 293.456 7.524 293.692 7.524C293.928 7.524 294.128 7.602 294.292 7.758C294.456 7.914 294.538 8.104 294.538 8.328C294.538 8.548 294.456 8.734 294.292 8.886C294.128 9.034 293.928 9.108 293.692 9.108C293.456 9.108 293.26 9.032 293.104 8.88C292.952 8.728 292.876 8.544 292.876 8.328ZM24.7374 27L27.3534 19.356H28.7634L31.3014 27H30.1014L29.5074 25.176H26.5554L25.9374 27H24.7374ZM26.8434 24.3H29.2254L28.0374 20.73L26.8434 24.3ZM32.4979 27V18.798H33.6379V27H32.4979ZM35.7143 27V18.798H36.8543V27H35.7143ZM43.6905 27.156C43.2185 27.156 42.7845 27.03 42.3885 26.778C41.9925 26.522 41.6765 26.166 41.4405 25.71C41.2085 25.25 41.0925 24.71 41.0925 24.09C41.0925 23.474 41.2065 22.94 41.4345 22.488C41.6665 22.036 41.9725 21.688 42.3525 21.444C42.7325 21.196 43.1545 21.072 43.6185 21.072C44.0425 21.072 44.4125 21.176 44.7285 21.384C45.0445 21.588 45.2885 21.886 45.4605 22.278C45.6365 22.67 45.7245 23.148 45.7245 23.712H45.3285C45.3285 23.364 45.2585 23.07 45.1185 22.83C44.9785 22.586 44.7965 22.402 44.5725 22.278C44.3485 22.154 44.1085 22.092 43.8525 22.092C43.5525 22.092 43.2805 22.174 43.0365 22.338C42.7965 22.498 42.6045 22.728 42.4605 23.028C42.3205 23.324 42.2505 23.678 42.2505 24.09C42.2505 24.506 42.3205 24.868 42.4605 25.176C42.6045 25.48 42.7965 25.714 43.0365 25.878C43.2805 26.042 43.5505 26.124 43.8465 26.124C44.0905 26.124 44.3245 26.06 44.5485 25.932C44.7765 25.8 44.9625 25.612 45.1065 25.368C45.2545 25.124 45.3285 24.834 45.3285 24.498H45.7245C45.7245 25.074 45.6325 25.56 45.4485 25.956C45.2685 26.352 45.0245 26.652 44.7165 26.856C44.4085 27.056 44.0665 27.156 43.6905 27.156ZM45.5265 27L45.3285 25.614V18.798H46.4745V27H45.5265ZM52.1692 27L52.0252 25.674V23.268C52.0252 22.796 51.9272 22.454 51.7312 22.242C51.5352 22.026 51.2252 21.918 50.8012 21.918C50.5612 21.918 50.3472 21.954 50.1592 22.026C49.9752 22.094 49.8292 22.198 49.7212 22.338C49.6172 22.478 49.5652 22.654 49.5652 22.866H48.3052C48.3052 22.442 48.4092 22.098 48.6172 21.834C48.8252 21.57 49.1152 21.378 49.4872 21.258C49.8632 21.134 50.3012 21.072 50.8012 21.072C51.2692 21.072 51.6812 21.15 52.0372 21.306C52.3932 21.458 52.6692 21.698 52.8652 22.026C53.0652 22.354 53.1652 22.778 53.1652 23.298V27H52.1692ZM50.2372 27.156C49.7532 27.156 49.3512 27.072 49.0312 26.904C48.7112 26.732 48.4712 26.508 48.3112 26.232C48.1552 25.956 48.0772 25.662 48.0772 25.35C48.0772 24.97 48.1732 24.658 48.3652 24.414C48.5612 24.166 48.8312 23.982 49.1752 23.862C49.5192 23.742 49.9152 23.682 50.3632 23.682C50.6712 23.682 50.9712 23.71 51.2632 23.766C51.5552 23.822 51.8432 23.896 52.1272 23.988V24.678C51.8952 24.594 51.6372 24.528 51.3532 24.48C51.0732 24.428 50.8112 24.402 50.5672 24.402C50.2032 24.402 49.8992 24.474 49.6552 24.618C49.4112 24.762 49.2892 25.006 49.2892 25.35C49.2892 25.602 49.3852 25.82 49.5772 26.004C49.7692 26.184 50.0732 26.274 50.4892 26.274C50.7932 26.274 51.0612 26.206 51.2932 26.07C51.5252 25.93 51.7052 25.756 51.8332 25.548C51.9612 25.34 52.0252 25.132 52.0252 24.924H52.3012C52.3012 25.324 52.2192 25.694 52.0552 26.034C51.8952 26.37 51.6612 26.642 51.3532 26.85C51.0452 27.054 50.6732 27.156 50.2372 27.156ZM56.9264 27.156C56.5984 27.156 56.3024 27.094 56.0384 26.97C55.7744 26.846 55.5644 26.66 55.4084 26.412C55.2564 26.16 55.1804 25.844 55.1804 25.464V19.656H56.3144V25.428C56.3144 25.972 56.5684 26.244 57.0764 26.244C57.2324 26.244 57.3844 26.228 57.5324 26.196C57.6804 26.16 57.8484 26.108 58.0364 26.04L58.1984 26.85C57.9864 26.938 57.7764 27.01 57.5684 27.066C57.3644 27.126 57.1504 27.156 56.9264 27.156ZM54.2984 22.002V21.228H58.0244V22.002H54.2984ZM63.0319 27L62.8879 25.674V23.268C62.8879 22.796 62.7899 22.454 62.5939 22.242C62.3979 22.026 62.0879 21.918 61.6639 21.918C61.4239 21.918 61.2099 21.954 61.0219 22.026C60.8379 22.094 60.6919 22.198 60.5839 22.338C60.4799 22.478 60.4279 22.654 60.4279 22.866H59.1679C59.1679 22.442 59.2719 22.098 59.4799 21.834C59.6879 21.57 59.9779 21.378 60.3499 21.258C60.7259 21.134 61.1639 21.072 61.6639 21.072C62.1319 21.072 62.5439 21.15 62.8999 21.306C63.2559 21.458 63.5319 21.698 63.7279 22.026C63.9279 22.354 64.0279 22.778 64.0279 23.298V27H63.0319ZM61.0999 27.156C60.6159 27.156 60.2139 27.072 59.8939 26.904C59.5739 26.732 59.3339 26.508 59.1739 26.232C59.0179 25.956 58.9399 25.662 58.9399 25.35C58.9399 24.97 59.0359 24.658 59.2279 24.414C59.4239 24.166 59.6939 23.982 60.0379 23.862C60.3819 23.742 60.7779 23.682 61.2259 23.682C61.5339 23.682 61.8339 23.71 62.1259 23.766C62.4179 23.822 62.7059 23.896 62.9899 23.988V24.678C62.7579 24.594 62.4999 24.528 62.2159 24.48C61.9359 24.428 61.6739 24.402 61.4299 24.402C61.0659 24.402 60.7619 24.474 60.5179 24.618C60.2739 24.762 60.1519 25.006 60.1519 25.35C60.1519 25.602 60.2479 25.82 60.4399 26.004C60.6319 26.184 60.9359 26.274 61.3519 26.274C61.6559 26.274 61.9239 26.206 62.1559 26.07C62.3879 25.93 62.5679 25.756 62.6959 25.548C62.8239 25.34 62.8879 25.132 62.8879 24.924H63.1639C63.1639 25.324 63.0819 25.694 62.9179 26.034C62.7579 26.37 62.5239 26.642 62.2159 26.85C61.9079 27.054 61.5359 27.156 61.0999 27.156ZM70.7127 27.156C70.1527 27.156 69.6807 27.078 69.2967 26.922C68.9127 26.762 68.6187 26.542 68.4147 26.262C68.2147 25.978 68.1107 25.646 68.1027 25.266H69.1767C69.1927 25.598 69.3247 25.844 69.5727 26.004C69.8247 26.164 70.1647 26.244 70.5927 26.244C70.8207 26.244 71.0267 26.208 71.2107 26.136C71.3987 26.064 71.5467 25.966 71.6547 25.842C71.7667 25.718 71.8227 25.578 71.8227 25.422C71.8227 25.226 71.7507 25.072 71.6067 24.96C71.4627 24.844 71.2307 24.742 70.9107 24.654L69.7287 24.252C69.2567 24.092 68.8947 23.88 68.6427 23.616C68.3907 23.348 68.2647 23.028 68.2647 22.656C68.2647 22.18 68.4767 21.798 68.9007 21.51C69.3247 21.218 69.8867 21.072 70.5867 21.072C71.3107 21.072 71.8687 21.226 72.2607 21.534C72.6567 21.838 72.8627 22.22 72.8787 22.68H71.7807C71.7527 22.452 71.6387 22.278 71.4387 22.158C71.2427 22.034 70.9587 21.972 70.5867 21.972C70.2387 21.972 69.9647 22.048 69.7647 22.2C69.5687 22.352 69.4707 22.524 69.4707 22.716C69.4707 23.06 69.7667 23.316 70.3587 23.484L71.6007 23.922C72.0727 24.074 72.4367 24.27 72.6927 24.51C72.9487 24.75 73.0767 25.054 73.0767 25.422C73.0767 25.718 72.9787 25.998 72.7827 26.262C72.5867 26.526 72.3107 26.742 71.9547 26.91C71.6027 27.074 71.1887 27.156 70.7127 27.156ZM76.5071 27.156C76.1791 27.156 75.8831 27.094 75.6191 26.97C75.3551 26.846 75.1451 26.66 74.9891 26.412C74.8371 26.16 74.7611 25.844 74.7611 25.464V19.656H75.8951V25.428C75.8951 25.972 76.1491 26.244 76.6571 26.244C76.8131 26.244 76.9651 26.228 77.1131 26.196C77.2611 26.16 77.4291 26.108 77.6171 26.04L77.7791 26.85C77.5671 26.938 77.3571 27.01 77.1491 27.066C76.9451 27.126 76.7311 27.156 76.5071 27.156ZM73.8791 22.002V21.228H77.6051V22.002H73.8791ZM82.6126 27L82.4686 25.674V23.268C82.4686 22.796 82.3706 22.454 82.1746 22.242C81.9786 22.026 81.6686 21.918 81.2446 21.918C81.0046 21.918 80.7906 21.954 80.6026 22.026C80.4186 22.094 80.2726 22.198 80.1646 22.338C80.0606 22.478 80.0086 22.654 80.0086 22.866H78.7486C78.7486 22.442 78.8526 22.098 79.0606 21.834C79.2686 21.57 79.5586 21.378 79.9306 21.258C80.3066 21.134 80.7446 21.072 81.2446 21.072C81.7126 21.072 82.1246 21.15 82.4806 21.306C82.8366 21.458 83.1126 21.698 83.3086 22.026C83.5086 22.354 83.6086 22.778 83.6086 23.298V27H82.6126ZM80.6806 27.156C80.1966 27.156 79.7946 27.072 79.4746 26.904C79.1546 26.732 78.9146 26.508 78.7546 26.232C78.5986 25.956 78.5206 25.662 78.5206 25.35C78.5206 24.97 78.6166 24.658 78.8086 24.414C79.0046 24.166 79.2746 23.982 79.6186 23.862C79.9626 23.742 80.3586 23.682 80.8066 23.682C81.1146 23.682 81.4146 23.71 81.7066 23.766C81.9986 23.822 82.2866 23.896 82.5706 23.988V24.678C82.3386 24.594 82.0806 24.528 81.7966 24.48C81.5166 24.428 81.2546 24.402 81.0106 24.402C80.6466 24.402 80.3426 24.474 80.0986 24.618C79.8546 24.762 79.7326 25.006 79.7326 25.35C79.7326 25.602 79.8286 25.82 80.0206 26.004C80.2126 26.184 80.5166 26.274 80.9326 26.274C81.2366 26.274 81.5046 26.206 81.7366 26.07C81.9686 25.93 82.1486 25.756 82.2766 25.548C82.4046 25.34 82.4686 25.132 82.4686 24.924H82.7446C82.7446 25.324 82.6626 25.694 82.4986 26.034C82.3386 26.37 82.1046 26.642 81.7966 26.85C81.4886 27.054 81.1166 27.156 80.6806 27.156ZM84.5977 21.228H85.8757L87.6157 26.004H87.3817L88.7797 21.228H89.9437L87.7537 28.11C87.5537 28.734 87.2957 29.2 86.9797 29.508C86.6677 29.82 86.2757 29.976 85.8037 29.976C85.5397 29.976 85.2857 29.942 85.0417 29.874C84.8017 29.806 84.5557 29.706 84.3037 29.574V28.548C84.5197 28.7 84.7277 28.81 84.9277 28.878C85.1277 28.946 85.3357 28.98 85.5517 28.98C85.7677 28.98 85.9517 28.914 86.1037 28.782C86.2597 28.654 86.3897 28.482 86.4937 28.266C86.6017 28.054 86.6937 27.822 86.7697 27.57L86.9437 27L84.5977 21.228ZM93.1411 27.156C92.5811 27.156 92.1091 27.078 91.7251 26.922C91.3411 26.762 91.0471 26.542 90.8431 26.262C90.6431 25.978 90.5391 25.646 90.5311 25.266H91.6051C91.6211 25.598 91.7531 25.844 92.0011 26.004C92.2531 26.164 92.5931 26.244 93.0211 26.244C93.2491 26.244 93.4551 26.208 93.6391 26.136C93.8271 26.064 93.9751 25.966 94.0831 25.842C94.1951 25.718 94.2511 25.578 94.2511 25.422C94.2511 25.226 94.1791 25.072 94.0351 24.96C93.8911 24.844 93.6591 24.742 93.3391 24.654L92.1571 24.252C91.6851 24.092 91.3231 23.88 91.0711 23.616C90.8191 23.348 90.6931 23.028 90.6931 22.656C90.6931 22.18 90.9051 21.798 91.3291 21.51C91.7531 21.218 92.3151 21.072 93.0151 21.072C93.7391 21.072 94.2971 21.226 94.6891 21.534C95.0851 21.838 95.2911 22.22 95.3071 22.68H94.2091C94.1811 22.452 94.0671 22.278 93.8671 22.158C93.6711 22.034 93.3871 21.972 93.0151 21.972C92.6671 21.972 92.3931 22.048 92.1931 22.2C91.9971 22.352 91.8991 22.524 91.8991 22.716C91.8991 23.06 92.1951 23.316 92.7871 23.484L94.0291 23.922C94.5011 24.074 94.8651 24.27 95.1211 24.51C95.3771 24.75 95.5051 25.054 95.5051 25.422C95.5051 25.718 95.4071 25.998 95.2111 26.262C95.0151 26.526 94.7391 26.742 94.3831 26.91C94.0311 27.074 93.6171 27.156 93.1411 27.156ZM99.7472 27V18.798H100.887V27H99.7472ZM105.136 27.156C104.612 27.156 104.142 27.042 103.726 26.814C103.314 26.586 102.988 26.246 102.748 25.794C102.508 25.342 102.388 24.784 102.388 24.12C102.388 23.444 102.508 22.882 102.748 22.434C102.988 21.982 103.314 21.642 103.726 21.414C104.142 21.186 104.612 21.072 105.136 21.072C105.652 21.072 106.116 21.186 106.528 21.414C106.94 21.642 107.264 21.982 107.5 22.434C107.74 22.882 107.86 23.444 107.86 24.12C107.86 24.784 107.74 25.342 107.5 25.794C107.264 26.246 106.94 26.586 106.528 26.814C106.116 27.042 105.652 27.156 105.136 27.156ZM105.1 26.16C105.432 26.16 105.718 26.08 105.958 25.92C106.202 25.76 106.388 25.528 106.516 25.224C106.648 24.916 106.714 24.548 106.714 24.12C106.714 23.464 106.58 22.956 106.312 22.596C106.048 22.236 105.666 22.056 105.166 22.056C104.83 22.056 104.54 22.138 104.296 22.302C104.056 22.462 103.87 22.696 103.738 23.004C103.61 23.308 103.546 23.68 103.546 24.12C103.546 24.764 103.68 25.266 103.948 25.626C104.216 25.982 104.6 26.16 105.1 26.16ZM111.456 27.156C110.984 27.156 110.544 27.03 110.136 26.778C109.728 26.526 109.4 26.172 109.152 25.716C108.904 25.26 108.78 24.724 108.78 24.108C108.78 23.46 108.904 22.912 109.152 22.464C109.4 22.012 109.728 21.668 110.136 21.432C110.544 21.192 110.984 21.072 111.456 21.072C111.804 21.072 112.114 21.128 112.386 21.24C112.658 21.348 112.892 21.496 113.088 21.684C113.284 21.868 113.442 22.076 113.562 22.308C113.686 22.54 113.772 22.78 113.82 23.028L112.662 23.088C112.578 22.788 112.43 22.548 112.218 22.368C112.01 22.184 111.752 22.092 111.444 22.092C111.184 22.092 110.938 22.166 110.706 22.314C110.478 22.458 110.292 22.68 110.148 22.98C110.008 23.276 109.938 23.652 109.938 24.108C109.938 24.532 110.004 24.894 110.136 25.194C110.268 25.494 110.448 25.724 110.676 25.884C110.904 26.044 111.16 26.124 111.444 26.124C111.852 26.124 112.156 26.026 112.356 25.83C112.56 25.63 112.662 25.356 112.662 25.008H113.82C113.82 25.412 113.726 25.776 113.538 26.1C113.35 26.424 113.078 26.682 112.722 26.874C112.37 27.062 111.948 27.156 111.456 27.156ZM118.968 27L118.824 25.674V23.268C118.824 22.796 118.726 22.454 118.53 22.242C118.334 22.026 118.024 21.918 117.6 21.918C117.36 21.918 117.146 21.954 116.958 22.026C116.774 22.094 116.628 22.198 116.52 22.338C116.416 22.478 116.364 22.654 116.364 22.866H115.104C115.104 22.442 115.208 22.098 115.416 21.834C115.624 21.57 115.914 21.378 116.286 21.258C116.662 21.134 117.1 21.072 117.6 21.072C118.068 21.072 118.48 21.15 118.836 21.306C119.192 21.458 119.468 21.698 119.664 22.026C119.864 22.354 119.964 22.778 119.964 23.298V27H118.968ZM117.036 27.156C116.552 27.156 116.15 27.072 115.83 26.904C115.51 26.732 115.27 26.508 115.11 26.232C114.954 25.956 114.876 25.662 114.876 25.35C114.876 24.97 114.972 24.658 115.164 24.414C115.36 24.166 115.63 23.982 115.974 23.862C116.318 23.742 116.714 23.682 117.162 23.682C117.47 23.682 117.77 23.71 118.062 23.766C118.354 23.822 118.642 23.896 118.926 23.988V24.678C118.694 24.594 118.436 24.528 118.152 24.48C117.872 24.428 117.61 24.402 117.366 24.402C117.002 24.402 116.698 24.474 116.454 24.618C116.21 24.762 116.088 25.006 116.088 25.35C116.088 25.602 116.184 25.82 116.376 26.004C116.568 26.184 116.872 26.274 117.288 26.274C117.592 26.274 117.86 26.206 118.092 26.07C118.324 25.93 118.504 25.756 118.632 25.548C118.76 25.34 118.824 25.132 118.824 24.924H119.1C119.1 25.324 119.018 25.694 118.854 26.034C118.694 26.37 118.46 26.642 118.152 26.85C117.844 27.054 117.472 27.156 117.036 27.156ZM121.871 27V18.798H123.011V27H121.871ZM127.243 23.952V22.956H134.851V23.952H127.243ZM143.117 27V23.616C143.117 23.116 142.997 22.738 142.757 22.482C142.521 22.222 142.201 22.092 141.797 22.092C141.477 22.092 141.197 22.18 140.957 22.356C140.721 22.528 140.537 22.782 140.405 23.118C140.277 23.45 140.213 23.856 140.213 24.336H139.805C139.805 23.628 139.895 23.032 140.075 22.548C140.259 22.064 140.521 21.698 140.861 21.45C141.201 21.198 141.609 21.072 142.085 21.072C142.549 21.072 142.941 21.176 143.261 21.384C143.585 21.592 143.831 21.888 143.999 22.272C144.167 22.652 144.251 23.1 144.251 23.616V27H143.117ZM139.073 27V21.228H140.063L140.213 22.476V27H139.073ZM148.328 27.156C147.804 27.156 147.334 27.042 146.918 26.814C146.506 26.586 146.18 26.246 145.94 25.794C145.7 25.342 145.58 24.784 145.58 24.12C145.58 23.444 145.7 22.882 145.94 22.434C146.18 21.982 146.506 21.642 146.918 21.414C147.334 21.186 147.804 21.072 148.328 21.072C148.844 21.072 149.308 21.186 149.72 21.414C150.132 21.642 150.456 21.982 150.692 22.434C150.932 22.882 151.052 23.444 151.052 24.12C151.052 24.784 150.932 25.342 150.692 25.794C150.456 26.246 150.132 26.586 149.72 26.814C149.308 27.042 148.844 27.156 148.328 27.156ZM148.292 26.16C148.624 26.16 148.91 26.08 149.15 25.92C149.394 25.76 149.58 25.528 149.708 25.224C149.84 24.916 149.906 24.548 149.906 24.12C149.906 23.464 149.772 22.956 149.504 22.596C149.24 22.236 148.858 22.056 148.358 22.056C148.022 22.056 147.732 22.138 147.488 22.302C147.248 22.462 147.062 22.696 146.93 23.004C146.802 23.308 146.738 23.68 146.738 24.12C146.738 24.764 146.872 25.266 147.14 25.626C147.408 25.982 147.792 26.16 148.292 26.16ZM154.23 21.228H155.538L157.164 26.022H157.044L158.67 21.228H159.978L157.734 27H156.468L154.23 21.228ZM161.727 19.998C161.499 19.998 161.319 19.936 161.187 19.812C161.059 19.684 160.995 19.512 160.995 19.296C160.995 19.088 161.059 18.924 161.187 18.804C161.319 18.68 161.499 18.618 161.727 18.618C161.951 18.618 162.127 18.68 162.255 18.804C162.387 18.924 162.453 19.088 162.453 19.296C162.453 19.512 162.387 19.684 162.255 19.812C162.127 19.936 161.951 19.998 161.727 19.998ZM161.157 27V21.21H162.297V27H161.157ZM166.624 27.156C166.152 27.156 165.718 27.03 165.322 26.778C164.926 26.522 164.61 26.166 164.374 25.71C164.142 25.25 164.026 24.71 164.026 24.09C164.026 23.474 164.14 22.94 164.368 22.488C164.6 22.036 164.906 21.688 165.286 21.444C165.666 21.196 166.088 21.072 166.552 21.072C166.976 21.072 167.346 21.176 167.662 21.384C167.978 21.588 168.222 21.886 168.394 22.278C168.57 22.67 168.658 23.148 168.658 23.712H168.262C168.262 23.364 168.192 23.07 168.052 22.83C167.912 22.586 167.73 22.402 167.506 22.278C167.282 22.154 167.042 22.092 166.786 22.092C166.486 22.092 166.214 22.174 165.97 22.338C165.73 22.498 165.538 22.728 165.394 23.028C165.254 23.324 165.184 23.678 165.184 24.09C165.184 24.506 165.254 24.868 165.394 25.176C165.538 25.48 165.73 25.714 165.97 25.878C166.214 26.042 166.484 26.124 166.78 26.124C167.024 26.124 167.258 26.06 167.482 25.932C167.71 25.8 167.896 25.612 168.04 25.368C168.188 25.124 168.262 24.834 168.262 24.498H168.658C168.658 25.074 168.566 25.56 168.382 25.956C168.202 26.352 167.958 26.652 167.65 26.856C167.342 27.056 167 27.156 166.624 27.156ZM168.46 27L168.262 25.614V18.798H169.408V27H168.46ZM173.555 27.156C173.059 27.156 172.611 27.028 172.211 26.772C171.811 26.516 171.493 26.16 171.257 25.704C171.025 25.248 170.909 24.72 170.909 24.12C170.909 23.484 171.025 22.94 171.257 22.488C171.489 22.032 171.805 21.682 172.205 21.438C172.605 21.194 173.055 21.072 173.555 21.072C174.003 21.072 174.387 21.164 174.707 21.348C175.027 21.528 175.285 21.772 175.481 22.08C175.677 22.384 175.811 22.73 175.883 23.118C175.959 23.506 175.973 23.906 175.925 24.318H171.821V23.658H175.145L174.869 23.838C174.881 23.622 174.869 23.406 174.833 23.19C174.801 22.974 174.737 22.776 174.641 22.596C174.545 22.412 174.409 22.266 174.233 22.158C174.061 22.046 173.841 21.99 173.573 21.99C173.237 21.99 172.955 22.074 172.727 22.242C172.503 22.41 172.333 22.636 172.217 22.92C172.101 23.2 172.043 23.508 172.043 23.844V24.306C172.043 24.678 172.099 25.008 172.211 25.296C172.323 25.584 172.489 25.812 172.709 25.98C172.933 26.144 173.215 26.226 173.555 26.226C173.887 26.226 174.161 26.148 174.377 25.992C174.597 25.836 174.733 25.602 174.785 25.29H175.949C175.889 25.666 175.751 25.994 175.535 26.274C175.319 26.554 175.041 26.772 174.701 26.928C174.365 27.08 173.983 27.156 173.555 27.156ZM179.639 27.156C179.115 27.156 178.645 27.042 178.229 26.814C177.817 26.586 177.491 26.246 177.251 25.794C177.011 25.342 176.891 24.784 176.891 24.12C176.891 23.444 177.011 22.882 177.251 22.434C177.491 21.982 177.817 21.642 178.229 21.414C178.645 21.186 179.115 21.072 179.639 21.072C180.155 21.072 180.619 21.186 181.031 21.414C181.443 21.642 181.767 21.982 182.003 22.434C182.243 22.882 182.363 23.444 182.363 24.12C182.363 24.784 182.243 25.342 182.003 25.794C181.767 26.246 181.443 26.586 181.031 26.814C180.619 27.042 180.155 27.156 179.639 27.156ZM179.603 26.16C179.935 26.16 180.221 26.08 180.461 25.92C180.705 25.76 180.891 25.528 181.019 25.224C181.151 24.916 181.217 24.548 181.217 24.12C181.217 23.464 181.083 22.956 180.815 22.596C180.551 22.236 180.169 22.056 179.669 22.056C179.333 22.056 179.043 22.138 178.799 22.302C178.559 22.462 178.373 22.696 178.241 23.004C178.113 23.308 178.049 23.68 178.049 24.12C178.049 24.764 178.183 25.266 178.451 25.626C178.719 25.982 179.103 26.16 179.603 26.16ZM187.185 19.998C186.957 19.998 186.777 19.936 186.645 19.812C186.517 19.684 186.453 19.512 186.453 19.296C186.453 19.088 186.517 18.924 186.645 18.804C186.777 18.68 186.957 18.618 187.185 18.618C187.409 18.618 187.585 18.68 187.713 18.804C187.845 18.924 187.911 19.088 187.911 19.296C187.911 19.512 187.845 19.684 187.713 19.812C187.585 19.936 187.409 19.998 187.185 19.998ZM186.615 27V21.21H187.755V27H186.615ZM192.099 27.156C191.539 27.156 191.067 27.078 190.683 26.922C190.299 26.762 190.005 26.542 189.801 26.262C189.601 25.978 189.497 25.646 189.489 25.266H190.563C190.579 25.598 190.711 25.844 190.959 26.004C191.211 26.164 191.551 26.244 191.979 26.244C192.207 26.244 192.413 26.208 192.597 26.136C192.785 26.064 192.933 25.966 193.041 25.842C193.153 25.718 193.209 25.578 193.209 25.422C193.209 25.226 193.137 25.072 192.993 24.96C192.849 24.844 192.617 24.742 192.297 24.654L191.115 24.252C190.643 24.092 190.281 23.88 190.029 23.616C189.777 23.348 189.651 23.028 189.651 22.656C189.651 22.18 189.863 21.798 190.287 21.51C190.711 21.218 191.273 21.072 191.973 21.072C192.697 21.072 193.255 21.226 193.647 21.534C194.043 21.838 194.249 22.22 194.265 22.68H193.167C193.139 22.452 193.025 22.278 192.825 22.158C192.629 22.034 192.345 21.972 191.973 21.972C191.625 21.972 191.351 22.048 191.151 22.2C190.955 22.352 190.857 22.524 190.857 22.716C190.857 23.06 191.153 23.316 191.745 23.484L192.987 23.922C193.459 24.074 193.823 24.27 194.079 24.51C194.335 24.75 194.463 25.054 194.463 25.422C194.463 25.718 194.365 25.998 194.169 26.262C193.973 26.526 193.697 26.742 193.341 26.91C192.989 27.074 192.575 27.156 192.099 27.156ZM200.817 27.156C200.257 27.156 199.785 27.078 199.401 26.922C199.017 26.762 198.723 26.542 198.519 26.262C198.319 25.978 198.215 25.646 198.207 25.266H199.281C199.297 25.598 199.429 25.844 199.677 26.004C199.929 26.164 200.269 26.244 200.697 26.244C200.925 26.244 201.131 26.208 201.315 26.136C201.503 26.064 201.651 25.966 201.759 25.842C201.871 25.718 201.927 25.578 201.927 25.422C201.927 25.226 201.855 25.072 201.711 24.96C201.567 24.844 201.335 24.742 201.015 24.654L199.833 24.252C199.361 24.092 198.999 23.88 198.747 23.616C198.495 23.348 198.369 23.028 198.369 22.656C198.369 22.18 198.581 21.798 199.005 21.51C199.429 21.218 199.991 21.072 200.691 21.072C201.415 21.072 201.973 21.226 202.365 21.534C202.761 21.838 202.967 22.22 202.983 22.68H201.885C201.857 22.452 201.743 22.278 201.543 22.158C201.347 22.034 201.063 21.972 200.691 21.972C200.343 21.972 200.069 22.048 199.869 22.2C199.673 22.352 199.575 22.524 199.575 22.716C199.575 23.06 199.871 23.316 200.463 23.484L201.705 23.922C202.177 24.074 202.541 24.27 202.797 24.51C203.053 24.75 203.181 25.054 203.181 25.422C203.181 25.718 203.083 25.998 202.887 26.262C202.691 26.526 202.415 26.742 202.059 26.91C201.707 27.074 201.293 27.156 200.817 27.156ZM206.612 27.156C206.284 27.156 205.988 27.094 205.724 26.97C205.46 26.846 205.25 26.66 205.094 26.412C204.942 26.16 204.866 25.844 204.866 25.464V19.656H206V25.428C206 25.972 206.254 26.244 206.762 26.244C206.918 26.244 207.07 26.228 207.218 26.196C207.366 26.16 207.534 26.108 207.722 26.04L207.884 26.85C207.672 26.938 207.462 27.01 207.254 27.066C207.05 27.126 206.836 27.156 206.612 27.156ZM203.984 22.002V21.228H207.71V22.002H203.984ZM211.271 27.156C210.747 27.156 210.277 27.042 209.861 26.814C209.449 26.586 209.123 26.246 208.883 25.794C208.643 25.342 208.523 24.784 208.523 24.12C208.523 23.444 208.643 22.882 208.883 22.434C209.123 21.982 209.449 21.642 209.861 21.414C210.277 21.186 210.747 21.072 211.271 21.072C211.787 21.072 212.251 21.186 212.663 21.414C213.075 21.642 213.399 21.982 213.635 22.434C213.875 22.882 213.995 23.444 213.995 24.12C213.995 24.784 213.875 25.342 213.635 25.794C213.399 26.246 213.075 26.586 212.663 26.814C212.251 27.042 211.787 27.156 211.271 27.156ZM211.235 26.16C211.567 26.16 211.853 26.08 212.093 25.92C212.337 25.76 212.523 25.528 212.651 25.224C212.783 24.916 212.849 24.548 212.849 24.12C212.849 23.464 212.715 22.956 212.447 22.596C212.183 22.236 211.801 22.056 211.301 22.056C210.965 22.056 210.675 22.138 210.431 22.302C210.191 22.462 210.005 22.696 209.873 23.004C209.745 23.308 209.681 23.68 209.681 24.12C209.681 24.764 209.815 25.266 210.083 25.626C210.351 25.982 210.735 26.16 211.235 26.16ZM215.492 27V21.21H216.632V27H215.492ZM216.32 24.42C216.32 23.68 216.396 23.066 216.548 22.578C216.704 22.086 216.92 21.72 217.196 21.48C217.476 21.24 217.804 21.12 218.18 21.12C218.292 21.12 218.396 21.128 218.492 21.144C218.592 21.16 218.69 21.182 218.786 21.21L218.744 22.344C218.636 22.316 218.518 22.292 218.39 22.272C218.266 22.248 218.152 22.236 218.048 22.236C217.72 22.236 217.452 22.324 217.244 22.5C217.036 22.672 216.882 22.922 216.782 23.25C216.682 23.574 216.632 23.964 216.632 24.42H216.32ZM221.786 27.156C221.29 27.156 220.842 27.028 220.442 26.772C220.042 26.516 219.724 26.16 219.488 25.704C219.256 25.248 219.14 24.72 219.14 24.12C219.14 23.484 219.256 22.94 219.488 22.488C219.72 22.032 220.036 21.682 220.436 21.438C220.836 21.194 221.286 21.072 221.786 21.072C222.234 21.072 222.618 21.164 222.938 21.348C223.258 21.528 223.516 21.772 223.712 22.08C223.908 22.384 224.042 22.73 224.114 23.118C224.19 23.506 224.204 23.906 224.156 24.318H220.052V23.658H223.376L223.1 23.838C223.112 23.622 223.1 23.406 223.064 23.19C223.032 22.974 222.968 22.776 222.872 22.596C222.776 22.412 222.64 22.266 222.464 22.158C222.292 22.046 222.072 21.99 221.804 21.99C221.468 21.99 221.186 22.074 220.958 22.242C220.734 22.41 220.564 22.636 220.448 22.92C220.332 23.2 220.274 23.508 220.274 23.844V24.306C220.274 24.678 220.33 25.008 220.442 25.296C220.554 25.584 220.72 25.812 220.94 25.98C221.164 26.144 221.446 26.226 221.786 26.226C222.118 26.226 222.392 26.148 222.608 25.992C222.828 25.836 222.964 25.602 223.016 25.29H224.18C224.12 25.666 223.982 25.994 223.766 26.274C223.55 26.554 223.272 26.772 222.932 26.928C222.596 27.08 222.214 27.156 221.786 27.156ZM227.792 27.156C227.32 27.156 226.886 27.03 226.49 26.778C226.094 26.522 225.778 26.166 225.542 25.71C225.31 25.25 225.194 24.71 225.194 24.09C225.194 23.474 225.308 22.94 225.536 22.488C225.768 22.036 226.074 21.688 226.454 21.444C226.834 21.196 227.256 21.072 227.72 21.072C228.144 21.072 228.514 21.176 228.83 21.384C229.146 21.588 229.39 21.886 229.562 22.278C229.738 22.67 229.826 23.148 229.826 23.712H229.43C229.43 23.364 229.36 23.07 229.22 22.83C229.08 22.586 228.898 22.402 228.674 22.278C228.45 22.154 228.21 22.092 227.954 22.092C227.654 22.092 227.382 22.174 227.138 22.338C226.898 22.498 226.706 22.728 226.562 23.028C226.422 23.324 226.352 23.678 226.352 24.09C226.352 24.506 226.422 24.868 226.562 25.176C226.706 25.48 226.898 25.714 227.138 25.878C227.382 26.042 227.652 26.124 227.948 26.124C228.192 26.124 228.426 26.06 228.65 25.932C228.878 25.8 229.064 25.612 229.208 25.368C229.356 25.124 229.43 24.834 229.43 24.498H229.826C229.826 25.074 229.734 25.56 229.55 25.956C229.37 26.352 229.126 26.652 228.818 26.856C228.51 27.056 228.168 27.156 227.792 27.156ZM229.628 27L229.43 25.614V18.798H230.576V27H229.628ZM237.49 27.156C236.966 27.156 236.496 27.042 236.08 26.814C235.668 26.586 235.342 26.246 235.102 25.794C234.862 25.342 234.742 24.784 234.742 24.12C234.742 23.444 234.862 22.882 235.102 22.434C235.342 21.982 235.668 21.642 236.08 21.414C236.496 21.186 236.966 21.072 237.49 21.072C238.006 21.072 238.47 21.186 238.882 21.414C239.294 21.642 239.618 21.982 239.854 22.434C240.094 22.882 240.214 23.444 240.214 24.12C240.214 24.784 240.094 25.342 239.854 25.794C239.618 26.246 239.294 26.586 238.882 26.814C238.47 27.042 238.006 27.156 237.49 27.156ZM237.454 26.16C237.786 26.16 238.072 26.08 238.312 25.92C238.556 25.76 238.742 25.528 238.87 25.224C239.002 24.916 239.068 24.548 239.068 24.12C239.068 23.464 238.934 22.956 238.666 22.596C238.402 22.236 238.02 22.056 237.52 22.056C237.184 22.056 236.894 22.138 236.65 22.302C236.41 22.462 236.224 22.696 236.092 23.004C235.964 23.308 235.9 23.68 235.9 24.12C235.9 24.764 236.034 25.266 236.302 25.626C236.57 25.982 236.954 26.16 237.454 26.16ZM241.711 27V21.21H242.851V27H241.711ZM242.539 24.42C242.539 23.68 242.615 23.066 242.767 22.578C242.923 22.086 243.139 21.72 243.415 21.48C243.695 21.24 244.023 21.12 244.399 21.12C244.511 21.12 244.615 21.128 244.711 21.144C244.811 21.16 244.909 21.182 245.005 21.21L244.963 22.344C244.855 22.316 244.737 22.292 244.609 22.272C244.485 22.248 244.371 22.236 244.267 22.236C243.939 22.236 243.671 22.324 243.463 22.5C243.255 22.672 243.101 22.922 243.001 23.25C242.901 23.574 242.851 23.964 242.851 24.42H242.539ZM250.713 27.156C250.153 27.156 249.681 27.078 249.297 26.922C248.913 26.762 248.619 26.542 248.415 26.262C248.215 25.978 248.111 25.646 248.103 25.266H249.177C249.193 25.598 249.325 25.844 249.573 26.004C249.825 26.164 250.165 26.244 250.593 26.244C250.821 26.244 251.027 26.208 251.211 26.136C251.399 26.064 251.547 25.966 251.655 25.842C251.767 25.718 251.823 25.578 251.823 25.422C251.823 25.226 251.751 25.072 251.607 24.96C251.463 24.844 251.231 24.742 250.911 24.654L249.729 24.252C249.257 24.092 248.895 23.88 248.643 23.616C248.391 23.348 248.265 23.028 248.265 22.656C248.265 22.18 248.477 21.798 248.901 21.51C249.325 21.218 249.887 21.072 250.587 21.072C251.311 21.072 251.869 21.226 252.261 21.534C252.657 21.838 252.863 22.22 252.879 22.68H251.781C251.753 22.452 251.639 22.278 251.439 22.158C251.243 22.034 250.959 21.972 250.587 21.972C250.239 21.972 249.965 22.048 249.765 22.2C249.569 22.352 249.471 22.524 249.471 22.716C249.471 23.06 249.767 23.316 250.359 23.484L251.601 23.922C252.073 24.074 252.437 24.27 252.693 24.51C252.949 24.75 253.077 25.054 253.077 25.422C253.077 25.718 252.979 25.998 252.783 26.262C252.587 26.526 252.311 26.742 251.955 26.91C251.603 27.074 251.189 27.156 250.713 27.156ZM256.723 27.156C256.227 27.156 255.779 27.028 255.379 26.772C254.979 26.516 254.661 26.16 254.425 25.704C254.193 25.248 254.077 24.72 254.077 24.12C254.077 23.484 254.193 22.94 254.425 22.488C254.657 22.032 254.973 21.682 255.373 21.438C255.773 21.194 256.223 21.072 256.723 21.072C257.171 21.072 257.555 21.164 257.875 21.348C258.195 21.528 258.453 21.772 258.649 22.08C258.845 22.384 258.979 22.73 259.051 23.118C259.127 23.506 259.141 23.906 259.093 24.318H254.989V23.658H258.313L258.037 23.838C258.049 23.622 258.037 23.406 258.001 23.19C257.969 22.974 257.905 22.776 257.809 22.596C257.713 22.412 257.577 22.266 257.401 22.158C257.229 22.046 257.009 21.99 256.741 21.99C256.405 21.99 256.123 22.074 255.895 22.242C255.671 22.41 255.501 22.636 255.385 22.92C255.269 23.2 255.211 23.508 255.211 23.844V24.306C255.211 24.678 255.267 25.008 255.379 25.296C255.491 25.584 255.657 25.812 255.877 25.98C256.101 26.144 256.383 26.226 256.723 26.226C257.055 26.226 257.329 26.148 257.545 25.992C257.765 25.836 257.901 25.602 257.953 25.29H259.117C259.057 25.666 258.919 25.994 258.703 26.274C258.487 26.554 258.209 26.772 257.869 26.928C257.533 27.08 257.151 27.156 256.723 27.156ZM264.679 27V23.616C264.679 23.116 264.559 22.738 264.319 22.482C264.083 22.222 263.763 22.092 263.359 22.092C263.039 22.092 262.759 22.18 262.519 22.356C262.283 22.528 262.099 22.782 261.967 23.118C261.839 23.45 261.775 23.856 261.775 24.336H261.367C261.367 23.628 261.457 23.032 261.637 22.548C261.821 22.064 262.083 21.698 262.423 21.45C262.763 21.198 263.171 21.072 263.647 21.072C264.111 21.072 264.503 21.176 264.823 21.384C265.147 21.592 265.393 21.888 265.561 22.272C265.729 22.652 265.813 23.1 265.813 23.616V27H264.679ZM260.635 27V21.228H261.625L261.775 22.476V27H260.635ZM269.573 27.156C269.245 27.156 268.949 27.094 268.685 26.97C268.421 26.846 268.211 26.66 268.055 26.412C267.903 26.16 267.827 25.844 267.827 25.464V19.656H268.961V25.428C268.961 25.972 269.215 26.244 269.723 26.244C269.879 26.244 270.031 26.228 270.179 26.196C270.327 26.16 270.495 26.108 270.683 26.04L270.845 26.85C270.633 26.938 270.423 27.01 270.215 27.066C270.011 27.126 269.797 27.156 269.573 27.156ZM266.945 22.002V21.228H270.671V22.002H266.945ZM271.22 26.328C271.22 26.104 271.296 25.914 271.448 25.758C271.604 25.602 271.8 25.524 272.036 25.524C272.272 25.524 272.472 25.602 272.636 25.758C272.8 25.914 272.882 26.104 272.882 26.328C272.882 26.548 272.8 26.734 272.636 26.886C272.472 27.034 272.272 27.108 272.036 27.108C271.8 27.108 271.604 27.032 271.448 26.88C271.296 26.728 271.22 26.544 271.22 26.328Z" fill="#1E1E1E"/>
</svg>
