<svg width="62" height="72" viewBox="0 0 62 72" fill="none" xmlns="http://www.w3.org/2000/svg">
<rect x="0.5" y="8.5" width="61" height="63" rx="8.5" fill="#0052FF" stroke="#DCDCDC"/>
<path d="M22.3688 4.12918L22.4953 4.21429H22.6478H58.7784C59.4988 4.21429 60.1906 4.50294 60.7013 5.01819C61.2122 5.53358 61.5 6.23353 61.5 6.96429V16.5H0.5V3.25C0.5 2.51925 0.787795 1.8193 1.29869 1.3039C1.80943 0.788655 2.50121 0.5 3.2216 0.5H16.9726L22.3688 4.12918Z" fill="#0052FF" stroke="#DCDCDC"/>
<path d="M9.22146 40L12.514 30.355H14.5165L17.6965 40H16.009L15.2965 37.81H11.644L10.924 40H9.22146ZM12.0565 36.595H14.914L13.489 32.275L12.0565 36.595ZM23.4614 40.2025C22.9314 40.2025 22.4764 40.0875 22.0964 39.8575C21.7164 39.6225 21.4264 39.2725 21.2264 38.8075C21.0264 38.3425 20.9264 37.7625 20.9264 37.0675H21.5264C21.5264 37.4225 21.6064 37.725 21.7664 37.975C21.9264 38.225 22.1364 38.4175 22.3964 38.5525C22.6614 38.6825 22.9414 38.7475 23.2364 38.7475C23.5514 38.7475 23.8589 38.66 24.1589 38.485C24.4589 38.31 24.7064 38.0475 24.9014 37.6975C25.0964 37.3425 25.1939 36.9 25.1939 36.37C25.1939 35.875 25.1089 35.45 24.9389 35.095C24.7689 34.74 24.5389 34.4675 24.2489 34.2775C23.9589 34.0875 23.6314 33.9925 23.2664 33.9925C22.9564 33.9925 22.6689 34.065 22.4039 34.21C22.1389 34.35 21.9264 34.5575 21.7664 34.8325C21.6064 35.1025 21.5264 35.435 21.5264 35.83H20.9264C20.9264 35.085 21.0439 34.47 21.2789 33.985C21.5139 33.5 21.8289 33.14 22.2239 32.905C22.6189 32.67 23.0514 32.5525 23.5214 32.5525C24.0964 32.5525 24.6339 32.705 25.1339 33.01C25.6339 33.31 26.0389 33.745 26.3489 34.315C26.6589 34.885 26.8139 35.57 26.8139 36.37C26.8139 37.175 26.6564 37.8625 26.3414 38.4325C26.0314 39.0025 25.6189 39.44 25.1039 39.745C24.5939 40.05 24.0464 40.2025 23.4614 40.2025ZM19.9214 43.5475V32.755H21.2489L21.5264 34.5175V43.5475H19.9214ZM32.9495 40.2025C32.4195 40.2025 31.9645 40.0875 31.5845 39.8575C31.2045 39.6225 30.9145 39.2725 30.7145 38.8075C30.5145 38.3425 30.4145 37.7625 30.4145 37.0675H31.0145C31.0145 37.4225 31.0945 37.725 31.2545 37.975C31.4145 38.225 31.6245 38.4175 31.8845 38.5525C32.1495 38.6825 32.4295 38.7475 32.7245 38.7475C33.0395 38.7475 33.347 38.66 33.647 38.485C33.947 38.31 34.1945 38.0475 34.3895 37.6975C34.5845 37.3425 34.682 36.9 34.682 36.37C34.682 35.875 34.597 35.45 34.427 35.095C34.257 34.74 34.027 34.4675 33.737 34.2775C33.447 34.0875 33.1195 33.9925 32.7545 33.9925C32.4445 33.9925 32.157 34.065 31.892 34.21C31.627 34.35 31.4145 34.5575 31.2545 34.8325C31.0945 35.1025 31.0145 35.435 31.0145 35.83H30.4145C30.4145 35.085 30.532 34.47 30.767 33.985C31.002 33.5 31.317 33.14 31.712 32.905C32.107 32.67 32.5395 32.5525 33.0095 32.5525C33.5845 32.5525 34.122 32.705 34.622 33.01C35.122 33.31 35.527 33.745 35.837 34.315C36.147 34.885 36.302 35.57 36.302 36.37C36.302 37.175 36.1445 37.8625 35.8295 38.4325C35.5195 39.0025 35.107 39.44 34.592 39.745C34.082 40.05 33.5345 40.2025 32.9495 40.2025ZM29.4095 43.5475V32.755H30.737L31.0145 34.5175V43.5475H29.4095ZM38.8976 40V29.725H40.5026V40H38.8976ZM44.7528 31.3225C44.4378 31.3225 44.1903 31.2375 44.0103 31.0675C43.8303 30.8925 43.7403 30.6575 43.7403 30.3625C43.7403 30.0725 43.8303 29.8425 44.0103 29.6725C44.1903 29.5025 44.4378 29.4175 44.7528 29.4175C45.0628 29.4175 45.3078 29.5025 45.4878 29.6725C45.6678 29.8425 45.7578 30.0725 45.7578 30.3625C45.7578 30.6575 45.6678 30.8925 45.4878 31.0675C45.3078 31.2375 45.0628 31.3225 44.7528 31.3225ZM43.9503 40V32.725H45.5553V40H43.9503ZM48.2904 36.22V34.8175H52.4679V36.22H48.2904ZM11.5952 53.2025C10.9952 53.2025 10.4352 53.045 9.91521 52.73C9.40021 52.415 8.98271 51.97 8.66271 51.395C8.34771 50.82 8.19021 50.145 8.19021 49.37C8.19021 48.55 8.34771 47.8575 8.66271 47.2925C8.98271 46.7225 9.40021 46.29 9.91521 45.995C10.4352 45.7 10.9952 45.5525 11.5952 45.5525C12.0502 45.5525 12.4527 45.625 12.8027 45.77C13.1577 45.915 13.4602 46.11 13.7102 46.355C13.9602 46.6 14.1577 46.875 14.3027 47.18C14.4527 47.48 14.5527 47.7875 14.6027 48.1025L12.9752 48.1625C12.8852 47.8175 12.7202 47.5375 12.4802 47.3225C12.2452 47.1025 11.9452 46.9925 11.5802 46.9925C11.2752 46.9925 10.9877 47.0775 10.7177 47.2475C10.4527 47.4125 10.2352 47.67 10.0652 48.02C9.90021 48.37 9.81772 48.82 9.81772 49.37C9.81772 49.885 9.89521 50.32 10.0502 50.675C10.2052 51.025 10.4152 51.2925 10.6802 51.4775C10.9502 51.6575 11.2502 51.7475 11.5802 51.7475C12.0552 51.7475 12.4052 51.6325 12.6302 51.4025C12.8602 51.1675 12.9752 50.8525 12.9752 50.4575H14.6027C14.6027 50.9675 14.4852 51.43 14.2502 51.845C14.0152 52.26 13.6727 52.59 13.2227 52.835C12.7777 53.08 12.2352 53.2025 11.5952 53.2025ZM21.8086 53L21.6061 51.2825V48.32C21.6061 47.77 21.4936 47.3675 21.2686 47.1125C21.0436 46.8575 20.6761 46.73 20.1661 46.73C19.8711 46.73 19.6136 46.7725 19.3936 46.8575C19.1736 46.9425 19.0011 47.07 18.8761 47.24C18.7561 47.405 18.6961 47.61 18.6961 47.855H16.9336C16.9336 47.31 17.0636 46.87 17.3236 46.535C17.5886 46.195 17.9611 45.9475 18.4411 45.7925C18.9261 45.6325 19.5011 45.5525 20.1661 45.5525C20.7711 45.5525 21.3011 45.6525 21.7561 45.8525C22.2161 46.0475 22.5736 46.3525 22.8286 46.7675C23.0836 47.1825 23.2111 47.7175 23.2111 48.3725V53H21.8086ZM19.4086 53.2025C18.7936 53.2025 18.2811 53.095 17.8711 52.88C17.4661 52.665 17.1611 52.3825 16.9561 52.0325C16.7511 51.6825 16.6486 51.305 16.6486 50.9C16.6486 50.435 16.7686 50.0475 17.0086 49.7375C17.2536 49.4275 17.5936 49.1975 18.0286 49.0475C18.4686 48.8925 18.9811 48.815 19.5661 48.815C19.9561 48.815 20.3286 48.8475 20.6836 48.9125C21.0436 48.9725 21.4011 49.0575 21.7561 49.1675V50.12C21.4711 50.02 21.1586 49.9425 20.8186 49.8875C20.4836 49.8325 20.1686 49.805 19.8736 49.805C19.4386 49.805 19.0761 49.89 18.7861 50.06C18.5011 50.225 18.3586 50.505 18.3586 50.9C18.3586 51.195 18.4736 51.4475 18.7036 51.6575C18.9336 51.8675 19.2986 51.9725 19.7986 51.9725C20.1686 51.9725 20.4886 51.89 20.7586 51.725C21.0286 51.555 21.2361 51.345 21.3811 51.095C21.5311 50.845 21.6061 50.5975 21.6061 50.3525H21.9886C21.9886 50.8625 21.8886 51.335 21.6886 51.77C21.4936 52.2 21.2036 52.5475 20.8186 52.8125C20.4386 53.0725 19.9686 53.2025 19.4086 53.2025ZM28.6965 53.2025C28.2765 53.2025 27.894 53.125 27.549 52.97C27.209 52.81 26.9365 52.57 26.7315 52.25C26.5265 51.925 26.424 51.5175 26.424 51.0275V43.805H28.0215V50.975C28.0215 51.61 28.324 51.9275 28.929 51.9275C29.114 51.9275 29.2965 51.9075 29.4765 51.8675C29.6565 51.8275 29.859 51.765 30.084 51.68L30.3165 52.8125C30.0465 52.9225 29.779 53.015 29.514 53.09C29.254 53.165 28.9815 53.2025 28.6965 53.2025ZM25.3665 46.8275V45.755H30.084V46.8275H25.3665ZM33.5362 44.3225C33.2212 44.3225 32.9737 44.2375 32.7937 44.0675C32.6137 43.8925 32.5237 43.6575 32.5237 43.3625C32.5237 43.0725 32.6137 42.8425 32.7937 42.6725C32.9737 42.5025 33.2212 42.4175 33.5362 42.4175C33.8462 42.4175 34.0912 42.5025 34.2712 42.6725C34.4512 42.8425 34.5412 43.0725 34.5412 43.3625C34.5412 43.6575 34.4512 43.8925 34.2712 44.0675C34.0912 44.2375 33.8462 44.3225 33.5362 44.3225ZM32.7337 53V45.725H34.3387V53H32.7337ZM40.6288 53.2025C39.9738 53.2025 39.3813 53.06 38.8513 52.775C38.3263 52.49 37.9088 52.065 37.5988 51.5C37.2888 50.935 37.1338 50.23 37.1338 49.385C37.1338 48.525 37.2888 47.8125 37.5988 47.2475C37.9088 46.6825 38.3263 46.26 38.8513 45.98C39.3813 45.695 39.9738 45.5525 40.6288 45.5525C41.2838 45.5525 41.8713 45.695 42.3913 45.98C42.9163 46.26 43.3313 46.6825 43.6363 47.2475C43.9463 47.8125 44.1013 48.525 44.1013 49.385C44.1013 50.23 43.9463 50.935 43.6363 51.5C43.3313 52.065 42.9163 52.49 42.3913 52.775C41.8713 53.06 41.2838 53.2025 40.6288 53.2025ZM40.5838 51.8C40.9638 51.8 41.2963 51.7075 41.5813 51.5225C41.8713 51.3375 42.0963 51.065 42.2563 50.705C42.4163 50.345 42.4963 49.905 42.4963 49.385C42.4963 48.59 42.3363 47.985 42.0163 47.57C41.7013 47.15 41.2563 46.94 40.6813 46.94C40.2963 46.94 39.9588 47.0325 39.6688 47.2175C39.3838 47.4025 39.1613 47.6775 39.0013 48.0425C38.8413 48.4075 38.7613 48.855 38.7613 49.385C38.7613 50.165 38.9213 50.7625 39.2413 51.1775C39.5613 51.5925 40.0088 51.8 40.5838 51.8ZM51.722 53V48.755C51.722 48.175 51.582 47.7375 51.302 47.4425C51.027 47.1425 50.6595 46.9925 50.1995 46.9925C49.8245 46.9925 49.4945 47.095 49.2095 47.3C48.9245 47.505 48.702 47.81 48.542 48.215C48.382 48.62 48.302 49.1175 48.302 49.7075H47.7545C47.7545 48.7925 47.8695 48.0275 48.0995 47.4125C48.3345 46.7975 48.6645 46.335 49.0895 46.025C49.5195 45.71 50.027 45.5525 50.612 45.5525C51.202 45.5525 51.697 45.685 52.097 45.95C52.502 46.215 52.807 46.5875 53.012 47.0675C53.222 47.5475 53.327 48.11 53.327 48.755V53H51.722ZM46.697 53V45.755H48.0995L48.302 47.255V53H46.697Z" fill="black"/>
</svg>
