<svg width="388" height="84" viewBox="0 0 388 84" fill="none" xmlns="http://www.w3.org/2000/svg">
<rect x="292.5" y="0.5" width="81" height="83" rx="13.5" fill="white" stroke="#DCDCDC"/>
<rect x="195.5" y="0.5" width="81" height="83" rx="13.5" fill="white" stroke="#DCDCDC"/>
<rect x="106.5" y="0.5" width="81" height="83" rx="13.5" fill="white" stroke="#DCDCDC"/>
<rect x="14.5" y="0.5" width="81" height="83" rx="13.5" fill="white" stroke="#DCDCDC"/>
<path d="M206.148 27.2H215.988L224.388 56.64H223.428L231.348 29.28H239.908L247.828 56.72H246.868L255.268 27.2H264.708L251.908 66H242.628L234.708 40.24H236.148L228.388 66H219.028L206.148 27.2Z" fill="black"/>
<path d="M36.0025 67V15.08H56.9625C60.9625 15.08 64.2825 15.7067 66.9225 16.96C69.5625 18.1867 71.5358 19.84 72.8425 21.92C74.1492 24 74.8025 26.3067 74.8025 28.84C74.8025 31.7733 73.9758 34.28 72.3225 36.36C70.6958 38.44 68.4025 39.9067 65.4425 40.76C67.3892 41.16 69.1358 41.8933 70.6825 42.96C72.2292 44.0267 73.4425 45.3733 74.3225 47C75.2292 48.6267 75.6825 50.4933 75.6825 52.6C75.6825 54.2533 75.3892 55.92 74.8025 57.6C74.2425 59.28 73.2558 60.84 71.8425 62.28C70.4558 63.6933 68.5492 64.84 66.1225 65.72C63.7225 66.5733 60.6958 67 57.0425 67H36.0025ZM45.4425 58.76H56.8025C59.8158 58.76 62.0158 58.16 63.4025 56.96C64.8158 55.7333 65.5225 54.0933 65.5225 52.04C65.5225 49.9867 64.8025 48.3467 63.3625 47.12C61.9225 45.8667 59.7358 45.24 56.8025 45.24H45.4425V58.76ZM45.4425 23.24V37H56.5625C59.3625 37 61.4825 36.3867 62.9225 35.16C64.3892 33.9067 65.1225 32.2 65.1225 30.04C65.1225 27.9867 64.4025 26.3467 62.9625 25.12C61.5492 23.8667 59.4425 23.24 56.6425 23.24H45.4425Z" fill="black"/>
<path d="M146.5 66C157.822 66 167 56.8218 167 45.5C167 34.1782 157.822 25 146.5 25C135.178 25 126 34.1782 126 45.5C126 56.8218 135.178 66 146.5 66Z" fill="#E3A2F4"/>
<path d="M329.243 67L334.363 12.12H342.923L337.723 67H329.243Z" fill="#FFE090"/>
</svg>
