<svg width="298" height="36" viewBox="0 0 298 36" fill="none" xmlns="http://www.w3.org/2000/svg">
<path d="M10.3816 27.486C8.35358 27.486 6.58958 26.994 5.08958 26.01C3.58958 25.026 2.42558 23.628 1.59758 21.816C0.781584 20.004 0.373584 17.844 0.373584 15.336C0.373584 12.732 0.805584 10.548 1.66958 8.784C2.53358 7.008 3.72158 5.67 5.23358 4.77C6.74558 3.858 8.46158 3.402 10.3816 3.402C13.0216 3.402 15.0976 4.05 16.6096 5.346C18.1336 6.63 19.1236 8.298 19.5796 10.35L15.4576 11.124C15.0616 9.852 14.4256 8.826 13.5496 8.046C12.6856 7.266 11.6296 6.876 10.3816 6.876C9.30158 6.876 8.31758 7.194 7.42958 7.83C6.54158 8.454 5.83358 9.396 5.30558 10.656C4.78958 11.904 4.53158 13.464 4.53158 15.336C4.53158 17.088 4.75358 18.612 5.19758 19.908C5.65358 21.192 6.31358 22.188 7.17758 22.896C8.05358 23.604 9.12158 23.958 10.3816 23.958C11.9776 23.958 13.2196 23.532 14.1076 22.68C15.0076 21.828 15.4576 20.736 15.4576 19.404H19.5976C19.5976 21.108 19.2196 22.56 18.4636 23.76C17.7196 24.96 16.6576 25.884 15.2776 26.532C13.9096 27.168 12.2776 27.486 10.3816 27.486ZM23.9691 27V9.63H27.3891V27H23.9691ZM26.4531 19.26C26.4531 17.04 26.6811 15.198 27.1371 13.734C27.6051 12.258 28.2531 11.16 29.0811 10.44C29.9211 9.72 30.9051 9.36 32.0331 9.36C32.3691 9.36 32.6811 9.384 32.9691 9.432C33.2691 9.48 33.5631 9.546 33.8511 9.63L33.7251 13.032C33.4011 12.948 33.0471 12.876 32.6631 12.816C32.2911 12.744 31.9491 12.708 31.6371 12.708C30.6531 12.708 29.8491 12.972 29.2251 13.5C28.6011 14.016 28.1391 14.766 27.8391 15.75C27.5391 16.722 27.3891 17.892 27.3891 19.26H26.4531ZM47.4959 27L47.0639 23.022V15.804C47.0639 14.388 46.7699 13.362 46.1819 12.726C45.5939 12.078 44.6639 11.754 43.3919 11.754C42.6719 11.754 42.0299 11.862 41.4659 12.078C40.9139 12.282 40.4759 12.594 40.1519 13.014C39.8399 13.434 39.6839 13.962 39.6839 14.598H35.9039C35.9039 13.326 36.2159 12.294 36.8399 11.502C37.4639 10.71 38.3339 10.134 39.4499 9.774C40.5779 9.402 41.8919 9.216 43.3919 9.216C44.7959 9.216 46.0319 9.45 47.0999 9.918C48.1679 10.374 48.9959 11.094 49.5839 12.078C50.1839 13.062 50.4839 14.334 50.4839 15.894V27H47.4959ZM41.6999 27.468C40.2479 27.468 39.0419 27.216 38.0819 26.712C37.1219 26.196 36.4019 25.524 35.9219 24.696C35.4539 23.868 35.2199 22.986 35.2199 22.05C35.2199 20.91 35.5079 19.974 36.0839 19.242C36.6719 18.498 37.4819 17.946 38.5139 17.586C39.5459 17.226 40.7339 17.046 42.0779 17.046C43.0019 17.046 43.9019 17.13 44.7779 17.298C45.6539 17.466 46.5179 17.688 47.3699 17.964V20.034C46.6739 19.782 45.8999 19.584 45.0479 19.44C44.2079 19.284 43.4219 19.206 42.6899 19.206C41.5979 19.206 40.6859 19.422 39.9539 19.854C39.2219 20.286 38.8559 21.018 38.8559 22.05C38.8559 22.806 39.1439 23.46 39.7199 24.012C40.2959 24.552 41.2079 24.822 42.4559 24.822C43.3679 24.822 44.1719 24.618 44.8679 24.21C45.5639 23.79 46.1039 23.268 46.4879 22.644C46.8719 22.02 47.0639 21.396 47.0639 20.772H47.8919C47.8919 21.972 47.6459 23.082 47.1539 24.102C46.6739 25.11 45.9719 25.926 45.0479 26.55C44.1239 27.162 43.0079 27.468 41.6999 27.468ZM57.1774 27V7.254C57.1774 6.054 57.4054 5.082 57.8614 4.338C58.3294 3.582 58.9474 3.024 59.7154 2.664C60.4834 2.304 61.3294 2.124 62.2534 2.124C62.7814 2.124 63.3214 2.16 63.8734 2.232C64.4374 2.304 64.9894 2.412 65.5294 2.556L64.8814 5.22C64.5454 5.1 64.2034 5.004 63.8554 4.932C63.5194 4.86 63.1954 4.824 62.8834 4.824C62.5114 4.824 62.1514 4.896 61.8034 5.04C61.4554 5.172 61.1674 5.418 60.9394 5.778C60.7234 6.138 60.6154 6.648 60.6154 7.308V27H57.1774ZM54.4594 12.006V9.684H64.0174V12.006H54.4594ZM72.3528 7.074C71.3328 7.074 70.5708 6.786 70.0668 6.21C69.5748 5.622 69.3588 4.794 69.4188 3.726C69.5148 2.682 69.8808 1.872 70.5168 1.296C71.1528 0.707998 71.9568 0.413998 72.9288 0.413998C73.9248 0.413998 74.6748 0.707998 75.1788 1.296C75.6828 1.884 75.9048 2.694 75.8448 3.726C75.7488 4.782 75.3888 5.604 74.7648 6.192C74.1408 6.78 73.3368 7.074 72.3528 7.074ZM67.8528 27L69.5628 9.126H74.8908L73.1808 27H67.8528ZM85.355 27.468C83.939 27.468 82.619 27.09 81.395 26.334C80.171 25.578 79.187 24.516 78.443 23.148C77.699 21.78 77.327 20.172 77.327 18.324C77.327 16.38 77.699 14.736 78.443 13.392C79.187 12.036 80.171 11.004 81.395 10.296C82.619 9.576 83.939 9.216 85.355 9.216C86.399 9.216 87.329 9.384 88.145 9.72C88.961 10.044 89.663 10.488 90.251 11.052C90.839 11.604 91.313 12.228 91.673 12.924C92.045 13.62 92.303 14.34 92.447 15.084L88.973 15.264C88.721 14.364 88.277 13.644 87.641 13.104C87.017 12.552 86.243 12.276 85.319 12.276C84.539 12.276 83.801 12.498 83.105 12.942C82.421 13.374 81.863 14.04 81.431 14.94C81.011 15.828 80.801 16.956 80.801 18.324C80.801 19.596 80.999 20.682 81.395 21.582C81.791 22.482 82.331 23.172 83.015 23.652C83.699 24.132 84.467 24.372 85.319 24.372C86.543 24.372 87.455 24.078 88.055 23.49C88.667 22.89 88.973 22.068 88.973 21.024H92.447C92.447 22.236 92.165 23.328 91.601 24.3C91.037 25.272 90.221 26.046 89.153 26.622C88.097 27.186 86.831 27.468 85.355 27.468ZM108.7 9.63H112.138V27H108.7V9.63ZM96.6044 9.63H100.024V20.358C100.024 21.666 100.342 22.656 100.978 23.328C101.626 24 102.532 24.336 103.696 24.336C104.68 24.336 105.544 24.078 106.288 23.562C107.044 23.046 107.632 22.314 108.052 21.366C108.484 20.418 108.7 19.296 108.7 18H109.798C109.798 20.028 109.522 21.732 108.97 23.112C108.418 24.492 107.644 25.542 106.648 26.262C105.652 26.97 104.488 27.324 103.156 27.324C101.884 27.324 100.75 27.09 99.7544 26.622C98.7704 26.154 97.9964 25.434 97.4324 24.462C96.8804 23.478 96.6044 22.212 96.6044 20.664V9.63ZM118.358 27V2.394H121.778V27H118.358ZM138.861 27L138.429 23.022V15.804C138.429 14.388 138.135 13.362 137.547 12.726C136.959 12.078 136.029 11.754 134.757 11.754C134.037 11.754 133.395 11.862 132.831 12.078C132.279 12.282 131.841 12.594 131.517 13.014C131.205 13.434 131.049 13.962 131.049 14.598H127.269C127.269 13.326 127.581 12.294 128.205 11.502C128.829 10.71 129.699 10.134 130.815 9.774C131.943 9.402 133.257 9.216 134.757 9.216C136.161 9.216 137.397 9.45 138.465 9.918C139.533 10.374 140.361 11.094 140.949 12.078C141.549 13.062 141.849 14.334 141.849 15.894V27H138.861ZM133.065 27.468C131.613 27.468 130.407 27.216 129.447 26.712C128.487 26.196 127.767 25.524 127.287 24.696C126.819 23.868 126.585 22.986 126.585 22.05C126.585 20.91 126.873 19.974 127.449 19.242C128.037 18.498 128.847 17.946 129.879 17.586C130.911 17.226 132.099 17.046 133.443 17.046C134.367 17.046 135.267 17.13 136.143 17.298C137.019 17.466 137.883 17.688 138.735 17.964V20.034C138.039 19.782 137.265 19.584 136.413 19.44C135.573 19.284 134.787 19.206 134.055 19.206C132.963 19.206 132.051 19.422 131.319 19.854C130.587 20.286 130.221 21.018 130.221 22.05C130.221 22.806 130.509 23.46 131.085 24.012C131.661 24.552 132.573 24.822 133.821 24.822C134.733 24.822 135.537 24.618 136.233 24.21C136.929 23.79 137.469 23.268 137.853 22.644C138.237 22.02 138.429 21.396 138.429 20.772H139.257C139.257 21.972 139.011 23.082 138.519 24.102C138.039 25.11 137.337 25.926 136.413 26.55C135.489 27.162 134.373 27.468 133.065 27.468ZM153.133 27.468C152.149 27.468 151.261 27.282 150.469 26.91C149.677 26.538 149.047 25.98 148.579 25.236C148.123 24.48 147.895 23.532 147.895 22.392V4.968H151.297V22.284C151.297 23.916 152.059 24.732 153.583 24.732C154.051 24.732 154.507 24.684 154.951 24.588C155.395 24.48 155.899 24.324 156.463 24.12L156.949 26.55C156.313 26.814 155.683 27.03 155.059 27.198C154.447 27.378 153.805 27.468 153.133 27.468ZM145.249 12.006V9.684H156.427V12.006H145.249ZM166.805 27.468C165.317 27.468 163.973 27.084 162.773 26.316C161.573 25.548 160.619 24.48 159.911 23.112C159.215 21.744 158.867 20.16 158.867 18.36C158.867 16.452 159.215 14.82 159.911 13.464C160.607 12.096 161.555 11.046 162.755 10.314C163.955 9.582 165.305 9.216 166.805 9.216C168.149 9.216 169.301 9.492 170.261 10.044C171.221 10.584 171.995 11.316 172.583 12.24C173.171 13.152 173.573 14.19 173.789 15.354C174.017 16.518 174.059 17.718 173.915 18.954H161.603V16.974H171.575L170.747 17.514C170.783 16.866 170.747 16.218 170.639 15.57C170.543 14.922 170.351 14.328 170.063 13.788C169.775 13.236 169.367 12.798 168.839 12.474C168.323 12.138 167.663 11.97 166.859 11.97C165.851 11.97 165.005 12.222 164.321 12.726C163.649 13.23 163.139 13.908 162.791 14.76C162.443 15.6 162.269 16.524 162.269 17.532V18.918C162.269 20.034 162.437 21.024 162.773 21.888C163.109 22.752 163.607 23.436 164.267 23.94C164.939 24.432 165.785 24.678 166.805 24.678C167.801 24.678 168.623 24.444 169.271 23.976C169.931 23.508 170.339 22.806 170.495 21.87H173.987C173.807 22.998 173.393 23.982 172.745 24.822C172.097 25.662 171.263 26.316 170.243 26.784C169.235 27.24 168.089 27.468 166.805 27.468ZM194.445 27V3.852H202.887C205.623 3.852 207.711 4.494 209.151 5.778C210.603 7.062 211.329 8.76 211.329 10.872C211.329 12.96 210.603 14.646 209.151 15.93C207.711 17.214 205.623 17.856 202.887 17.856H198.297V27H194.445ZM207.099 27L200.835 16.236H204.957L212.121 27H207.099ZM198.297 15.246H202.509C204.105 15.246 205.317 14.874 206.145 14.13C206.973 13.374 207.387 12.402 207.387 11.214C207.387 9.99 207.003 9.012 206.235 8.28C205.479 7.536 204.363 7.164 202.887 7.164H198.297V15.246ZM222.805 27.468C221.317 27.468 219.973 27.084 218.773 26.316C217.573 25.548 216.619 24.48 215.911 23.112C215.215 21.744 214.867 20.16 214.867 18.36C214.867 16.452 215.215 14.82 215.911 13.464C216.607 12.096 217.555 11.046 218.755 10.314C219.955 9.582 221.305 9.216 222.805 9.216C224.149 9.216 225.301 9.492 226.261 10.044C227.221 10.584 227.995 11.316 228.583 12.24C229.171 13.152 229.573 14.19 229.789 15.354C230.017 16.518 230.059 17.718 229.915 18.954H217.603V16.974H227.575L226.747 17.514C226.783 16.866 226.747 16.218 226.639 15.57C226.543 14.922 226.351 14.328 226.063 13.788C225.775 13.236 225.367 12.798 224.839 12.474C224.323 12.138 223.663 11.97 222.859 11.97C221.851 11.97 221.005 12.222 220.321 12.726C219.649 13.23 219.139 13.908 218.791 14.76C218.443 15.6 218.269 16.524 218.269 17.532V18.918C218.269 20.034 218.437 21.024 218.773 21.888C219.109 22.752 219.607 23.436 220.267 23.94C220.939 24.432 221.785 24.678 222.805 24.678C223.801 24.678 224.623 24.444 225.271 23.976C225.931 23.508 226.339 22.806 226.495 21.87H229.987C229.807 22.998 229.393 23.982 228.745 24.822C228.097 25.662 227.263 26.316 226.243 26.784C225.235 27.24 224.089 27.468 222.805 27.468ZM240.841 27.468C239.425 27.468 238.105 27.09 236.881 26.334C235.657 25.578 234.673 24.516 233.929 23.148C233.185 21.78 232.813 20.172 232.813 18.324C232.813 16.38 233.185 14.736 233.929 13.392C234.673 12.036 235.657 11.004 236.881 10.296C238.105 9.576 239.425 9.216 240.841 9.216C241.885 9.216 242.815 9.384 243.631 9.72C244.447 10.044 245.149 10.488 245.737 11.052C246.325 11.604 246.799 12.228 247.159 12.924C247.531 13.62 247.789 14.34 247.933 15.084L244.459 15.264C244.207 14.364 243.763 13.644 243.127 13.104C242.503 12.552 241.729 12.276 240.805 12.276C240.025 12.276 239.287 12.498 238.591 12.942C237.907 13.374 237.349 14.04 236.917 14.94C236.497 15.828 236.287 16.956 236.287 18.324C236.287 19.596 236.485 20.682 236.881 21.582C237.277 22.482 237.817 23.172 238.501 23.652C239.185 24.132 239.953 24.372 240.805 24.372C242.029 24.372 242.941 24.078 243.541 23.49C244.153 22.89 244.459 22.068 244.459 21.024H247.933C247.933 22.236 247.651 23.328 247.087 24.3C246.523 25.272 245.707 26.046 244.639 26.622C243.583 27.186 242.317 27.468 240.841 27.468ZM256.771 7.074C255.751 7.074 254.989 6.786 254.485 6.21C253.993 5.622 253.777 4.794 253.837 3.726C253.933 2.682 254.299 1.872 254.935 1.296C255.571 0.707998 256.375 0.413998 257.347 0.413998C258.343 0.413998 259.093 0.707998 259.597 1.296C260.101 1.884 260.323 2.694 260.263 3.726C260.167 4.782 259.807 5.604 259.183 6.192C258.559 6.78 257.755 7.074 256.771 7.074ZM252.271 27L253.981 9.126H259.309L257.599 27H252.271ZM271.681 27.468C270.421 27.468 269.329 27.186 268.405 26.622C267.481 26.046 266.773 25.206 266.281 24.102C265.801 22.986 265.561 21.606 265.561 19.962H266.893C266.893 20.91 267.097 21.714 267.505 22.374C267.913 23.022 268.447 23.52 269.107 23.868C269.779 24.204 270.493 24.372 271.249 24.372C272.041 24.372 272.809 24.15 273.553 23.706C274.309 23.25 274.927 22.572 275.407 21.672C275.887 20.772 276.127 19.656 276.127 18.324C276.127 17.052 275.911 15.966 275.479 15.066C275.059 14.166 274.483 13.476 273.751 12.996C273.019 12.516 272.197 12.276 271.285 12.276C270.517 12.276 269.797 12.462 269.125 12.834C268.453 13.194 267.913 13.728 267.505 14.436C267.097 15.132 266.893 15.984 266.893 16.992H265.561C265.561 15.252 265.837 13.806 266.389 12.654C266.953 11.502 267.709 10.644 268.657 10.08C269.605 9.504 270.655 9.216 271.807 9.216C273.163 9.216 274.435 9.582 275.623 10.314C276.811 11.034 277.771 12.072 278.503 13.428C279.247 14.784 279.619 16.416 279.619 18.324C279.619 20.232 279.247 21.87 278.503 23.238C277.759 24.606 276.781 25.656 275.569 26.388C274.369 27.108 273.073 27.468 271.681 27.468ZM263.473 35.496V9.684H266.299L266.893 13.842V35.496H263.473ZM290.336 27.468C288.848 27.468 287.504 27.084 286.304 26.316C285.104 25.548 284.15 24.48 283.442 23.112C282.746 21.744 282.398 20.16 282.398 18.36C282.398 16.452 282.746 14.82 283.442 13.464C284.138 12.096 285.086 11.046 286.286 10.314C287.486 9.582 288.836 9.216 290.336 9.216C291.68 9.216 292.832 9.492 293.792 10.044C294.752 10.584 295.526 11.316 296.114 12.24C296.702 13.152 297.104 14.19 297.32 15.354C297.548 16.518 297.59 17.718 297.446 18.954H285.134V16.974H295.106L294.278 17.514C294.314 16.866 294.278 16.218 294.17 15.57C294.074 14.922 293.882 14.328 293.594 13.788C293.306 13.236 292.898 12.798 292.37 12.474C291.854 12.138 291.194 11.97 290.39 11.97C289.382 11.97 288.536 12.222 287.852 12.726C287.18 13.23 286.67 13.908 286.322 14.76C285.974 15.6 285.8 16.524 285.8 17.532V18.918C285.8 20.034 285.968 21.024 286.304 21.888C286.64 22.752 287.138 23.436 287.798 23.94C288.47 24.432 289.316 24.678 290.336 24.678C291.332 24.678 292.154 24.444 292.802 23.976C293.462 23.508 293.87 22.806 294.026 21.87H297.518C297.338 22.998 296.924 23.982 296.276 24.822C295.628 25.662 294.794 26.316 293.774 26.784C292.766 27.24 291.62 27.468 290.336 27.468Z" fill="#1E1E1E"/>
</svg>
