<svg width="62" height="72" viewBox="0 0 62 72" fill="none" xmlns="http://www.w3.org/2000/svg">
<rect x="0.5" y="8.5" width="61" height="63" rx="8.5" fill="#11A858" stroke="#DCDCDC"/>
<path d="M22.3688 4.12918L22.4953 4.21429H22.6478H58.7784C59.4988 4.21429 60.1906 4.50294 60.7013 5.01819C61.2122 5.53358 61.5 6.23353 61.5 6.96429V16.5H0.5V3.25C0.5 2.51925 0.787795 1.8193 1.29869 1.3039C1.80943 0.788655 2.50121 0.5 3.2216 0.5H16.9726L22.3688 4.12918Z" fill="#11A858" stroke="#DCDCDC"/>
<path d="M10.7653 44.162C10.0893 44.162 9.50128 43.998 9.00128 43.67C8.50128 43.342 8.11328 42.876 7.83728 42.272C7.56528 41.668 7.42928 40.948 7.42928 40.112C7.42928 39.244 7.57328 38.516 7.86128 37.928C8.14928 37.336 8.54528 36.89 9.04928 36.59C9.55328 36.286 10.1253 36.134 10.7653 36.134C11.6453 36.134 12.3373 36.35 12.8413 36.782C13.3493 37.21 13.6793 37.766 13.8313 38.45L12.4573 38.708C12.3253 38.284 12.1133 37.942 11.8213 37.682C11.5333 37.422 11.1813 37.292 10.7653 37.292C10.4053 37.292 10.0773 37.398 9.78128 37.61C9.48528 37.818 9.24928 38.132 9.07328 38.552C8.90128 38.968 8.81528 39.488 8.81528 40.112C8.81528 40.696 8.88928 41.204 9.03728 41.636C9.18928 42.064 9.40928 42.396 9.69728 42.632C9.98928 42.868 10.3453 42.986 10.7653 42.986C11.2973 42.986 11.7113 42.844 12.0073 42.56C12.3073 42.276 12.4573 41.912 12.4573 41.468H13.8373C13.8373 42.036 13.7113 42.52 13.4593 42.92C13.2113 43.32 12.8573 43.628 12.3973 43.844C11.9413 44.056 11.3973 44.162 10.7653 44.162ZM19.7764 38.18H21.0544V44H19.7764V38.18ZM15.7564 38.18H17.0404V41.756C17.0404 42.164 17.1404 42.472 17.3404 42.68C17.5404 42.884 17.8204 42.986 18.1804 42.986C18.4804 42.986 18.7504 42.908 18.9904 42.752C19.2344 42.592 19.4264 42.362 19.5664 42.062C19.7064 41.762 19.7764 41.398 19.7764 40.97H20.1484C20.1484 41.662 20.0564 42.242 19.8724 42.71C19.6884 43.174 19.4324 43.524 19.1044 43.76C18.7764 43.992 18.3944 44.108 17.9584 44.108C17.5424 44.108 17.1664 44.032 16.8304 43.88C16.4984 43.728 16.2364 43.49 16.0444 43.166C15.8524 42.838 15.7564 42.41 15.7564 41.882V38.18ZM23.7016 44V35.78H24.9856V44H23.7016ZM29.5498 44.162C29.2138 44.162 28.9078 44.1 28.6318 43.976C28.3598 43.848 28.1418 43.656 27.9778 43.4C27.8138 43.14 27.7318 42.814 27.7318 42.422V36.644H29.0098V42.38C29.0098 42.888 29.2518 43.142 29.7358 43.142C29.8838 43.142 30.0298 43.126 30.1738 43.094C30.3178 43.062 30.4798 43.012 30.6598 42.944L30.8458 43.85C30.6298 43.938 30.4158 44.012 30.2038 44.072C29.9958 44.132 29.7778 44.162 29.5498 44.162ZM26.8858 39.062V38.204H30.6598V39.062H26.8858ZM36.5596 38.18H37.8376V44H36.5596V38.18ZM32.5396 38.18H33.8236V41.756C33.8236 42.164 33.9236 42.472 34.1236 42.68C34.3236 42.884 34.6036 42.986 34.9636 42.986C35.2636 42.986 35.5336 42.908 35.7736 42.752C36.0176 42.592 36.2096 42.362 36.3496 42.062C36.4896 41.762 36.5596 41.398 36.5596 40.97H36.9316C36.9316 41.662 36.8396 42.242 36.6556 42.71C36.4716 43.174 36.2156 43.524 35.8876 43.76C35.5596 43.992 35.1776 44.108 34.7416 44.108C34.3256 44.108 33.9496 44.032 33.6136 43.88C33.2816 43.728 33.0196 43.49 32.8276 43.166C32.6356 42.838 32.5396 42.41 32.5396 41.882V38.18ZM40.4847 44V38.18H41.7687V44H40.4847ZM41.4387 41.432C41.4387 40.68 41.5207 40.058 41.6847 39.566C41.8487 39.07 42.0727 38.702 42.3567 38.462C42.6407 38.218 42.9647 38.096 43.3287 38.096C43.4367 38.096 43.5347 38.104 43.6227 38.12C43.7147 38.132 43.8067 38.152 43.8987 38.18L43.8627 39.458C43.7547 39.43 43.6387 39.408 43.5147 39.392C43.3947 39.372 43.2847 39.362 43.1847 39.362C42.8687 39.362 42.6047 39.444 42.3927 39.608C42.1847 39.768 42.0287 40.002 41.9247 40.31C41.8207 40.618 41.7687 40.992 41.7687 41.432H41.4387ZM49.1162 44L48.9542 42.626V40.256C48.9542 39.816 48.8642 39.494 48.6842 39.29C48.5042 39.086 48.2102 38.984 47.8022 38.984C47.5662 38.984 47.3602 39.018 47.1842 39.086C47.0082 39.154 46.8702 39.256 46.7702 39.392C46.6742 39.524 46.6262 39.688 46.6262 39.884H45.2162C45.2162 39.448 45.3202 39.096 45.5282 38.828C45.7402 38.556 46.0382 38.358 46.4222 38.234C46.8102 38.106 47.2702 38.042 47.8022 38.042C48.2862 38.042 48.7102 38.122 49.0742 38.282C49.4422 38.438 49.7282 38.682 49.9322 39.014C50.1362 39.346 50.2382 39.774 50.2382 40.298V44H49.1162ZM47.1962 44.162C46.7042 44.162 46.2942 44.076 45.9662 43.904C45.6422 43.732 45.3982 43.506 45.2342 43.226C45.0702 42.946 44.9882 42.644 44.9882 42.32C44.9882 41.948 45.0842 41.638 45.2762 41.39C45.4722 41.142 45.7442 40.958 46.0922 40.838C46.4442 40.714 46.8542 40.652 47.3222 40.652C47.6342 40.652 47.9322 40.678 48.2162 40.73C48.5042 40.778 48.7902 40.846 49.0742 40.934V41.696C48.8462 41.616 48.5962 41.554 48.3242 41.51C48.0562 41.466 47.8042 41.444 47.5682 41.444C47.2202 41.444 46.9302 41.512 46.6982 41.648C46.4702 41.78 46.3562 42.004 46.3562 42.32C46.3562 42.556 46.4482 42.758 46.6322 42.926C46.8162 43.094 47.1082 43.178 47.5082 43.178C47.8042 43.178 48.0602 43.112 48.2762 42.98C48.4922 42.844 48.6582 42.676 48.7742 42.476C48.8942 42.276 48.9542 42.078 48.9542 41.882H49.2602C49.2602 42.29 49.1802 42.668 49.0202 43.016C48.8642 43.36 48.6322 43.638 48.3242 43.85C48.0202 44.058 47.6442 44.162 47.1962 44.162ZM52.7125 44V35.78H53.9965V44H52.7125Z" fill="black"/>
</svg>
