<svg width="73" height="72" viewBox="0 0 73 72" fill="none" xmlns="http://www.w3.org/2000/svg">
<rect x="6.5" y="8.5" width="61" height="63" rx="8.5" fill="#F24822" stroke="#DCDCDC"/>
<path d="M28.3688 4.12918L28.4953 4.21429H28.6478H64.7784C65.4988 4.21429 66.1906 4.50294 66.7013 5.01819C67.2122 5.53358 67.5 6.23353 67.5 6.96429V16.5H6.5V3.25C6.5 2.51925 6.7878 1.8193 7.29869 1.3039C7.80943 0.788655 8.50121 0.5 9.2216 0.5H22.9726L28.3688 4.12918Z" fill="#F24822" stroke="#DCDCDC"/>
<path d="M14.9779 40.162C14.3019 40.162 13.7139 39.998 13.2139 39.67C12.7139 39.342 12.3259 38.876 12.0499 38.272C11.7779 37.668 11.6419 36.948 11.6419 36.112C11.6419 35.244 11.7859 34.516 12.0739 33.928C12.3619 33.336 12.7579 32.89 13.2619 32.59C13.7659 32.286 14.3379 32.134 14.9779 32.134C15.8579 32.134 16.5499 32.35 17.0539 32.782C17.5619 33.21 17.8919 33.766 18.0439 34.45L16.6699 34.708C16.5379 34.284 16.3259 33.942 16.0339 33.682C15.7459 33.422 15.3939 33.292 14.9779 33.292C14.6179 33.292 14.2899 33.398 13.9939 33.61C13.6979 33.818 13.4619 34.132 13.2859 34.552C13.1139 34.968 13.0279 35.488 13.0279 36.112C13.0279 36.696 13.1019 37.204 13.2499 37.636C13.4019 38.064 13.6219 38.396 13.9099 38.632C14.2019 38.868 14.5579 38.986 14.9779 38.986C15.5099 38.986 15.9239 38.844 16.2199 38.56C16.5199 38.276 16.6699 37.912 16.6699 37.468H18.0499C18.0499 38.036 17.9239 38.52 17.6719 38.92C17.4239 39.32 17.0699 39.628 16.6099 39.844C16.1539 40.056 15.6099 40.162 14.9779 40.162ZM20.101 40V34.18H21.385V40H20.101ZM21.055 37.432C21.055 36.68 21.137 36.058 21.301 35.566C21.465 35.07 21.689 34.702 21.973 34.462C22.257 34.218 22.581 34.096 22.945 34.096C23.053 34.096 23.151 34.104 23.239 34.12C23.331 34.132 23.423 34.152 23.515 34.18L23.479 35.458C23.371 35.43 23.255 35.408 23.131 35.392C23.011 35.372 22.901 35.362 22.801 35.362C22.485 35.362 22.221 35.444 22.009 35.608C21.801 35.768 21.645 36.002 21.541 36.31C21.437 36.618 21.385 36.992 21.385 37.432H21.055ZM27.1905 40.162C26.6945 40.162 26.2425 40.034 25.8345 39.778C25.4305 39.522 25.1065 39.164 24.8625 38.704C24.6225 38.244 24.5025 37.71 24.5025 37.102C24.5025 36.462 24.6225 35.914 24.8625 35.458C25.1025 35.002 25.4245 34.652 25.8285 34.408C26.2365 34.164 26.6905 34.042 27.1905 34.042C27.6505 34.042 28.0445 34.134 28.3725 34.318C28.7005 34.502 28.9645 34.75 29.1645 35.062C29.3685 35.374 29.5065 35.728 29.5785 36.124C29.6505 36.516 29.6585 36.922 29.6025 37.342H25.5285V36.628H28.7085L28.4325 36.808C28.4445 36.604 28.4345 36.4 28.4025 36.196C28.3705 35.992 28.3085 35.806 28.2165 35.638C28.1285 35.466 28.0025 35.328 27.8385 35.224C27.6745 35.12 27.4665 35.068 27.2145 35.068C26.9025 35.068 26.6385 35.146 26.4225 35.302C26.2105 35.458 26.0505 35.668 25.9425 35.932C25.8345 36.196 25.7805 36.49 25.7805 36.814V37.33C25.7805 37.678 25.8325 37.986 25.9365 38.254C26.0405 38.522 26.1965 38.734 26.4045 38.89C26.6125 39.046 26.8745 39.124 27.1905 39.124C27.4945 39.124 27.7465 39.054 27.9465 38.914C28.1505 38.77 28.2785 38.556 28.3305 38.272H29.6325C29.5725 38.648 29.4325 38.978 29.2125 39.262C28.9925 39.546 28.7105 39.768 28.3665 39.928C28.0225 40.084 27.6305 40.162 27.1905 40.162ZM35.3972 40L35.2352 38.626V36.256C35.2352 35.816 35.1452 35.494 34.9652 35.29C34.7852 35.086 34.4912 34.984 34.0832 34.984C33.8472 34.984 33.6412 35.018 33.4652 35.086C33.2892 35.154 33.1512 35.256 33.0512 35.392C32.9552 35.524 32.9072 35.688 32.9072 35.884H31.4972C31.4972 35.448 31.6012 35.096 31.8092 34.828C32.0212 34.556 32.3192 34.358 32.7032 34.234C33.0912 34.106 33.5512 34.042 34.0832 34.042C34.5672 34.042 34.9912 34.122 35.3552 34.282C35.7232 34.438 36.0092 34.682 36.2132 35.014C36.4172 35.346 36.5192 35.774 36.5192 36.298V40H35.3972ZM33.4772 40.162C32.9852 40.162 32.5752 40.076 32.2472 39.904C31.9232 39.732 31.6792 39.506 31.5152 39.226C31.3512 38.946 31.2692 38.644 31.2692 38.32C31.2692 37.948 31.3652 37.638 31.5572 37.39C31.7532 37.142 32.0252 36.958 32.3732 36.838C32.7252 36.714 33.1352 36.652 33.6032 36.652C33.9152 36.652 34.2132 36.678 34.4972 36.73C34.7852 36.778 35.0712 36.846 35.3552 36.934V37.696C35.1272 37.616 34.8772 37.554 34.6052 37.51C34.3372 37.466 34.0852 37.444 33.8492 37.444C33.5012 37.444 33.2112 37.512 32.9792 37.648C32.7512 37.78 32.6372 38.004 32.6372 38.32C32.6372 38.556 32.7292 38.758 32.9132 38.926C33.0972 39.094 33.3892 39.178 33.7892 39.178C34.0852 39.178 34.3412 39.112 34.5572 38.98C34.7732 38.844 34.9392 38.676 35.0552 38.476C35.1752 38.276 35.2352 38.078 35.2352 37.882H35.5412C35.5412 38.29 35.4612 38.668 35.3012 39.016C35.1452 39.36 34.9132 39.638 34.6052 39.85C34.3012 40.058 33.9252 40.162 33.4772 40.162ZM40.9075 40.162C40.5715 40.162 40.2655 40.1 39.9895 39.976C39.7175 39.848 39.4995 39.656 39.3355 39.4C39.1715 39.14 39.0895 38.814 39.0895 38.422V32.644H40.3675V38.38C40.3675 38.888 40.6095 39.142 41.0935 39.142C41.2415 39.142 41.3875 39.126 41.5315 39.094C41.6755 39.062 41.8375 39.012 42.0175 38.944L42.2035 39.85C41.9875 39.938 41.7735 40.012 41.5615 40.072C41.3535 40.132 41.1355 40.162 40.9075 40.162ZM38.2435 35.062V34.204H42.0175V35.062H38.2435ZM44.7793 33.058C44.5273 33.058 44.3293 32.99 44.1853 32.854C44.0413 32.714 43.9693 32.526 43.9693 32.29C43.9693 32.058 44.0413 31.874 44.1853 31.738C44.3293 31.602 44.5273 31.534 44.7793 31.534C45.0273 31.534 45.2233 31.602 45.3673 31.738C45.5113 31.874 45.5833 32.058 45.5833 32.29C45.5833 32.526 45.5113 32.714 45.3673 32.854C45.2233 32.99 45.0273 33.058 44.7793 33.058ZM44.1373 40V34.18H45.4213V40H44.1373ZM50.4533 40.162C49.9293 40.162 49.4553 40.048 49.0313 39.82C48.6113 39.592 48.2773 39.252 48.0293 38.8C47.7813 38.348 47.6573 37.784 47.6573 37.108C47.6573 36.42 47.7813 35.85 48.0293 35.398C48.2773 34.946 48.6113 34.608 49.0313 34.384C49.4553 34.156 49.9293 34.042 50.4533 34.042C50.9773 34.042 51.4473 34.156 51.8633 34.384C52.2833 34.608 52.6153 34.946 52.8593 35.398C53.1073 35.85 53.2313 36.42 53.2313 37.108C53.2313 37.784 53.1073 38.348 52.8593 38.8C52.6153 39.252 52.2833 39.592 51.8633 39.82C51.4473 40.048 50.9773 40.162 50.4533 40.162ZM50.4173 39.04C50.7213 39.04 50.9873 38.966 51.2153 38.818C51.4473 38.67 51.6273 38.452 51.7553 38.164C51.8833 37.876 51.9473 37.524 51.9473 37.108C51.9473 36.472 51.8193 35.988 51.5633 35.656C51.3113 35.32 50.9553 35.152 50.4953 35.152C50.1873 35.152 49.9173 35.226 49.6853 35.374C49.4573 35.522 49.2793 35.742 49.1513 36.034C49.0233 36.326 48.9593 36.684 48.9593 37.108C48.9593 37.732 49.0873 38.21 49.3433 38.542C49.5993 38.874 49.9573 39.04 50.4173 39.04ZM59.3279 40V36.604C59.3279 36.14 59.2159 35.79 58.9919 35.554C58.7719 35.314 58.4779 35.194 58.1099 35.194C57.8099 35.194 57.5459 35.276 57.3179 35.44C57.0899 35.604 56.9119 35.848 56.7839 36.172C56.6559 36.496 56.5919 36.894 56.5919 37.366H56.1539C56.1539 36.634 56.2459 36.022 56.4299 35.53C56.6179 35.038 56.8819 34.668 57.2219 34.42C57.5659 34.168 57.9719 34.042 58.4399 34.042C58.9119 34.042 59.3079 34.148 59.6279 34.36C59.9519 34.572 60.1959 34.87 60.3599 35.254C60.5279 35.638 60.6119 36.088 60.6119 36.604V40H59.3279ZM55.3079 40V34.204H56.4299L56.5919 35.404V40H55.3079ZM19.9087 51.162C19.2807 51.162 18.7127 50.998 18.2047 50.67C17.7007 50.338 17.2987 49.876 16.9987 49.284C16.6987 48.688 16.5487 47.992 16.5487 47.196C16.5487 46.556 16.6407 45.984 16.8247 45.48C17.0127 44.976 17.2727 44.55 17.6047 44.202C17.9367 43.854 18.3227 43.59 18.7627 43.41C19.2067 43.226 19.6847 43.134 20.1967 43.134C20.8847 43.134 21.4687 43.282 21.9487 43.578C22.4287 43.874 22.8127 44.34 23.1007 44.976L21.8047 45.306C21.5847 44.974 21.3347 44.724 21.0547 44.556C20.7787 44.384 20.4707 44.298 20.1307 44.298C19.7307 44.298 19.3627 44.416 19.0267 44.652C18.6947 44.884 18.4287 45.216 18.2287 45.648C18.0287 46.08 17.9287 46.596 17.9287 47.196C17.9287 47.748 18.0147 48.234 18.1867 48.654C18.3587 49.07 18.6007 49.396 18.9127 49.632C19.2247 49.868 19.5907 49.986 20.0107 49.986C20.3547 49.986 20.6627 49.91 20.9347 49.758C21.2067 49.602 21.4207 49.376 21.5767 49.08C21.7367 48.78 21.8167 48.416 21.8167 47.988H22.1227C22.1227 48.632 22.0447 49.192 21.8887 49.668C21.7367 50.144 21.4967 50.512 21.1687 50.772C20.8447 51.032 20.4247 51.162 19.9087 51.162ZM22.0087 51L21.8167 49.266V47.946L20.0227 47.904V47.076H23.0527V51H22.0087ZM29.1544 51L28.9924 49.626V47.256C28.9924 46.816 28.9024 46.494 28.7224 46.29C28.5424 46.086 28.2484 45.984 27.8404 45.984C27.6044 45.984 27.3984 46.018 27.2224 46.086C27.0464 46.154 26.9084 46.256 26.8084 46.392C26.7124 46.524 26.6644 46.688 26.6644 46.884H25.2544C25.2544 46.448 25.3584 46.096 25.5664 45.828C25.7784 45.556 26.0764 45.358 26.4604 45.234C26.8484 45.106 27.3084 45.042 27.8404 45.042C28.3244 45.042 28.7484 45.122 29.1124 45.282C29.4804 45.438 29.7664 45.682 29.9704 46.014C30.1744 46.346 30.2764 46.774 30.2764 47.298V51H29.1544ZM27.2344 51.162C26.7424 51.162 26.3324 51.076 26.0044 50.904C25.6804 50.732 25.4364 50.506 25.2724 50.226C25.1084 49.946 25.0264 49.644 25.0264 49.32C25.0264 48.948 25.1224 48.638 25.3144 48.39C25.5104 48.142 25.7824 47.958 26.1304 47.838C26.4824 47.714 26.8924 47.652 27.3604 47.652C27.6724 47.652 27.9704 47.678 28.2544 47.73C28.5424 47.778 28.8284 47.846 29.1124 47.934V48.696C28.8844 48.616 28.6344 48.554 28.3624 48.51C28.0944 48.466 27.8424 48.444 27.6064 48.444C27.2584 48.444 26.9684 48.512 26.7364 48.648C26.5084 48.78 26.3944 49.004 26.3944 49.32C26.3944 49.556 26.4864 49.758 26.6704 49.926C26.8544 50.094 27.1464 50.178 27.5464 50.178C27.8424 50.178 28.0984 50.112 28.3144 49.98C28.5304 49.844 28.6964 49.676 28.8124 49.476C28.9324 49.276 28.9924 49.078 28.9924 48.882H29.2984C29.2984 49.29 29.2184 49.668 29.0584 50.016C28.9024 50.36 28.6704 50.638 28.3624 50.85C28.0584 51.058 27.6824 51.162 27.2344 51.162ZM32.7507 51V42.78H34.0347V51H32.7507ZM36.6849 51V42.78H37.9689V51H36.6849ZM42.7431 51.162C42.2471 51.162 41.7951 51.034 41.3871 50.778C40.9831 50.522 40.6591 50.164 40.4151 49.704C40.1751 49.244 40.0551 48.71 40.0551 48.102C40.0551 47.462 40.1751 46.914 40.4151 46.458C40.6551 46.002 40.9771 45.652 41.3811 45.408C41.7891 45.164 42.2431 45.042 42.7431 45.042C43.2031 45.042 43.5971 45.134 43.9251 45.318C44.2531 45.502 44.5171 45.75 44.7171 46.062C44.9211 46.374 45.0591 46.728 45.1311 47.124C45.2031 47.516 45.2111 47.922 45.1551 48.342H41.0811V47.628H44.2611L43.9851 47.808C43.9971 47.604 43.9871 47.4 43.9551 47.196C43.9231 46.992 43.8611 46.806 43.7691 46.638C43.6811 46.466 43.5551 46.328 43.3911 46.224C43.2271 46.12 43.0191 46.068 42.7671 46.068C42.4551 46.068 42.1911 46.146 41.9751 46.302C41.7631 46.458 41.6031 46.668 41.4951 46.932C41.3871 47.196 41.3331 47.49 41.3331 47.814V48.33C41.3331 48.678 41.3851 48.986 41.4891 49.254C41.5931 49.522 41.7491 49.734 41.9571 49.89C42.1651 50.046 42.4271 50.124 42.7431 50.124C43.0471 50.124 43.2991 50.054 43.4991 49.914C43.7031 49.77 43.8311 49.556 43.8831 49.272H45.1851C45.1251 49.648 44.9851 49.978 44.7651 50.262C44.5451 50.546 44.2631 50.768 43.9191 50.928C43.5751 51.084 43.1831 51.162 42.7431 51.162ZM47.2838 51V45.18H48.5678V51H47.2838ZM48.2378 48.432C48.2378 47.68 48.3198 47.058 48.4838 46.566C48.6478 46.07 48.8718 45.702 49.1558 45.462C49.4398 45.218 49.7638 45.096 50.1278 45.096C50.2358 45.096 50.3338 45.104 50.4218 45.12C50.5138 45.132 50.6058 45.152 50.6978 45.18L50.6618 46.458C50.5538 46.43 50.4378 46.408 50.3138 46.392C50.1938 46.372 50.0838 46.362 49.9838 46.362C49.6678 46.362 49.4038 46.444 49.1918 46.608C48.9838 46.768 48.8278 47.002 48.7238 47.31C48.6198 47.618 48.5678 47.992 48.5678 48.432H48.2378ZM51.3493 45.204H52.8013L54.4393 49.878H54.1933L55.5613 45.204H56.8693L54.6553 52.08C54.4393 52.74 54.1693 53.224 53.8453 53.532C53.5213 53.84 53.1213 53.994 52.6453 53.994C52.3773 53.994 52.1153 53.962 51.8593 53.898C51.6073 53.834 51.3513 53.736 51.0913 53.604V52.458C51.3073 52.606 51.5173 52.712 51.7213 52.776C51.9253 52.844 52.1333 52.878 52.3453 52.878C52.5453 52.878 52.7193 52.82 52.8673 52.704C53.0153 52.588 53.1413 52.43 53.2453 52.23C53.3533 52.034 53.4433 51.814 53.5153 51.57L53.6893 51L51.3493 45.204Z" fill="black"/>
</svg>
