<svg width="62" height="72" viewBox="0 0 62 72" fill="none" xmlns="http://www.w3.org/2000/svg">
<rect x="0.5" y="8.5" width="61" height="63" rx="8.5" fill="#BAF298" stroke="#DCDCDC"/>
<path d="M22.3688 4.12918L22.4953 4.21429H22.6478H58.7784C59.4988 4.21429 60.1906 4.50294 60.7013 5.01819C61.2122 5.53358 61.5 6.23353 61.5 6.96429V16.5H0.5V3.25C0.5 2.51925 0.787795 1.8193 1.29869 1.3039C1.80943 0.788655 2.50121 0.5 3.2216 0.5H16.9726L22.3688 4.12918Z" fill="#BAF298" stroke="#DCDCDC"/>
<path d="M12.8043 30.355H14.4093V34.4425H18.7743V30.355H20.3718V40H18.7743V35.8375H14.4093V40H12.8043V30.355ZM28.2665 40L28.064 38.2825V35.32C28.064 34.77 27.9515 34.3675 27.7265 34.1125C27.5015 33.8575 27.134 33.73 26.624 33.73C26.329 33.73 26.0715 33.7725 25.8515 33.8575C25.6315 33.9425 25.459 34.07 25.334 34.24C25.214 34.405 25.154 34.61 25.154 34.855H23.3915C23.3915 34.31 23.5215 33.87 23.7815 33.535C24.0465 33.195 24.419 32.9475 24.899 32.7925C25.384 32.6325 25.959 32.5525 26.624 32.5525C27.229 32.5525 27.759 32.6525 28.214 32.8525C28.674 33.0475 29.0315 33.3525 29.2865 33.7675C29.5415 34.1825 29.669 34.7175 29.669 35.3725V40H28.2665ZM25.8665 40.2025C25.2515 40.2025 24.739 40.095 24.329 39.88C23.924 39.665 23.619 39.3825 23.414 39.0325C23.209 38.6825 23.1065 38.305 23.1065 37.9C23.1065 37.435 23.2265 37.0475 23.4665 36.7375C23.7115 36.4275 24.0515 36.1975 24.4865 36.0475C24.9265 35.8925 25.439 35.815 26.024 35.815C26.414 35.815 26.7865 35.8475 27.1415 35.9125C27.5015 35.9725 27.859 36.0575 28.214 36.1675V37.12C27.929 37.02 27.6165 36.9425 27.2765 36.8875C26.9415 36.8325 26.6265 36.805 26.3315 36.805C25.8965 36.805 25.534 36.89 25.244 37.06C24.959 37.225 24.8165 37.505 24.8165 37.9C24.8165 38.195 24.9315 38.4475 25.1615 38.6575C25.3915 38.8675 25.7565 38.9725 26.2565 38.9725C26.6265 38.9725 26.9465 38.89 27.2165 38.725C27.4865 38.555 27.694 38.345 27.839 38.095C27.989 37.845 28.064 37.5975 28.064 37.3525H28.4465C28.4465 37.8625 28.3465 38.335 28.1465 38.77C27.9515 39.2 27.6615 39.5475 27.2765 39.8125C26.8965 40.0725 26.4265 40.2025 25.8665 40.2025ZM37.7869 40V35.755C37.7869 35.175 37.6469 34.7375 37.3669 34.4425C37.0919 34.1425 36.7244 33.9925 36.2644 33.9925C35.8894 33.9925 35.5594 34.095 35.2744 34.3C34.9894 34.505 34.7669 34.81 34.6069 35.215C34.4469 35.62 34.3669 36.1175 34.3669 36.7075H33.8194C33.8194 35.7925 33.9344 35.0275 34.1644 34.4125C34.3994 33.7975 34.7294 33.335 35.1544 33.025C35.5844 32.71 36.0919 32.5525 36.6769 32.5525C37.2669 32.5525 37.7619 32.685 38.1619 32.95C38.5669 33.215 38.8719 33.5875 39.0769 34.0675C39.2869 34.5475 39.3919 35.11 39.3919 35.755V40H37.7869ZM32.7619 40V32.755H34.1644L34.3669 34.255V40H32.7619ZM45.1247 40.2025C44.5247 40.2025 43.9747 40.0425 43.4747 39.7225C42.9747 39.4025 42.5772 38.955 42.2822 38.38C41.9872 37.8 41.8397 37.12 41.8397 36.34C41.8397 35.57 41.9822 34.9025 42.2672 34.3375C42.5572 33.7675 42.9422 33.3275 43.4222 33.0175C43.9022 32.7075 44.4347 32.5525 45.0197 32.5525C45.5547 32.5525 46.0197 32.6825 46.4147 32.9425C46.8097 33.1975 47.1122 33.575 47.3222 34.075C47.5372 34.57 47.6447 35.1775 47.6447 35.8975H47.1197C47.1197 35.4925 47.0372 35.1475 46.8722 34.8625C46.7072 34.5775 46.4922 34.3625 46.2272 34.2175C45.9622 34.0675 45.6747 33.9925 45.3647 33.9925C45.0047 33.9925 44.6797 34.09 44.3897 34.285C44.1047 34.475 43.8797 34.7475 43.7147 35.1025C43.5497 35.4525 43.4672 35.865 43.4672 36.34C43.4672 36.83 43.5497 37.255 43.7147 37.615C43.8797 37.975 44.1047 38.255 44.3897 38.455C44.6797 38.65 45.0022 38.7475 45.3572 38.7475C45.6522 38.7475 45.9322 38.67 46.1972 38.515C46.4672 38.355 46.6872 38.1325 46.8572 37.8475C47.0322 37.5575 47.1197 37.215 47.1197 36.82H47.6447C47.6447 37.565 47.5297 38.19 47.2997 38.695C47.0747 39.195 46.7697 39.5725 46.3847 39.8275C46.0047 40.0775 45.5847 40.2025 45.1247 40.2025ZM47.4122 40L47.1197 38.23V29.725H48.7322V40H47.4122ZM24.2813 45.725H25.8788V53H24.2813V45.725ZM19.2563 45.725H20.8613V50.195C20.8613 50.705 20.9863 51.09 21.2363 51.35C21.4863 51.605 21.8363 51.7325 22.2863 51.7325C22.6613 51.7325 22.9988 51.635 23.2988 51.44C23.6038 51.24 23.8438 50.9525 24.0188 50.5775C24.1938 50.2025 24.2813 49.7475 24.2813 49.2125H24.7463C24.7463 50.0775 24.6313 50.8025 24.4013 51.3875C24.1713 51.9675 23.8513 52.405 23.4413 52.7C23.0313 52.99 22.5538 53.135 22.0088 53.135C21.4888 53.135 21.0188 53.04 20.5988 52.85C20.1838 52.66 19.8563 52.3625 19.6163 51.9575C19.3763 51.5475 19.2563 51.0125 19.2563 50.3525V45.725ZM31.8652 53.2025C31.1702 53.2025 30.5752 53.105 30.0802 52.91C29.5902 52.715 29.2127 52.44 28.9477 52.085C28.6877 51.725 28.5552 51.2975 28.5502 50.8025H30.0427C30.0627 51.1875 30.2177 51.4725 30.5077 51.6575C30.7977 51.8375 31.1902 51.9275 31.6852 51.9275C31.9552 51.9275 32.1977 51.8875 32.4127 51.8075C32.6277 51.7225 32.7952 51.61 32.9152 51.47C33.0402 51.325 33.1027 51.165 33.1027 50.99C33.1027 50.765 33.0202 50.5875 32.8552 50.4575C32.6952 50.3275 32.4352 50.21 32.0752 50.105L30.5377 49.5725C29.9577 49.3725 29.5127 49.105 29.2027 48.77C28.8927 48.435 28.7377 48.035 28.7377 47.57C28.7377 46.965 29.0102 46.4775 29.5552 46.1075C30.1002 45.7375 30.8252 45.5525 31.7302 45.5525C32.6502 45.5525 33.3602 45.75 33.8602 46.145C34.3602 46.54 34.6177 47.0375 34.6327 47.6375H33.1102C33.0802 47.3775 32.9527 47.175 32.7277 47.03C32.5027 46.88 32.1702 46.805 31.7302 46.805C31.3252 46.805 31.0077 46.8925 30.7777 47.0675C30.5527 47.2375 30.4402 47.4325 30.4402 47.6525C30.4402 48.0375 30.7702 48.325 31.4302 48.515L33.0727 49.115C33.6477 49.305 34.0927 49.55 34.4077 49.85C34.7227 50.15 34.8802 50.53 34.8802 50.99C34.8802 51.37 34.7527 51.73 34.4977 52.07C34.2477 52.405 33.8977 52.6775 33.4477 52.8875C32.9977 53.0975 32.4702 53.2025 31.8652 53.2025ZM40.2029 53.2025C39.5829 53.2025 39.0179 53.0425 38.5079 52.7225C38.0029 52.4025 37.5979 51.955 37.2929 51.38C36.9929 50.805 36.8429 50.1375 36.8429 49.3775C36.8429 48.5775 36.9929 47.8925 37.2929 47.3225C37.5929 46.7525 37.9954 46.315 38.5004 46.01C39.0104 45.705 39.5779 45.5525 40.2029 45.5525C40.7779 45.5525 41.2704 45.6675 41.6804 45.8975C42.0904 46.1275 42.4204 46.4375 42.6704 46.8275C42.9254 47.2175 43.0979 47.66 43.1879 48.155C43.2779 48.645 43.2879 49.1525 43.2179 49.6775H38.1254V48.785H42.1004L41.7554 49.01C41.7704 48.755 41.7579 48.5 41.7179 48.245C41.6779 47.99 41.6004 47.7575 41.4854 47.5475C41.3754 47.3325 41.2179 47.16 41.0129 47.03C40.8079 46.9 40.5479 46.835 40.2329 46.835C39.8429 46.835 39.5129 46.9325 39.2429 47.1275C38.9779 47.3225 38.7779 47.585 38.6429 47.915C38.5079 48.245 38.4404 48.6125 38.4404 49.0175V49.6625C38.4404 50.0975 38.5054 50.4825 38.6354 50.8175C38.7654 51.1525 38.9604 51.4175 39.2204 51.6125C39.4804 51.8075 39.8079 51.905 40.2029 51.905C40.5829 51.905 40.8979 51.8175 41.1479 51.6425C41.4029 51.4625 41.5629 51.195 41.6279 50.84H43.2554C43.1804 51.31 43.0054 51.7225 42.7304 52.0775C42.4554 52.4325 42.1029 52.71 41.6729 52.91C41.2429 53.105 40.7529 53.2025 40.2029 53.2025Z" fill="black"/>
</svg>
