<svg width="62" height="72" viewBox="0 0 62 72" fill="none" xmlns="http://www.w3.org/2000/svg">
<rect x="0.5" y="8.5" width="61" height="63" rx="8.5" fill="#1C1A2C" stroke="#DCDCDC"/>
<path d="M22.3688 4.12918L22.4953 4.21429H22.6478H58.7784C59.4988 4.21429 60.1906 4.50294 60.7013 5.01819C61.2122 5.53358 61.5 6.23353 61.5 6.96429V16.5H0.5V3.25C0.5 2.51925 0.787795 1.8193 1.29869 1.3039C1.80943 0.788655 2.50121 0.5 3.2216 0.5H16.9726L22.3688 4.12918Z" fill="#1C1A2C" stroke="#DCDCDC"/>
<path d="M42.9167 32.3335V38.8335H36.4167" stroke="white" stroke-width="2" stroke-linecap="round" stroke-linejoin="round"/>
<path d="M19.0833 49.6665V43.1665H25.5833" stroke="white" stroke-width="2" stroke-linecap="round" stroke-linejoin="round"/>
<path d="M21.8025 37.7499C22.3519 36.1972 23.2857 34.8091 24.5167 33.7149C25.7478 32.6208 27.2359 31.8563 28.8423 31.4928C30.4487 31.1294 32.121 31.1787 33.7031 31.6364C35.2852 32.094 36.7257 32.945 37.89 34.1099L42.9166 38.8332M19.0833 43.1665L24.11 47.8899C25.2743 49.0548 26.7147 49.9057 28.2969 50.3634C29.879 50.821 31.5513 50.8704 33.1577 50.5069C34.7641 50.1435 36.2522 49.379 37.4832 48.2848C38.7143 47.1907 39.648 45.8025 40.1975 44.2499" stroke="white" stroke-width="2" stroke-linecap="round" stroke-linejoin="round"/>
</svg>
