<svg width="62" height="72" viewBox="0 0 62 72" fill="none" xmlns="http://www.w3.org/2000/svg">
<rect x="0.5" y="8.5" width="61" height="63" rx="8.5" fill="#E3A2F4" stroke="#DCDCDC"/>
<path d="M22.3688 4.12918L22.4953 4.21429H22.6478H58.7784C59.4988 4.21429 60.1906 4.50294 60.7013 5.01819C61.2122 5.53358 61.5 6.23353 61.5 6.96429V16.5H0.5V3.25C0.5 2.51925 0.787795 1.8193 1.29869 1.3039C1.80943 0.788655 2.50121 0.5 3.2216 0.5H16.9726L22.3688 4.12918Z" fill="#E3A2F4" stroke="#DCDCDC"/>
<path d="M14.5953 46.2025C13.9303 46.2025 13.3203 46.0875 12.7653 45.8575C12.2103 45.6225 11.7603 45.27 11.4153 44.8C11.0703 44.325 10.8878 43.73 10.8678 43.015H12.4428C12.4428 43.41 12.5403 43.735 12.7353 43.99C12.9303 44.24 13.1878 44.4275 13.5078 44.5525C13.8328 44.6725 14.1903 44.7325 14.5803 44.7325C14.9653 44.7325 15.3053 44.6775 15.6003 44.5675C15.9003 44.4575 16.1328 44.305 16.2978 44.11C16.4678 43.915 16.5528 43.69 16.5528 43.435C16.5528 43.09 16.4478 42.8175 16.2378 42.6175C16.0278 42.4125 15.6978 42.2325 15.2478 42.0775L13.4028 41.365C12.6428 41.075 12.0628 40.74 11.6628 40.36C11.2628 39.975 11.0628 39.445 11.0628 38.77C11.0628 38 11.3653 37.375 11.9703 36.895C12.5803 36.41 13.4328 36.1675 14.5278 36.1675C15.5828 36.1675 16.4003 36.4125 16.9803 36.9025C17.5603 37.3925 17.8903 38.0675 17.9703 38.9275H16.3953C16.3253 38.5275 16.1403 38.21 15.8403 37.975C15.5453 37.74 15.1078 37.6225 14.5278 37.6225C13.9928 37.6225 13.5728 37.735 13.2678 37.96C12.9678 38.185 12.8178 38.47 12.8178 38.815C12.8178 39.105 12.9128 39.335 13.1028 39.505C13.2978 39.675 13.5978 39.835 14.0028 39.985L16.0803 40.765C16.7903 41.03 17.3378 41.375 17.7228 41.8C18.1128 42.22 18.3078 42.75 18.3078 43.39C18.3078 43.95 18.1628 44.4425 17.8728 44.8675C17.5878 45.2875 17.1678 45.615 16.6128 45.85C16.0628 46.085 15.3903 46.2025 14.5953 46.2025ZM23.5789 46.2025C23.1589 46.2025 22.7764 46.125 22.4314 45.97C22.0914 45.81 21.8189 45.57 21.6139 45.25C21.4089 44.925 21.3064 44.5175 21.3064 44.0275V36.805H22.9039V43.975C22.9039 44.61 23.2064 44.9275 23.8114 44.9275C23.9964 44.9275 24.1789 44.9075 24.3589 44.8675C24.5389 44.8275 24.7414 44.765 24.9664 44.68L25.1989 45.8125C24.9289 45.9225 24.6614 46.015 24.3964 46.09C24.1364 46.165 23.8639 46.2025 23.5789 46.2025ZM20.2489 39.8275V38.755H24.9664V39.8275H20.2489ZM32.0637 46L31.8612 44.2825V41.32C31.8612 40.77 31.7487 40.3675 31.5237 40.1125C31.2987 39.8575 30.9312 39.73 30.4212 39.73C30.1262 39.73 29.8687 39.7725 29.6487 39.8575C29.4287 39.9425 29.2562 40.07 29.1312 40.24C29.0112 40.405 28.9512 40.61 28.9512 40.855H27.1887C27.1887 40.31 27.3187 39.87 27.5787 39.535C27.8437 39.195 28.2162 38.9475 28.6962 38.7925C29.1812 38.6325 29.7562 38.5525 30.4212 38.5525C31.0262 38.5525 31.5562 38.6525 32.0112 38.8525C32.4712 39.0475 32.8287 39.3525 33.0837 39.7675C33.3387 40.1825 33.4662 40.7175 33.4662 41.3725V46H32.0637ZM29.6637 46.2025C29.0487 46.2025 28.5362 46.095 28.1262 45.88C27.7212 45.665 27.4162 45.3825 27.2112 45.0325C27.0062 44.6825 26.9037 44.305 26.9037 43.9C26.9037 43.435 27.0237 43.0475 27.2637 42.7375C27.5087 42.4275 27.8487 42.1975 28.2837 42.0475C28.7237 41.8925 29.2362 41.815 29.8212 41.815C30.2112 41.815 30.5837 41.8475 30.9387 41.9125C31.2987 41.9725 31.6562 42.0575 32.0112 42.1675V43.12C31.7262 43.02 31.4137 42.9425 31.0737 42.8875C30.7387 42.8325 30.4237 42.805 30.1287 42.805C29.6937 42.805 29.3312 42.89 29.0412 43.06C28.7562 43.225 28.6137 43.505 28.6137 43.9C28.6137 44.195 28.7287 44.4475 28.9587 44.6575C29.1887 44.8675 29.5537 44.9725 30.0537 44.9725C30.4237 44.9725 30.7437 44.89 31.0137 44.725C31.2837 44.555 31.4912 44.345 31.6362 44.095C31.7862 43.845 31.8612 43.5975 31.8612 43.3525H32.2437C32.2437 43.8625 32.1437 44.335 31.9437 44.77C31.7487 45.2 31.4587 45.5475 31.0737 45.8125C30.6937 46.0725 30.2237 46.2025 29.6637 46.2025ZM39.2891 49.7425C38.4841 49.7425 37.7916 49.63 37.2116 49.405C36.6366 49.185 36.1941 48.89 35.8841 48.52C35.5741 48.155 35.4191 47.7575 35.4191 47.3275C35.4191 46.8025 35.6091 46.3975 35.9891 46.1125C36.3741 45.8275 36.8616 45.685 37.4516 45.685L38.5691 46.1425C38.0641 46.1425 37.6741 46.24 37.3991 46.435C37.1291 46.635 36.9941 46.9075 36.9941 47.2525C36.9941 47.6125 37.1941 47.9025 37.5941 48.1225C37.9991 48.3475 38.5641 48.46 39.2891 48.46C39.8241 48.46 40.2866 48.3825 40.6766 48.2275C41.0716 48.0725 41.3766 47.8675 41.5916 47.6125C41.8066 47.3625 41.9141 47.0975 41.9141 46.8175C41.9141 46.6275 41.8466 46.4675 41.7116 46.3375C41.5816 46.2075 41.3791 46.1425 41.1041 46.1425H38.5691C38.0791 46.1425 37.6391 46.065 37.2491 45.91C36.8641 45.755 36.5591 45.5475 36.3341 45.2875C36.1091 45.0275 35.9966 44.74 35.9966 44.425C35.9966 44.12 36.0816 43.86 36.2516 43.645C36.4216 43.425 36.6491 43.2575 36.9341 43.1425C37.2241 43.0225 37.5441 42.9625 37.8941 42.9625L38.2841 43.5025C38.1341 43.5025 37.9891 43.5325 37.8491 43.5925C37.7141 43.6525 37.6016 43.7425 37.5116 43.8625C37.4216 43.9775 37.3766 44.1225 37.3766 44.2975C37.3766 44.5025 37.4641 44.6725 37.6391 44.8075C37.8191 44.9425 38.1291 45.01 38.5691 45.01H41.1041C41.8541 45.01 42.4416 45.1525 42.8666 45.4375C43.2966 45.7175 43.5116 46.1425 43.5116 46.7125C43.5116 47.2225 43.3391 47.7075 42.9941 48.1675C42.6541 48.6325 42.1691 49.01 41.5391 49.3C40.9091 49.595 40.1591 49.7425 39.2891 49.7425ZM39.4166 43.795C38.8466 43.795 38.3266 43.6875 37.8566 43.4725C37.3916 43.2525 37.0191 42.9475 36.7391 42.5575C36.4641 42.1625 36.3266 41.7025 36.3266 41.1775C36.3266 40.6475 36.4641 40.185 36.7391 39.79C37.0191 39.395 37.3916 39.09 37.8566 38.875C38.3266 38.66 38.8466 38.5525 39.4166 38.5525C39.9716 38.5525 40.4816 38.66 40.9466 38.875C41.4116 39.09 41.7841 39.395 42.0641 39.79C42.3441 40.185 42.4841 40.6475 42.4841 41.1775C42.4841 41.7025 42.3441 42.1625 42.0641 42.5575C41.7841 42.9475 41.4116 43.2525 40.9466 43.4725C40.4816 43.6875 39.9716 43.795 39.4166 43.795ZM39.4241 42.67C39.9091 42.67 40.2766 42.5275 40.5266 42.2425C40.7816 41.9575 40.9091 41.6025 40.9091 41.1775C40.9091 40.7275 40.7816 40.365 40.5266 40.09C40.2766 39.815 39.9066 39.6775 39.4166 39.6775C38.9416 39.6775 38.5741 39.815 38.3141 40.09C38.0541 40.365 37.9241 40.7275 37.9241 41.1775C37.9241 41.6025 38.0541 41.9575 38.3141 42.2425C38.5741 42.5275 38.9441 42.67 39.4241 42.67ZM41.9366 39.715L41.1941 39.3175C41.1941 38.8825 41.2891 38.505 41.4791 38.185C41.6741 37.86 41.9366 37.6075 42.2666 37.4275C42.5966 37.2475 42.9666 37.1575 43.3766 37.1575L43.2866 38.7025C42.8466 38.7025 42.5116 38.785 42.2816 38.95C42.0516 39.115 41.9366 39.37 41.9366 39.715ZM48.3213 46.2025C47.7013 46.2025 47.1363 46.0425 46.6263 45.7225C46.1213 45.4025 45.7163 44.955 45.4113 44.38C45.1113 43.805 44.9613 43.1375 44.9613 42.3775C44.9613 41.5775 45.1113 40.8925 45.4113 40.3225C45.7113 39.7525 46.1138 39.315 46.6188 39.01C47.1288 38.705 47.6963 38.5525 48.3213 38.5525C48.8963 38.5525 49.3888 38.6675 49.7988 38.8975C50.2088 39.1275 50.5388 39.4375 50.7888 39.8275C51.0438 40.2175 51.2163 40.66 51.3063 41.155C51.3963 41.645 51.4063 42.1525 51.3363 42.6775H46.2438V41.785H50.2188L49.8738 42.01C49.8888 41.755 49.8763 41.5 49.8363 41.245C49.7963 40.99 49.7188 40.7575 49.6038 40.5475C49.4938 40.3325 49.3363 40.16 49.1313 40.03C48.9263 39.9 48.6663 39.835 48.3513 39.835C47.9613 39.835 47.6313 39.9325 47.3613 40.1275C47.0963 40.3225 46.8963 40.585 46.7613 40.915C46.6263 41.245 46.5588 41.6125 46.5588 42.0175V42.6625C46.5588 43.0975 46.6238 43.4825 46.7538 43.8175C46.8838 44.1525 47.0788 44.4175 47.3388 44.6125C47.5988 44.8075 47.9263 44.905 48.3213 44.905C48.7013 44.905 49.0163 44.8175 49.2663 44.6425C49.5213 44.4625 49.6813 44.195 49.7463 43.84H51.3738C51.2988 44.31 51.1238 44.7225 50.8488 45.0775C50.5738 45.4325 50.2213 45.71 49.7913 45.91C49.3613 46.105 48.8713 46.2025 48.3213 46.2025Z" fill="black"/>
</svg>
