<svg width="62" height="72" viewBox="0 0 62 72" fill="none" xmlns="http://www.w3.org/2000/svg">
<rect x="0.5" y="8.5" width="61" height="63" rx="8.5" fill="#FFE090" stroke="#DCDCDC"/>
<path d="M22.3688 4.12918L22.4953 4.21429H22.6478H58.7784C59.4988 4.21429 60.1906 4.50294 60.7013 5.01819C61.2122 5.53358 61.5 6.23353 61.5 6.96429V16.5H0.5V3.25C0.5 2.51925 0.787795 1.8193 1.29869 1.3039C1.80943 0.788655 2.50121 0.5 3.2216 0.5H16.9726L22.3688 4.12918Z" fill="#FFE090" stroke="#DCDCDC"/>
<path d="M11.6158 31.735V30.355H19.2883V31.735H15.8908L16.2508 31.3675V40H14.6458V31.3675L15.0058 31.735H11.6158ZM22.6915 40.2025C22.0715 40.2025 21.5065 40.0425 20.9965 39.7225C20.4915 39.4025 20.0865 38.955 19.7815 38.38C19.4815 37.805 19.3315 37.1375 19.3315 36.3775C19.3315 35.5775 19.4815 34.8925 19.7815 34.3225C20.0815 33.7525 20.484 33.315 20.989 33.01C21.499 32.705 22.0665 32.5525 22.6915 32.5525C23.2665 32.5525 23.759 32.6675 24.169 32.8975C24.579 33.1275 24.909 33.4375 25.159 33.8275C25.414 34.2175 25.5865 34.66 25.6765 35.155C25.7665 35.645 25.7765 36.1525 25.7065 36.6775H20.614V35.785H24.589L24.244 36.01C24.259 35.755 24.2465 35.5 24.2065 35.245C24.1665 34.99 24.089 34.7575 23.974 34.5475C23.864 34.3325 23.7065 34.16 23.5015 34.03C23.2965 33.9 23.0365 33.835 22.7215 33.835C22.3315 33.835 22.0015 33.9325 21.7315 34.1275C21.4665 34.3225 21.2665 34.585 21.1315 34.915C20.9965 35.245 20.929 35.6125 20.929 36.0175V36.6625C20.929 37.0975 20.994 37.4825 21.124 37.8175C21.254 38.1525 21.449 38.4175 21.709 38.6125C21.969 38.8075 22.2965 38.905 22.6915 38.905C23.0715 38.905 23.3865 38.8175 23.6365 38.6425C23.8915 38.4625 24.0515 38.195 24.1165 37.84H25.744C25.669 38.31 25.494 38.7225 25.219 39.0775C24.944 39.4325 24.5915 39.71 24.1615 39.91C23.7315 40.105 23.2415 40.2025 22.6915 40.2025ZM31.0674 40.2025C30.4674 40.2025 29.9074 40.045 29.3874 39.73C28.8724 39.415 28.4549 38.97 28.1349 38.395C27.8199 37.82 27.6624 37.145 27.6624 36.37C27.6624 35.55 27.8199 34.8575 28.1349 34.2925C28.4549 33.7225 28.8724 33.29 29.3874 32.995C29.9074 32.7 30.4674 32.5525 31.0674 32.5525C31.5224 32.5525 31.9249 32.625 32.2749 32.77C32.6299 32.915 32.9324 33.11 33.1824 33.355C33.4324 33.6 33.6299 33.875 33.7749 34.18C33.9249 34.48 34.0249 34.7875 34.0749 35.1025L32.4474 35.1625C32.3574 34.8175 32.1924 34.5375 31.9524 34.3225C31.7174 34.1025 31.4174 33.9925 31.0524 33.9925C30.7474 33.9925 30.4599 34.0775 30.1899 34.2475C29.9249 34.4125 29.7074 34.67 29.5374 35.02C29.3724 35.37 29.2899 35.82 29.2899 36.37C29.2899 36.885 29.3674 37.32 29.5224 37.675C29.6774 38.025 29.8874 38.2925 30.1524 38.4775C30.4224 38.6575 30.7224 38.7475 31.0524 38.7475C31.5274 38.7475 31.8774 38.6325 32.1024 38.4025C32.3324 38.1675 32.4474 37.8525 32.4474 37.4575H34.0749C34.0749 37.9675 33.9574 38.43 33.7224 38.845C33.4874 39.26 33.1449 39.59 32.6949 39.835C32.2499 40.08 31.7074 40.2025 31.0674 40.2025ZM41.7232 40V35.755C41.7232 35.175 41.5832 34.7375 41.3032 34.4425C41.0282 34.1425 40.6607 33.9925 40.2007 33.9925C39.8257 33.9925 39.4957 34.095 39.2107 34.3C38.9257 34.505 38.7032 34.81 38.5432 35.215C38.3832 35.62 38.3032 36.1175 38.3032 36.7075H37.7557C37.7557 35.7925 37.8707 35.0275 38.1007 34.4125C38.3357 33.7975 38.6657 33.335 39.0907 33.025C39.5207 32.71 40.0282 32.5525 40.6132 32.5525C41.2032 32.5525 41.6982 32.685 42.0982 32.95C42.5032 33.215 42.8082 33.5875 43.0132 34.0675C43.2232 34.5475 43.3282 35.11 43.3282 35.755V40H41.7232ZM36.6982 40V29.725H38.3032V40H36.6982ZM45.6411 36.22V34.8175H49.8186V36.22H45.6411ZM16.4084 53V48.755C16.4084 48.175 16.2684 47.7375 15.9884 47.4425C15.7134 47.1425 15.3459 46.9925 14.8859 46.9925C14.5109 46.9925 14.1809 47.095 13.8959 47.3C13.6109 47.505 13.3884 47.81 13.2284 48.215C13.0684 48.62 12.9884 49.1175 12.9884 49.7075H12.4409C12.4409 48.7925 12.5559 48.0275 12.7859 47.4125C13.0209 46.7975 13.3509 46.335 13.7759 46.025C14.2059 45.71 14.7134 45.5525 15.2984 45.5525C15.8884 45.5525 16.3834 45.685 16.7834 45.95C17.1884 46.215 17.4934 46.5875 17.6984 47.0675C17.9084 47.5475 18.0134 48.11 18.0134 48.755V53H16.4084ZM11.3834 53V45.755H12.7859L12.9884 47.255V53H11.3834ZM22.0287 44.3225C21.7137 44.3225 21.4662 44.2375 21.2862 44.0675C21.1062 43.8925 21.0162 43.6575 21.0162 43.3625C21.0162 43.0725 21.1062 42.8425 21.2862 42.6725C21.4662 42.5025 21.7137 42.4175 22.0287 42.4175C22.3387 42.4175 22.5837 42.5025 22.7637 42.6725C22.9437 42.8425 23.0337 43.0725 23.0337 43.3625C23.0337 43.6575 22.9437 43.8925 22.7637 44.0675C22.5837 44.2375 22.3387 44.3225 22.0287 44.3225ZM21.2262 53V45.725H22.8312V53H21.2262ZM28.9863 53.2025C28.4013 53.2025 27.8513 53.05 27.3363 52.745C26.8263 52.44 26.4138 52.0025 26.0988 51.4325C25.7838 50.8625 25.6263 50.175 25.6263 49.37C25.6263 48.57 25.7813 47.885 26.0913 47.315C26.4063 46.745 26.8138 46.31 27.3138 46.01C27.8138 45.705 28.3463 45.5525 28.9113 45.5525C29.3863 45.5525 29.8213 45.67 30.2163 45.905C30.6113 46.14 30.9263 46.5 31.1613 46.985C31.4013 47.47 31.5213 48.085 31.5213 48.83H30.9063C30.9063 48.435 30.8263 48.1025 30.6663 47.8325C30.5113 47.5575 30.3013 47.35 30.0363 47.21C29.7763 47.065 29.4913 46.9925 29.1813 46.9925C28.8163 46.9925 28.4863 47.0875 28.1913 47.2775C27.9013 47.4675 27.6713 47.74 27.5013 48.095C27.3363 48.45 27.2538 48.875 27.2538 49.37C27.2538 49.9 27.3488 50.3425 27.5388 50.6975C27.7338 51.0475 27.9813 51.31 28.2813 51.485C28.5813 51.66 28.8888 51.7475 29.2038 51.7475C29.4988 51.7475 29.7738 51.6825 30.0288 51.5525C30.2888 51.4225 30.4988 51.2325 30.6588 50.9825C30.8238 50.7275 30.9063 50.4225 30.9063 50.0675H31.2513C31.2513 50.6875 31.1738 51.2325 31.0188 51.7025C30.8638 52.1725 30.6188 52.54 30.2838 52.805C29.9488 53.07 29.5163 53.2025 28.9863 53.2025ZM33.0588 56.7425C32.2788 56.5425 31.7238 56.23 31.3938 55.805C31.0688 55.38 30.9063 54.79 30.9063 54.035V47.5175L31.4613 45.755H32.5038V54.1475C32.5038 54.4575 32.5338 54.7 32.5938 54.875C32.6588 55.05 32.7663 55.1875 32.9163 55.2875C33.0663 55.3875 33.2738 55.48 33.5388 55.565L33.0588 56.7425ZM40.6793 45.725H42.2768V53H40.6793V45.725ZM35.6543 45.725H37.2593V50.195C37.2593 50.705 37.3843 51.09 37.6343 51.35C37.8843 51.605 38.2343 51.7325 38.6843 51.7325C39.0593 51.7325 39.3968 51.635 39.6968 51.44C40.0018 51.24 40.2418 50.9525 40.4168 50.5775C40.5918 50.2025 40.6793 49.7475 40.6793 49.2125H41.1443C41.1443 50.0775 41.0293 50.8025 40.7993 51.3875C40.5693 51.9675 40.2493 52.405 39.8393 52.7C39.4293 52.99 38.9518 53.135 38.4068 53.135C37.8868 53.135 37.4168 53.04 36.9968 52.85C36.5818 52.66 36.2543 52.3625 36.0143 51.9575C35.7743 51.5475 35.6543 51.0125 35.6543 50.3525V45.725ZM48.2407 53.2025C47.6207 53.2025 47.0557 53.0425 46.5457 52.7225C46.0407 52.4025 45.6357 51.955 45.3307 51.38C45.0307 50.805 44.8807 50.1375 44.8807 49.3775C44.8807 48.5775 45.0307 47.8925 45.3307 47.3225C45.6307 46.7525 46.0332 46.315 46.5382 46.01C47.0482 45.705 47.6157 45.5525 48.2407 45.5525C48.8157 45.5525 49.3082 45.6675 49.7182 45.8975C50.1282 46.1275 50.4582 46.4375 50.7082 46.8275C50.9632 47.2175 51.1357 47.66 51.2257 48.155C51.3157 48.645 51.3257 49.1525 51.2557 49.6775H46.1632V48.785H50.1382L49.7932 49.01C49.8082 48.755 49.7957 48.5 49.7557 48.245C49.7157 47.99 49.6382 47.7575 49.5232 47.5475C49.4132 47.3325 49.2557 47.16 49.0507 47.03C48.8457 46.9 48.5857 46.835 48.2707 46.835C47.8807 46.835 47.5507 46.9325 47.2807 47.1275C47.0157 47.3225 46.8157 47.585 46.6807 47.915C46.5457 48.245 46.4782 48.6125 46.4782 49.0175V49.6625C46.4782 50.0975 46.5432 50.4825 46.6732 50.8175C46.8032 51.1525 46.9982 51.4175 47.2582 51.6125C47.5182 51.8075 47.8457 51.905 48.2407 51.905C48.6207 51.905 48.9357 51.8175 49.1857 51.6425C49.4407 51.4625 49.6007 51.195 49.6657 50.84H51.2932C51.2182 51.31 51.0432 51.7225 50.7682 52.0775C50.4932 52.4325 50.1407 52.71 49.7107 52.91C49.2807 53.105 48.7907 53.2025 48.2407 53.2025Z" fill="black"/>
</svg>
